<?xml version="1.0" encoding="UTF-8" standalone="no"?><svg xmlns="http://www.w3.org/2000/svg" xmlns:xlink="http://www.w3.org/1999/xlink" contentStyleType="text/css" height="1047px" preserveAspectRatio="none" style="width:2197px;height:1047px;background:#FFFFFF;" version="1.1" viewBox="0 0 2197 1047" width="2197px" zoomAndPan="magnify"><defs/><g><!--cluster Model--><g id="cluster_Model"><path d="M962.5,589 L1011.5,589 A3.75,3.75 0 0 1 1014,591.5 L1021,611.2969 L1893.5,611.2969 A2.5,2.5 0 0 1 1896,613.7969 L1896,1037.5 A2.5,2.5 0 0 1 1893.5,1040 L962.5,1040 A2.5,2.5 0 0 1 960,1037.5 L960,591.5 A2.5,2.5 0 0 1 962.5,589 " fill="#FEB40F" style="stroke:#000000;stroke-width:1.5;"/><line style="stroke:#000000;stroke-width:1.5;" x1="960" x2="1021" y1="611.2969" y2="611.2969"/><text fill="#000000" font-family="sans-serif" font-size="14" font-weight="bold" lengthAdjust="spacing" textLength="48" x="964" y="603.9951">Model</text></g><!--cluster Controller--><g id="cluster_Controller"><path d="M985.5,277 L1067.5,277 A3.75,3.75 0 0 1 1070,279.5 L1077,299.2969 L1821.5,299.2969 A2.5,2.5 0 0 1 1824,301.7969 L1824,562.5 A2.5,2.5 0 0 1 1821.5,565 L985.5,565 A2.5,2.5 0 0 1 983,562.5 L983,279.5 A2.5,2.5 0 0 1 985.5,277 " fill="#7FFF00" style="stroke:#000000;stroke-width:1.5;"/><line style="stroke:#000000;stroke-width:1.5;" x1="983" x2="1077" y1="299.2969" y2="299.2969"/><text fill="#000000" font-family="sans-serif" font-size="14" font-weight="bold" lengthAdjust="spacing" textLength="81" x="987" y="291.9951">Controller</text></g><!--cluster View--><g id="cluster_View"><path d="M1064.5,38.5 L1103.5,38.5 A3.75,3.75 0 0 1 1106,41 L1113,60.7969 L2187.5,60.7969 A2.5,2.5 0 0 1 2190,63.2969 L2190,233 A2.5,2.5 0 0 1 2187.5,235.5 L1064.5,235.5 A2.5,2.5 0 0 1 1062,233 L1062,41 A2.5,2.5 0 0 1 1064.5,38.5 " fill="#D84437" style="stroke:#000000;stroke-width:1.5;"/><line style="stroke:#000000;stroke-width:1.5;" x1="1062" x2="1113" y1="60.7969" y2="60.7969"/><text fill="#000000" font-family="sans-serif" font-size="14" font-weight="bold" lengthAdjust="spacing" textLength="38" x="1066" y="53.4951">View</text></g><!--cluster Data--><g id="cluster_Data"><path d="M8.5,6 L48.5,6 A3.75,3.75 0 0 1 51,8.5 L58,28.2969 L933.5,28.2969 A2.5,2.5 0 0 1 936,30.7969 L936,823.5 A2.5,2.5 0 0 1 933.5,826 L8.5,826 A2.5,2.5 0 0 1 6,823.5 L6,8.5 A2.5,2.5 0 0 1 8.5,6 " fill="#F9E4BC" style="stroke:#000000;stroke-width:1.5;"/><line style="stroke:#000000;stroke-width:1.5;" x1="6" x2="58" y1="28.2969" y2="28.2969"/><text fill="#000000" font-family="sans-serif" font-size="14" font-weight="bold" lengthAdjust="spacing" textLength="39" x="10" y="20.9951">Data</text></g><!--cluster Persistent--><g id="cluster_Persistent"><path d="M32.5,425.5 L117.5,425.5 A3.75,3.75 0 0 1 120,428 L127,447.7969 L429.5,447.7969 A2.5,2.5 0 0 1 432,450.2969 L432,783 A2.5,2.5 0 0 1 429.5,785.5 L32.5,785.5 A2.5,2.5 0 0 1 30,783 L30,428 A2.5,2.5 0 0 1 32.5,425.5 " fill="none" style="stroke:#000000;stroke-width:1.5;"/><line style="stroke:#000000;stroke-width:1.5;" x1="30" x2="127" y1="447.7969" y2="447.7969"/><text fill="#000000" font-family="sans-serif" font-size="14" font-weight="bold" lengthAdjust="spacing" textLength="84" x="34" y="440.4951">Persistent</text></g><!--cluster NonPersistent--><g id="cluster_NonPersistent"><path d="M458.5,425.5 L574.5,425.5 A3.75,3.75 0 0 1 577,428 L584,447.7969 L909.5,447.7969 A2.5,2.5 0 0 1 912,450.2969 L912,799.5 A2.5,2.5 0 0 1 909.5,802 L458.5,802 A2.5,2.5 0 0 1 456,799.5 L456,428 A2.5,2.5 0 0 1 458.5,425.5 " fill="none" style="stroke:#000000;stroke-width:1.5;"/><line style="stroke:#000000;stroke-width:1.5;" x1="456" x2="584" y1="447.7969" y2="447.7969"/><text fill="#000000" font-family="sans-serif" font-size="14" font-weight="bold" lengthAdjust="spacing" textLength="115" x="460" y="440.4951">NonPersistent</text></g><!--class ag--><g id="elem_ag"><rect codeLine="2" fill="#F1F1F1" height="113.1875" id="ag" rx="2.5" ry="2.5" style="stroke:#181818;stroke-width:0.5;" width="141" x="1176.5" y="911"/><ellipse cx="1194.65" cy="927" fill="#ADD1B2" rx="11" ry="11" style="stroke:#181818;stroke-width:1.0;"/><path d="M1196.9938,922.6719 C1196.0563,922.2344 1195.4625,922.0938 1194.5875,922.0938 C1191.9625,922.0938 1189.9625,924.1719 1189.9625,926.8906 L1189.9625,928.0156 C1189.9625,930.5938 1192.0719,932.4844 1194.9625,932.4844 C1196.1813,932.4844 1197.3375,932.1875 1198.0875,931.6406 C1198.6656,931.2344 1198.9938,930.7813 1198.9938,930.3906 C1198.9938,929.9375 1198.6031,929.5469 1198.1344,929.5469 C1197.9156,929.5469 1197.7125,929.625 1197.525,929.8125 C1197.0719,930.2969 1197.0719,930.2969 1196.8844,930.3906 C1196.4625,930.6563 1195.775,930.7813 1195.0094,930.7813 C1192.9625,930.7813 1191.6656,929.6875 1191.6656,927.9844 L1191.6656,926.8906 C1191.6656,925.1094 1192.9156,923.7969 1194.65,923.7969 C1195.2281,923.7969 1195.8375,923.9531 1196.3063,924.2031 C1196.7906,924.4844 1196.9625,924.7031 1197.0563,925.1094 C1197.1188,925.5156 1197.15,925.6406 1197.2906,925.7656 C1197.4313,925.9063 1197.6656,926.0156 1197.8844,926.0156 C1198.15,926.0156 1198.4156,925.875 1198.5875,925.6563 C1198.6969,925.5 1198.7281,925.3125 1198.7281,924.8906 L1198.7281,923.4688 C1198.7281,923.0313 1198.7125,922.9063 1198.6188,922.75 C1198.4625,922.4844 1198.1813,922.3438 1197.8844,922.3438 C1197.5875,922.3438 1197.3844,922.4375 1197.1656,922.75 L1196.9938,922.6719 Z " fill="#000000"/><text fill="#000000" font-family="sans-serif" font-size="14" lengthAdjust="spacing" textLength="102" x="1209.35" y="931.8467">Agendamento</text><line style="stroke:#181818;stroke-width:0.5;" x1="1177.5" x2="1316.5" y1="943" y2="943"/><ellipse cx="1187.5" cy="956.6484" fill="none" rx="3" ry="3" style="stroke:#038048;stroke-width:1.0;"/><text fill="#000000" font-family="sans-serif" font-size="14" lengthAdjust="spacing" textLength="109" x="1196.5" y="959.9951">CpfDoPaciente</text><ellipse cx="1187.5" cy="972.9453" fill="none" rx="3" ry="3" style="stroke:#038048;stroke-width:1.0;"/><text fill="#000000" font-family="sans-serif" font-size="14" lengthAdjust="spacing" textLength="115" x="1196.5" y="976.292">DataDaConsulta</text><ellipse cx="1187.5" cy="989.2422" fill="none" rx="3" ry="3" style="stroke:#038048;stroke-width:1.0;"/><text fill="#000000" font-family="sans-serif" font-size="14" lengthAdjust="spacing" textLength="74" x="1196.5" y="992.5889">HoraInicial</text><ellipse cx="1187.5" cy="1005.5391" fill="none" rx="3" ry="3" style="stroke:#038048;stroke-width:1.0;"/><text fill="#000000" font-family="sans-serif" font-size="14" lengthAdjust="spacing" textLength="66" x="1196.5" y="1008.8857">HoraFinal</text><line style="stroke:#181818;stroke-width:0.5;" x1="1177.5" x2="1316.5" y1="1016.1875" y2="1016.1875"/></g><!--class agb--><g id="elem_agb"><rect codeLine="8" fill="#F1F1F1" height="64.2969" id="agb" rx="2.5" ry="2.5" style="stroke:#181818;stroke-width:0.5;" width="229" x="1650.5" y="705.5"/><ellipse cx="1685.75" cy="721.5" fill="#ADD1B2" rx="11" ry="11" style="stroke:#181818;stroke-width:1.0;"/><path d="M1688.0938,717.1719 C1687.1563,716.7344 1686.5625,716.5938 1685.6875,716.5938 C1683.0625,716.5938 1681.0625,718.6719 1681.0625,721.3906 L1681.0625,722.5156 C1681.0625,725.0938 1683.1719,726.9844 1686.0625,726.9844 C1687.2813,726.9844 1688.4375,726.6875 1689.1875,726.1406 C1689.7656,725.7344 1690.0938,725.2813 1690.0938,724.8906 C1690.0938,724.4375 1689.7031,724.0469 1689.2344,724.0469 C1689.0156,724.0469 1688.8125,724.125 1688.625,724.3125 C1688.1719,724.7969 1688.1719,724.7969 1687.9844,724.8906 C1687.5625,725.1563 1686.875,725.2813 1686.1094,725.2813 C1684.0625,725.2813 1682.7656,724.1875 1682.7656,722.4844 L1682.7656,721.3906 C1682.7656,719.6094 1684.0156,718.2969 1685.75,718.2969 C1686.3281,718.2969 1686.9375,718.4531 1687.4063,718.7031 C1687.8906,718.9844 1688.0625,719.2031 1688.1563,719.6094 C1688.2188,720.0156 1688.25,720.1406 1688.3906,720.2656 C1688.5313,720.4063 1688.7656,720.5156 1688.9844,720.5156 C1689.25,720.5156 1689.5156,720.375 1689.6875,720.1563 C1689.7969,720 1689.8281,719.8125 1689.8281,719.3906 L1689.8281,717.9688 C1689.8281,717.5313 1689.8125,717.4063 1689.7188,717.25 C1689.5625,716.9844 1689.2813,716.8438 1688.9844,716.8438 C1688.6875,716.8438 1688.4844,716.9375 1688.2656,717.25 L1688.0938,717.1719 Z " fill="#000000"/><text fill="#000000" font-family="sans-serif" font-size="14" lengthAdjust="spacing" textLength="152" x="1704.25" y="726.3467">AgendamentoBuilder</text><line style="stroke:#181818;stroke-width:0.5;" x1="1651.5" x2="1878.5" y1="737.5" y2="737.5"/><text fill="#000000" font-family="sans-serif" font-size="14" lengthAdjust="spacing" textLength="217" x="1656.5" y="754.4951">Valida dados de Agendamento</text><line style="stroke:#181818;stroke-width:0.5;" x1="1651.5" x2="1878.5" y1="761.7969" y2="761.7969"/></g><!--class pc--><g id="elem_pc"><rect codeLine="11" fill="#F1F1F1" height="96.8906" id="pc" rx="2.5" ry="2.5" style="stroke:#181818;stroke-width:0.5;" width="165" x="976.5" y="919"/><ellipse cx="1023.25" cy="935" fill="#ADD1B2" rx="11" ry="11" style="stroke:#181818;stroke-width:1.0;"/><path d="M1025.5938,930.6719 C1024.6563,930.2344 1024.0625,930.0938 1023.1875,930.0938 C1020.5625,930.0938 1018.5625,932.1719 1018.5625,934.8906 L1018.5625,936.0156 C1018.5625,938.5938 1020.6719,940.4844 1023.5625,940.4844 C1024.7813,940.4844 1025.9375,940.1875 1026.6875,939.6406 C1027.2656,939.2344 1027.5938,938.7813 1027.5938,938.3906 C1027.5938,937.9375 1027.2031,937.5469 1026.7344,937.5469 C1026.5156,937.5469 1026.3125,937.625 1026.125,937.8125 C1025.6719,938.2969 1025.6719,938.2969 1025.4844,938.3906 C1025.0625,938.6563 1024.375,938.7813 1023.6094,938.7813 C1021.5625,938.7813 1020.2656,937.6875 1020.2656,935.9844 L1020.2656,934.8906 C1020.2656,933.1094 1021.5156,931.7969 1023.25,931.7969 C1023.8281,931.7969 1024.4375,931.9531 1024.9063,932.2031 C1025.3906,932.4844 1025.5625,932.7031 1025.6563,933.1094 C1025.7188,933.5156 1025.75,933.6406 1025.8906,933.7656 C1026.0313,933.9063 1026.2656,934.0156 1026.4844,934.0156 C1026.75,934.0156 1027.0156,933.875 1027.1875,933.6563 C1027.2969,933.5 1027.3281,933.3125 1027.3281,932.8906 L1027.3281,931.4688 C1027.3281,931.0313 1027.3125,930.9063 1027.2188,930.75 C1027.0625,930.4844 1026.7813,930.3438 1026.4844,930.3438 C1026.1875,930.3438 1025.9844,930.4375 1025.7656,930.75 L1025.5938,930.6719 Z " fill="#000000"/><text fill="#000000" font-family="sans-serif" font-size="14" lengthAdjust="spacing" textLength="63" x="1043.75" y="939.8467">Paciente</text><line style="stroke:#181818;stroke-width:0.5;" x1="977.5" x2="1140.5" y1="951" y2="951"/><ellipse cx="987.5" cy="964.6484" fill="none" rx="3" ry="3" style="stroke:#038048;stroke-width:1.0;"/><text fill="#000000" font-family="sans-serif" font-size="14" lengthAdjust="spacing" textLength="26" x="996.5" y="967.9951">Cpf</text><ellipse cx="987.5" cy="980.9453" fill="none" rx="3" ry="3" style="stroke:#038048;stroke-width:1.0;"/><text fill="#000000" font-family="sans-serif" font-size="14" lengthAdjust="spacing" textLength="42" x="996.5" y="984.292">Nome</text><ellipse cx="987.5" cy="997.2422" fill="none" rx="3" ry="3" style="stroke:#038048;stroke-width:1.0;"/><text fill="#000000" font-family="sans-serif" font-size="14" lengthAdjust="spacing" textLength="139" x="996.5" y="1000.5889">DataDeNascimento</text><line style="stroke:#181818;stroke-width:0.5;" x1="977.5" x2="1140.5" y1="1007.8906" y2="1007.8906"/></g><!--class pcb--><g id="elem_pcb"><rect codeLine="16" fill="#F1F1F1" height="64.2969" id="pcb" rx="2.5" ry="2.5" style="stroke:#181818;stroke-width:0.5;" width="190" x="1425" y="705.5"/><ellipse cx="1453.05" cy="721.5" fill="#ADD1B2" rx="11" ry="11" style="stroke:#181818;stroke-width:1.0;"/><path d="M1455.3938,717.1719 C1454.4563,716.7344 1453.8625,716.5938 1452.9875,716.5938 C1450.3625,716.5938 1448.3625,718.6719 1448.3625,721.3906 L1448.3625,722.5156 C1448.3625,725.0938 1450.4719,726.9844 1453.3625,726.9844 C1454.5813,726.9844 1455.7375,726.6875 1456.4875,726.1406 C1457.0656,725.7344 1457.3938,725.2813 1457.3938,724.8906 C1457.3938,724.4375 1457.0031,724.0469 1456.5344,724.0469 C1456.3156,724.0469 1456.1125,724.125 1455.925,724.3125 C1455.4719,724.7969 1455.4719,724.7969 1455.2844,724.8906 C1454.8625,725.1563 1454.175,725.2813 1453.4094,725.2813 C1451.3625,725.2813 1450.0656,724.1875 1450.0656,722.4844 L1450.0656,721.3906 C1450.0656,719.6094 1451.3156,718.2969 1453.05,718.2969 C1453.6281,718.2969 1454.2375,718.4531 1454.7063,718.7031 C1455.1906,718.9844 1455.3625,719.2031 1455.4563,719.6094 C1455.5188,720.0156 1455.55,720.1406 1455.6906,720.2656 C1455.8313,720.4063 1456.0656,720.5156 1456.2844,720.5156 C1456.55,720.5156 1456.8156,720.375 1456.9875,720.1563 C1457.0969,720 1457.1281,719.8125 1457.1281,719.3906 L1457.1281,717.9688 C1457.1281,717.5313 1457.1125,717.4063 1457.0188,717.25 C1456.8625,716.9844 1456.5813,716.8438 1456.2844,716.8438 C1455.9875,716.8438 1455.7844,716.9375 1455.5656,717.25 L1455.3938,717.1719 Z " fill="#000000"/><text fill="#000000" font-family="sans-serif" font-size="14" lengthAdjust="spacing" textLength="113" x="1477.95" y="726.3467">PacienteBuilder</text><line style="stroke:#181818;stroke-width:0.5;" x1="1426" x2="1614" y1="737.5" y2="737.5"/><text fill="#000000" font-family="sans-serif" font-size="14" lengthAdjust="spacing" textLength="178" x="1431" y="754.4951">Valida dados de Paciente</text><line style="stroke:#181818;stroke-width:0.5;" x1="1426" x2="1614" y1="761.7969" y2="761.7969"/></g><!--class c--><g id="elem_c"><rect codeLine="20" fill="#F1F1F1" height="227.2656" id="c" rx="2.5" ry="2.5" style="stroke:#181818;stroke-width:0.5;" width="413" x="976.5" y="624"/><ellipse cx="1137.75" cy="640" fill="#ADD1B2" rx="11" ry="11" style="stroke:#181818;stroke-width:1.0;"/><path d="M1140.0938,635.6719 C1139.1563,635.2344 1138.5625,635.0938 1137.6875,635.0938 C1135.0625,635.0938 1133.0625,637.1719 1133.0625,639.8906 L1133.0625,641.0156 C1133.0625,643.5938 1135.1719,645.4844 1138.0625,645.4844 C1139.2813,645.4844 1140.4375,645.1875 1141.1875,644.6406 C1141.7656,644.2344 1142.0938,643.7813 1142.0938,643.3906 C1142.0938,642.9375 1141.7031,642.5469 1141.2344,642.5469 C1141.0156,642.5469 1140.8125,642.625 1140.625,642.8125 C1140.1719,643.2969 1140.1719,643.2969 1139.9844,643.3906 C1139.5625,643.6563 1138.875,643.7813 1138.1094,643.7813 C1136.0625,643.7813 1134.7656,642.6875 1134.7656,640.9844 L1134.7656,639.8906 C1134.7656,638.1094 1136.0156,636.7969 1137.75,636.7969 C1138.3281,636.7969 1138.9375,636.9531 1139.4063,637.2031 C1139.8906,637.4844 1140.0625,637.7031 1140.1563,638.1094 C1140.2188,638.5156 1140.25,638.6406 1140.3906,638.7656 C1140.5313,638.9063 1140.7656,639.0156 1140.9844,639.0156 C1141.25,639.0156 1141.5156,638.875 1141.6875,638.6563 C1141.7969,638.5 1141.8281,638.3125 1141.8281,637.8906 L1141.8281,636.4688 C1141.8281,636.0313 1141.8125,635.9063 1141.7188,635.75 C1141.5625,635.4844 1141.2813,635.3438 1140.9844,635.3438 C1140.6875,635.3438 1140.4844,635.4375 1140.2656,635.75 L1140.0938,635.6719 Z " fill="#000000"/><text fill="#000000" font-family="sans-serif" font-size="14" lengthAdjust="spacing" textLength="82" x="1158.25" y="644.8467">Consultorio</text><line style="stroke:#181818;stroke-width:0.5;" x1="977.5" x2="1388.5" y1="656" y2="656"/><line style="stroke:#181818;stroke-width:0.5;" x1="977.5" x2="1388.5" y1="664" y2="664"/><ellipse cx="987.5" cy="677.6484" fill="#84BE84" rx="3" ry="3" style="stroke:#038048;stroke-width:1.0;"/><text fill="#000000" font-family="sans-serif" font-size="14" lengthAdjust="spacing" textLength="205" x="996.5" y="680.9951">AddPaciente(Paciente): bool</text><text fill="#000000" font-family="sans-serif" font-size="14" lengthAdjust="spacing" textLength="4" x="996.5" y="697.292"> </text><ellipse cx="987.5" cy="710.2422" fill="#84BE84" rx="3" ry="3" style="stroke:#038048;stroke-width:1.0;"/><text fill="#000000" font-family="sans-serif" font-size="14" lengthAdjust="spacing" textLength="226" x="996.5" y="713.5889">DeletePaciente(Paciente): bool</text><text fill="#000000" font-family="sans-serif" font-size="14" lengthAdjust="spacing" textLength="4" x="996.5" y="729.8857"> </text><ellipse cx="987.5" cy="742.8359" fill="#84BE84" rx="3" ry="3" style="stroke:#038048;stroke-width:1.0;"/><text fill="#000000" font-family="sans-serif" font-size="14" lengthAdjust="spacing" textLength="309" x="996.5" y="746.1826">GetAllPacientes(): IEnumerable&lt;Paciente&gt;</text><text fill="#000000" font-family="sans-serif" font-size="14" lengthAdjust="spacing" textLength="4" x="996.5" y="762.4795"> </text><ellipse cx="987.5" cy="775.4297" fill="#84BE84" rx="3" ry="3" style="stroke:#038048;stroke-width:1.0;"/><text fill="#000000" font-family="sans-serif" font-size="14" lengthAdjust="spacing" textLength="283" x="996.5" y="778.7764">AddAgendamento(Agendamento): bool</text><text fill="#000000" font-family="sans-serif" font-size="14" lengthAdjust="spacing" textLength="4" x="996.5" y="795.0732"> </text><ellipse cx="987.5" cy="808.0234" fill="#84BE84" rx="3" ry="3" style="stroke:#038048;stroke-width:1.0;"/><text fill="#000000" font-family="sans-serif" font-size="14" lengthAdjust="spacing" textLength="374" x="996.5" y="811.3701">DeleteAgendamento(ulong, DateTime, ushort): bool</text><text fill="#000000" font-family="sans-serif" font-size="14" lengthAdjust="spacing" textLength="4" x="996.5" y="827.667"> </text><ellipse cx="987.5" cy="840.6172" fill="#84BE84" rx="3" ry="3" style="stroke:#038048;stroke-width:1.0;"/><text fill="#000000" font-family="sans-serif" font-size="14" lengthAdjust="spacing" textLength="387" x="996.5" y="843.9639">GetAllAgendamentos(): IEnumerable&lt;Agendamento&gt;</text></g><!--class mc--><g id="elem_mc"><rect codeLine="39" fill="#F1F1F1" height="48" id="mc" rx="2.5" ry="2.5" style="stroke:#181818;stroke-width:0.5;" width="138" x="1535" y="312"/><ellipse cx="1550" cy="328" fill="#ADD1B2" rx="11" ry="11" style="stroke:#181818;stroke-width:1.0;"/><path d="M1552.3438,323.6719 C1551.4063,323.2344 1550.8125,323.0938 1549.9375,323.0938 C1547.3125,323.0938 1545.3125,325.1719 1545.3125,327.8906 L1545.3125,329.0156 C1545.3125,331.5938 1547.4219,333.4844 1550.3125,333.4844 C1551.5313,333.4844 1552.6875,333.1875 1553.4375,332.6406 C1554.0156,332.2344 1554.3438,331.7813 1554.3438,331.3906 C1554.3438,330.9375 1553.9531,330.5469 1553.4844,330.5469 C1553.2656,330.5469 1553.0625,330.625 1552.875,330.8125 C1552.4219,331.2969 1552.4219,331.2969 1552.2344,331.3906 C1551.8125,331.6563 1551.125,331.7813 1550.3594,331.7813 C1548.3125,331.7813 1547.0156,330.6875 1547.0156,328.9844 L1547.0156,327.8906 C1547.0156,326.1094 1548.2656,324.7969 1550,324.7969 C1550.5781,324.7969 1551.1875,324.9531 1551.6563,325.2031 C1552.1406,325.4844 1552.3125,325.7031 1552.4063,326.1094 C1552.4688,326.5156 1552.5,326.6406 1552.6406,326.7656 C1552.7813,326.9063 1553.0156,327.0156 1553.2344,327.0156 C1553.5,327.0156 1553.7656,326.875 1553.9375,326.6563 C1554.0469,326.5 1554.0781,326.3125 1554.0781,325.8906 L1554.0781,324.4688 C1554.0781,324.0313 1554.0625,323.9063 1553.9688,323.75 C1553.8125,323.4844 1553.5313,323.3438 1553.2344,323.3438 C1552.9375,323.3438 1552.7344,323.4375 1552.5156,323.75 L1552.3438,323.6719 Z " fill="#000000"/><text fill="#000000" font-family="sans-serif" font-size="14" lengthAdjust="spacing" textLength="106" x="1564" y="332.8467">MainController</text><line style="stroke:#181818;stroke-width:0.5;" x1="1536" x2="1672" y1="344" y2="344"/><line style="stroke:#181818;stroke-width:0.5;" x1="1536" x2="1672" y1="352" y2="352"/></g><!--class agc--><g id="elem_agc"><rect codeLine="42" fill="#F1F1F1" height="129.4844" id="agc" rx="2.5" ry="2.5" style="stroke:#181818;stroke-width:0.5;" width="406" x="999" y="420"/><ellipse cx="1110.25" cy="436" fill="#ADD1B2" rx="11" ry="11" style="stroke:#181818;stroke-width:1.0;"/><path d="M1112.5938,431.6719 C1111.6563,431.2344 1111.0625,431.0938 1110.1875,431.0938 C1107.5625,431.0938 1105.5625,433.1719 1105.5625,435.8906 L1105.5625,437.0156 C1105.5625,439.5938 1107.6719,441.4844 1110.5625,441.4844 C1111.7813,441.4844 1112.9375,441.1875 1113.6875,440.6406 C1114.2656,440.2344 1114.5938,439.7813 1114.5938,439.3906 C1114.5938,438.9375 1114.2031,438.5469 1113.7344,438.5469 C1113.5156,438.5469 1113.3125,438.625 1113.125,438.8125 C1112.6719,439.2969 1112.6719,439.2969 1112.4844,439.3906 C1112.0625,439.6563 1111.375,439.7813 1110.6094,439.7813 C1108.5625,439.7813 1107.2656,438.6875 1107.2656,436.9844 L1107.2656,435.8906 C1107.2656,434.1094 1108.5156,432.7969 1110.25,432.7969 C1110.8281,432.7969 1111.4375,432.9531 1111.9063,433.2031 C1112.3906,433.4844 1112.5625,433.7031 1112.6563,434.1094 C1112.7188,434.5156 1112.75,434.6406 1112.8906,434.7656 C1113.0313,434.9063 1113.2656,435.0156 1113.4844,435.0156 C1113.75,435.0156 1114.0156,434.875 1114.1875,434.6563 C1114.2969,434.5 1114.3281,434.3125 1114.3281,433.8906 L1114.3281,432.4688 C1114.3281,432.0313 1114.3125,431.9063 1114.2188,431.75 C1114.0625,431.4844 1113.7813,431.3438 1113.4844,431.3438 C1113.1875,431.3438 1112.9844,431.4375 1112.7656,431.75 L1112.5938,431.6719 Z " fill="#000000"/><text fill="#000000" font-family="sans-serif" font-size="14" lengthAdjust="spacing" textLength="175" x="1130.75" y="440.8467">AgendamentoController</text><line style="stroke:#181818;stroke-width:0.5;" x1="1000" x2="1404" y1="452" y2="452"/><text fill="#000000" font-family="sans-serif" font-size="14" lengthAdjust="spacing" textLength="394" x="1005" y="468.9951">Recebe os dados de AgendamentoView e os envia para</text><text fill="#000000" font-family="sans-serif" font-size="14" lengthAdjust="spacing" textLength="318" x="1005" y="485.292">função correspondente na camada de Dados</text><line style="stroke:#181818;stroke-width:0.5;" x1="1000" x2="1404" y1="492.5938" y2="492.5938"/><ellipse cx="1010" cy="506.2422" fill="#84BE84" rx="3" ry="3" style="stroke:#038048;stroke-width:1.0;"/><text fill="#000000" font-family="sans-serif" font-size="14" lengthAdjust="spacing" textLength="132" x="1019" y="509.5889">AgendarConsulta()</text><ellipse cx="1010" cy="522.5391" fill="#84BE84" rx="3" ry="3" style="stroke:#038048;stroke-width:1.0;"/><text fill="#000000" font-family="sans-serif" font-size="14" lengthAdjust="spacing" textLength="134" x="1019" y="525.8857">CancelarConsulta()</text><ellipse cx="1010" cy="538.8359" fill="#84BE84" rx="3" ry="3" style="stroke:#038048;stroke-width:1.0;"/><text fill="#000000" font-family="sans-serif" font-size="14" lengthAdjust="spacing" textLength="146" x="1019" y="542.1826">GetAgendamentos()</text></g><!--class pcc--><g id="elem_pcc"><rect codeLine="49" fill="#F1F1F1" height="129.4844" id="pcc" rx="2.5" ry="2.5" style="stroke:#181818;stroke-width:0.5;" width="367" x="1440.5" y="420"/><ellipse cx="1551.75" cy="436" fill="#ADD1B2" rx="11" ry="11" style="stroke:#181818;stroke-width:1.0;"/><path d="M1554.0938,431.6719 C1553.1563,431.2344 1552.5625,431.0938 1551.6875,431.0938 C1549.0625,431.0938 1547.0625,433.1719 1547.0625,435.8906 L1547.0625,437.0156 C1547.0625,439.5938 1549.1719,441.4844 1552.0625,441.4844 C1553.2813,441.4844 1554.4375,441.1875 1555.1875,440.6406 C1555.7656,440.2344 1556.0938,439.7813 1556.0938,439.3906 C1556.0938,438.9375 1555.7031,438.5469 1555.2344,438.5469 C1555.0156,438.5469 1554.8125,438.625 1554.625,438.8125 C1554.1719,439.2969 1554.1719,439.2969 1553.9844,439.3906 C1553.5625,439.6563 1552.875,439.7813 1552.1094,439.7813 C1550.0625,439.7813 1548.7656,438.6875 1548.7656,436.9844 L1548.7656,435.8906 C1548.7656,434.1094 1550.0156,432.7969 1551.75,432.7969 C1552.3281,432.7969 1552.9375,432.9531 1553.4063,433.2031 C1553.8906,433.4844 1554.0625,433.7031 1554.1563,434.1094 C1554.2188,434.5156 1554.25,434.6406 1554.3906,434.7656 C1554.5313,434.9063 1554.7656,435.0156 1554.9844,435.0156 C1555.25,435.0156 1555.5156,434.875 1555.6875,434.6563 C1555.7969,434.5 1555.8281,434.3125 1555.8281,433.8906 L1555.8281,432.4688 C1555.8281,432.0313 1555.8125,431.9063 1555.7188,431.75 C1555.5625,431.4844 1555.2813,431.3438 1554.9844,431.3438 C1554.6875,431.3438 1554.4844,431.4375 1554.2656,431.75 L1554.0938,431.6719 Z " fill="#000000"/><text fill="#000000" font-family="sans-serif" font-size="14" lengthAdjust="spacing" textLength="136" x="1572.25" y="440.8467">PacienteController</text><line style="stroke:#181818;stroke-width:0.5;" x1="1441.5" x2="1806.5" y1="452" y2="452"/><text fill="#000000" font-family="sans-serif" font-size="14" lengthAdjust="spacing" textLength="355" x="1446.5" y="468.9951">Recebe os dados de PacienteView e os envia para</text><text fill="#000000" font-family="sans-serif" font-size="14" lengthAdjust="spacing" textLength="318" x="1446.5" y="485.292">função correspondente na camada de Dados</text><line style="stroke:#181818;stroke-width:0.5;" x1="1441.5" x2="1806.5" y1="492.5938" y2="492.5938"/><ellipse cx="1451.5" cy="506.2422" fill="#84BE84" rx="3" ry="3" style="stroke:#038048;stroke-width:1.0;"/><text fill="#000000" font-family="sans-serif" font-size="14" lengthAdjust="spacing" textLength="116" x="1460.5" y="509.5889">IncluirPaciente()</text><ellipse cx="1451.5" cy="522.5391" fill="#84BE84" rx="3" ry="3" style="stroke:#038048;stroke-width:1.0;"/><text fill="#000000" font-family="sans-serif" font-size="14" lengthAdjust="spacing" textLength="120" x="1460.5" y="525.8857">ExcluirPaciente()</text><ellipse cx="1451.5" cy="538.8359" fill="#84BE84" rx="3" ry="3" style="stroke:#038048;stroke-width:1.0;"/><text fill="#000000" font-family="sans-serif" font-size="14" lengthAdjust="spacing" textLength="107" x="1460.5" y="542.1826">GetPacientes()</text></g><!--class pv--><g id="elem_pv"><rect codeLine="60" fill="#F1F1F1" height="145.7813" id="pv" rx="2.5" ry="2.5" style="stroke:#181818;stroke-width:0.5;" width="330" x="1439" y="73.5"/><ellipse cx="1551.25" cy="89.5" fill="#ADD1B2" rx="11" ry="11" style="stroke:#181818;stroke-width:1.0;"/><path d="M1553.5938,85.1719 C1552.6563,84.7344 1552.0625,84.5938 1551.1875,84.5938 C1548.5625,84.5938 1546.5625,86.6719 1546.5625,89.3906 L1546.5625,90.5156 C1546.5625,93.0938 1548.6719,94.9844 1551.5625,94.9844 C1552.7813,94.9844 1553.9375,94.6875 1554.6875,94.1406 C1555.2656,93.7344 1555.5938,93.2813 1555.5938,92.8906 C1555.5938,92.4375 1555.2031,92.0469 1554.7344,92.0469 C1554.5156,92.0469 1554.3125,92.125 1554.125,92.3125 C1553.6719,92.7969 1553.6719,92.7969 1553.4844,92.8906 C1553.0625,93.1563 1552.375,93.2813 1551.6094,93.2813 C1549.5625,93.2813 1548.2656,92.1875 1548.2656,90.4844 L1548.2656,89.3906 C1548.2656,87.6094 1549.5156,86.2969 1551.25,86.2969 C1551.8281,86.2969 1552.4375,86.4531 1552.9063,86.7031 C1553.3906,86.9844 1553.5625,87.2031 1553.6563,87.6094 C1553.7188,88.0156 1553.75,88.1406 1553.8906,88.2656 C1554.0313,88.4063 1554.2656,88.5156 1554.4844,88.5156 C1554.75,88.5156 1555.0156,88.375 1555.1875,88.1563 C1555.2969,88 1555.3281,87.8125 1555.3281,87.3906 L1555.3281,85.9688 C1555.3281,85.5313 1555.3125,85.4063 1555.2188,85.25 C1555.0625,84.9844 1554.7813,84.8438 1554.4844,84.8438 C1554.1875,84.8438 1553.9844,84.9375 1553.7656,85.25 L1553.5938,85.1719 Z " fill="#000000"/><text fill="#000000" font-family="sans-serif" font-size="14" lengthAdjust="spacing" textLength="97" x="1571.75" y="94.3467">PacienteView</text><line style="stroke:#181818;stroke-width:0.5;" x1="1440" x2="1768" y1="105.5" y2="105.5"/><text fill="#000000" font-family="sans-serif" font-size="14" lengthAdjust="spacing" textLength="275" x="1445" y="122.4951">Interage com o usuário para realizar as</text><text fill="#000000" font-family="sans-serif" font-size="14" lengthAdjust="spacing" textLength="318" x="1445" y="138.792">funcionalidades referentes a classe Paciente</text><line style="stroke:#181818;stroke-width:0.5;" x1="1440" x2="1768" y1="146.0938" y2="146.0938"/><ellipse cx="1450" cy="159.7422" fill="#84BE84" rx="3" ry="3" style="stroke:#038048;stroke-width:1.0;"/><text fill="#000000" font-family="sans-serif" font-size="14" lengthAdjust="spacing" textLength="142" x="1459" y="163.0889">CadastrarPaciente()</text><ellipse cx="1450" cy="176.0391" fill="#84BE84" rx="3" ry="3" style="stroke:#038048;stroke-width:1.0;"/><text fill="#000000" font-family="sans-serif" font-size="14" lengthAdjust="spacing" textLength="120" x="1459" y="179.3857">ExcluirPaciente()</text><ellipse cx="1450" cy="192.3359" fill="#84BE84" rx="3" ry="3" style="stroke:#038048;stroke-width:1.0;"/><text fill="#000000" font-family="sans-serif" font-size="14" lengthAdjust="spacing" textLength="170" x="1459" y="195.6826">ListarPacientesPorCpf()</text><ellipse cx="1450" cy="208.6328" fill="#84BE84" rx="3" ry="3" style="stroke:#038048;stroke-width:1.0;"/><text fill="#000000" font-family="sans-serif" font-size="14" lengthAdjust="spacing" textLength="186" x="1459" y="211.9795">ListarPacientesPorNome()</text></g><!--class av--><g id="elem_av"><rect codeLine="69" fill="#F1F1F1" height="145.7813" id="av" rx="2.5" ry="2.5" style="stroke:#181818;stroke-width:0.5;" width="369" x="1804.5" y="73.5"/><ellipse cx="1916.75" cy="89.5" fill="#ADD1B2" rx="11" ry="11" style="stroke:#181818;stroke-width:1.0;"/><path d="M1919.0938,85.1719 C1918.1563,84.7344 1917.5625,84.5938 1916.6875,84.5938 C1914.0625,84.5938 1912.0625,86.6719 1912.0625,89.3906 L1912.0625,90.5156 C1912.0625,93.0938 1914.1719,94.9844 1917.0625,94.9844 C1918.2813,94.9844 1919.4375,94.6875 1920.1875,94.1406 C1920.7656,93.7344 1921.0938,93.2813 1921.0938,92.8906 C1921.0938,92.4375 1920.7031,92.0469 1920.2344,92.0469 C1920.0156,92.0469 1919.8125,92.125 1919.625,92.3125 C1919.1719,92.7969 1919.1719,92.7969 1918.9844,92.8906 C1918.5625,93.1563 1917.875,93.2813 1917.1094,93.2813 C1915.0625,93.2813 1913.7656,92.1875 1913.7656,90.4844 L1913.7656,89.3906 C1913.7656,87.6094 1915.0156,86.2969 1916.75,86.2969 C1917.3281,86.2969 1917.9375,86.4531 1918.4063,86.7031 C1918.8906,86.9844 1919.0625,87.2031 1919.1563,87.6094 C1919.2188,88.0156 1919.25,88.1406 1919.3906,88.2656 C1919.5313,88.4063 1919.7656,88.5156 1919.9844,88.5156 C1920.25,88.5156 1920.5156,88.375 1920.6875,88.1563 C1920.7969,88 1920.8281,87.8125 1920.8281,87.3906 L1920.8281,85.9688 C1920.8281,85.5313 1920.8125,85.4063 1920.7188,85.25 C1920.5625,84.9844 1920.2813,84.8438 1919.9844,84.8438 C1919.6875,84.8438 1919.4844,84.9375 1919.2656,85.25 L1919.0938,85.1719 Z " fill="#000000"/><text fill="#000000" font-family="sans-serif" font-size="14" lengthAdjust="spacing" textLength="136" x="1937.25" y="94.3467">AgendamentoView</text><line style="stroke:#181818;stroke-width:0.5;" x1="1805.5" x2="2172.5" y1="105.5" y2="105.5"/><text fill="#000000" font-family="sans-serif" font-size="14" lengthAdjust="spacing" textLength="275" x="1810.5" y="122.4951">Interage com o usuário para realizar as</text><text fill="#000000" font-family="sans-serif" font-size="14" lengthAdjust="spacing" textLength="357" x="1810.5" y="138.792">funcionalidades referentes a classe Agendamento</text><line style="stroke:#181818;stroke-width:0.5;" x1="1805.5" x2="2172.5" y1="146.0938" y2="146.0938"/><ellipse cx="1815.5" cy="159.7422" fill="#84BE84" rx="3" ry="3" style="stroke:#038048;stroke-width:1.0;"/><text fill="#000000" font-family="sans-serif" font-size="14" lengthAdjust="spacing" textLength="132" x="1824.5" y="163.0889">AgendarConsulta()</text><ellipse cx="1815.5" cy="176.0391" fill="#84BE84" rx="3" ry="3" style="stroke:#038048;stroke-width:1.0;"/><text fill="#000000" font-family="sans-serif" font-size="14" lengthAdjust="spacing" textLength="174" x="1824.5" y="179.3857">CancelarAgendamento()</text><ellipse cx="1815.5" cy="192.3359" fill="#84BE84" rx="3" ry="3" style="stroke:#038048;stroke-width:1.0;"/><text fill="#000000" font-family="sans-serif" font-size="14" lengthAdjust="spacing" textLength="151" x="1824.5" y="195.6826">ListarAgendaInteira()</text><ellipse cx="1815.5" cy="208.6328" fill="#84BE84" rx="3" ry="3" style="stroke:#038048;stroke-width:1.0;"/><text fill="#000000" font-family="sans-serif" font-size="14" lengthAdjust="spacing" textLength="151" x="1824.5" y="211.9795">ListarAgendaParcial()</text></g><!--class ui--><g id="elem_ui"><rect codeLine="78" fill="#F1F1F1" height="80.5938" id="ui" rx="2.5" ry="2.5" style="stroke:#181818;stroke-width:0.5;" width="325" x="1078.5" y="106"/><ellipse cx="1188.25" cy="122" fill="#ADD1B2" rx="11" ry="11" style="stroke:#181818;stroke-width:1.0;"/><path d="M1190.5938,117.6719 C1189.6563,117.2344 1189.0625,117.0938 1188.1875,117.0938 C1185.5625,117.0938 1183.5625,119.1719 1183.5625,121.8906 L1183.5625,123.0156 C1183.5625,125.5938 1185.6719,127.4844 1188.5625,127.4844 C1189.7813,127.4844 1190.9375,127.1875 1191.6875,126.6406 C1192.2656,126.2344 1192.5938,125.7813 1192.5938,125.3906 C1192.5938,124.9375 1192.2031,124.5469 1191.7344,124.5469 C1191.5156,124.5469 1191.3125,124.625 1191.125,124.8125 C1190.6719,125.2969 1190.6719,125.2969 1190.4844,125.3906 C1190.0625,125.6563 1189.375,125.7813 1188.6094,125.7813 C1186.5625,125.7813 1185.2656,124.6875 1185.2656,122.9844 L1185.2656,121.8906 C1185.2656,120.1094 1186.5156,118.7969 1188.25,118.7969 C1188.8281,118.7969 1189.4375,118.9531 1189.9063,119.2031 C1190.3906,119.4844 1190.5625,119.7031 1190.6563,120.1094 C1190.7188,120.5156 1190.75,120.6406 1190.8906,120.7656 C1191.0313,120.9063 1191.2656,121.0156 1191.4844,121.0156 C1191.75,121.0156 1192.0156,120.875 1192.1875,120.6563 C1192.2969,120.5 1192.3281,120.3125 1192.3281,119.8906 L1192.3281,118.4688 C1192.3281,118.0313 1192.3125,117.9063 1192.2188,117.75 C1192.0625,117.4844 1191.7813,117.3438 1191.4844,117.3438 C1191.1875,117.3438 1190.9844,117.4375 1190.7656,117.75 L1190.5938,117.6719 Z " fill="#000000"/><text fill="#000000" font-family="sans-serif" font-size="14" lengthAdjust="spacing" textLength="97" x="1208.75" y="126.8467">UserInterface</text><line style="stroke:#181818;stroke-width:0.5;" x1="1079.5" x2="1402.5" y1="138" y2="138"/><text fill="#000000" font-family="sans-serif" font-size="14" lengthAdjust="spacing" textLength="313" x="1084.5" y="154.9951">Interage com o usuário por meio do console</text><line style="stroke:#181818;stroke-width:0.5;" x1="1079.5" x2="1402.5" y1="162.2969" y2="162.2969"/><ellipse cx="1089.5" cy="175.9453" fill="#84BE84" rx="3" ry="3" style="stroke:#038048;stroke-width:1.0;"/><text fill="#000000" font-family="sans-serif" font-size="14" lengthAdjust="spacing" textLength="47" x="1098.5" y="179.292">Start()</text></g><!--class icd--><g id="elem_icd"><rect codeLine="86" fill="#F1F1F1" height="48" id="icd" rx="2.5" ry="2.5" style="stroke:#181818;stroke-width:0.5;" width="146" x="611" y="312"/><ellipse cx="626" cy="328" fill="#B4A7E5" rx="11" ry="11" style="stroke:#181818;stroke-width:1.0;"/><path d="M626.9531,324.7813 L628.6719,324.7813 C629.0625,324.7813 629.25,324.75 629.375,324.6719 C629.6406,324.5156 629.7813,324.2344 629.7813,323.9375 C629.7813,323.6719 629.6719,323.4063 629.4375,323.2344 C629.2656,323.125 629.125,323.0938 628.6719,323.0938 L623.5313,323.0938 C623.0938,323.0938 622.9688,323.1094 622.8125,323.2031 C622.5625,323.3594 622.4063,323.6563 622.4063,323.9375 C622.4063,324.2188 622.5469,324.4688 622.7656,324.6406 C622.9219,324.75 623.1094,324.7813 623.5313,324.7813 L625.25,324.7813 L625.25,331.2969 L623.5313,331.2969 C623.0938,331.2969 622.9688,331.3125 622.8125,331.4219 C622.5625,331.5781 622.4063,331.8594 622.4063,332.1563 C622.4063,332.4063 622.5469,332.6719 622.7656,332.8281 C622.9219,332.9531 623.125,333 623.5313,333 L628.6719,333 C629.4219,333 629.7813,332.7188 629.7813,332.1563 C629.7813,331.875 629.6719,331.625 629.4375,331.4531 C629.2656,331.3281 629.125,331.2969 628.6719,331.2969 L626.9531,331.2969 L626.9531,324.7813 Z " fill="#000000"/><text fill="#000000" font-family="sans-serif" font-size="14" font-style="italic" lengthAdjust="spacing" textLength="114" x="640" y="332.8467">IConsultorioDao</text><line style="stroke:#181818;stroke-width:0.5;" x1="612" x2="756" y1="344" y2="344"/><line style="stroke:#181818;stroke-width:0.5;" x1="612" x2="756" y1="352" y2="352"/></g><!--class ipd--><g id="elem_ipd"><rect codeLine="88" fill="#F1F1F1" height="210.9688" id="ipd" rx="2.5" ry="2.5" style="stroke:#181818;stroke-width:0.5;" width="382" x="516" y="41"/><ellipse cx="655.75" cy="57" fill="#B4A7E5" rx="11" ry="11" style="stroke:#181818;stroke-width:1.0;"/><path d="M656.7031,53.7813 L658.4219,53.7813 C658.8125,53.7813 659,53.75 659.125,53.6719 C659.3906,53.5156 659.5313,53.2344 659.5313,52.9375 C659.5313,52.6719 659.4219,52.4063 659.1875,52.2344 C659.0156,52.125 658.875,52.0938 658.4219,52.0938 L653.2813,52.0938 C652.8438,52.0938 652.7188,52.1094 652.5625,52.2031 C652.3125,52.3594 652.1563,52.6563 652.1563,52.9375 C652.1563,53.2188 652.2969,53.4688 652.5156,53.6406 C652.6719,53.75 652.8594,53.7813 653.2813,53.7813 L655,53.7813 L655,60.2969 L653.2813,60.2969 C652.8438,60.2969 652.7188,60.3125 652.5625,60.4219 C652.3125,60.5781 652.1563,60.8594 652.1563,61.1563 C652.1563,61.4063 652.2969,61.6719 652.5156,61.8281 C652.6719,61.9531 652.875,62 653.2813,62 L658.4219,62 C659.1719,62 659.5313,61.7188 659.5313,61.1563 C659.5313,60.875 659.4219,60.625 659.1875,60.4531 C659.0156,60.3281 658.875,60.2969 658.4219,60.2969 L656.7031,60.2969 L656.7031,53.7813 Z " fill="#000000"/><text fill="#000000" font-family="sans-serif" font-size="14" font-style="italic" lengthAdjust="spacing" textLength="94" x="676.25" y="61.8467">IPacienteDao</text><line style="stroke:#181818;stroke-width:0.5;" x1="517" x2="897" y1="73" y2="73"/><text fill="#000000" font-family="sans-serif" font-size="14" lengthAdjust="spacing" textLength="370" x="522" y="89.9951">Métodos Públicos para a manipulação dos Pacientes</text><line style="stroke:#181818;stroke-width:0.5;" x1="517" x2="897" y1="97.2969" y2="97.2969"/><ellipse cx="527" cy="110.9453" fill="#84BE84" rx="3" ry="3" style="stroke:#038048;stroke-width:1.0;"/><text fill="#000000" font-family="sans-serif" font-size="14" lengthAdjust="spacing" textLength="205" x="536" y="114.292">AddPaciente(Paciente): bool</text><text fill="#000000" font-family="sans-serif" font-size="14" lengthAdjust="spacing" textLength="4" x="536" y="130.5889"> </text><ellipse cx="527" cy="143.5391" fill="#84BE84" rx="3" ry="3" style="stroke:#038048;stroke-width:1.0;"/><text fill="#000000" font-family="sans-serif" font-size="14" lengthAdjust="spacing" textLength="226" x="536" y="146.8857">DeletePaciente(Paciente): bool</text><text fill="#000000" font-family="sans-serif" font-size="14" lengthAdjust="spacing" textLength="4" x="536" y="163.1826"> </text><ellipse cx="527" cy="176.1328" fill="#84BE84" rx="3" ry="3" style="stroke:#038048;stroke-width:1.0;"/><text fill="#000000" font-family="sans-serif" font-size="14" lengthAdjust="spacing" textLength="309" x="536" y="179.4795">GetAllPacientes(): IEnumerable&lt;Paciente&gt;</text><text fill="#000000" font-family="sans-serif" font-size="14" lengthAdjust="spacing" textLength="4" x="536" y="195.7764"> </text><ellipse cx="527" cy="208.7266" fill="#84BE84" rx="3" ry="3" style="stroke:#038048;stroke-width:1.0;"/><text fill="#000000" font-family="sans-serif" font-size="14" lengthAdjust="spacing" textLength="158" x="536" y="212.0732">CpfExists(ulong): bool</text><text fill="#000000" font-family="sans-serif" font-size="14" lengthAdjust="spacing" textLength="4" x="536" y="228.3701"> </text><ellipse cx="527" cy="241.3203" fill="#84BE84" rx="3" ry="3" style="stroke:#038048;stroke-width:1.0;"/><text fill="#000000" font-family="sans-serif" font-size="14" lengthAdjust="spacing" textLength="255" x="536" y="244.667">GetPacienteByCpf(ulong): Paciente</text></g><!--class iad--><g id="elem_iad"><rect codeLine="102" fill="#F1F1F1" height="210.9688" id="iad" rx="2.5" ry="2.5" style="stroke:#181818;stroke-width:0.5;" width="421" x="59.5" y="41"/><ellipse cx="198.75" cy="57" fill="#B4A7E5" rx="11" ry="11" style="stroke:#181818;stroke-width:1.0;"/><path d="M199.7031,53.7813 L201.4219,53.7813 C201.8125,53.7813 202,53.75 202.125,53.6719 C202.3906,53.5156 202.5313,53.2344 202.5313,52.9375 C202.5313,52.6719 202.4219,52.4063 202.1875,52.2344 C202.0156,52.125 201.875,52.0938 201.4219,52.0938 L196.2813,52.0938 C195.8438,52.0938 195.7188,52.1094 195.5625,52.2031 C195.3125,52.3594 195.1563,52.6563 195.1563,52.9375 C195.1563,53.2188 195.2969,53.4688 195.5156,53.6406 C195.6719,53.75 195.8594,53.7813 196.2813,53.7813 L198,53.7813 L198,60.2969 L196.2813,60.2969 C195.8438,60.2969 195.7188,60.3125 195.5625,60.4219 C195.3125,60.5781 195.1563,60.8594 195.1563,61.1563 C195.1563,61.4063 195.2969,61.6719 195.5156,61.8281 C195.6719,61.9531 195.875,62 196.2813,62 L201.4219,62 C202.1719,62 202.5313,61.7188 202.5313,61.1563 C202.5313,60.875 202.4219,60.625 202.1875,60.4531 C202.0156,60.3281 201.875,60.2969 201.4219,60.2969 L199.7031,60.2969 L199.7031,53.7813 Z " fill="#000000"/><text fill="#000000" font-family="sans-serif" font-size="14" font-style="italic" lengthAdjust="spacing" textLength="134" x="219.25" y="61.8467">IAgendamentoDao</text><line style="stroke:#181818;stroke-width:0.5;" x1="60.5" x2="479.5" y1="73" y2="73"/><text fill="#000000" font-family="sans-serif" font-size="14" lengthAdjust="spacing" textLength="409" x="65.5" y="89.9951">Métodos Públicos para a manipulação dos Agendamentos</text><line style="stroke:#181818;stroke-width:0.5;" x1="60.5" x2="479.5" y1="97.2969" y2="97.2969"/><ellipse cx="70.5" cy="110.9453" fill="#84BE84" rx="3" ry="3" style="stroke:#038048;stroke-width:1.0;"/><text fill="#000000" font-family="sans-serif" font-size="14" lengthAdjust="spacing" textLength="283" x="79.5" y="114.292">AddAgendamento(Agendamento): bool</text><text fill="#000000" font-family="sans-serif" font-size="14" lengthAdjust="spacing" textLength="4" x="79.5" y="130.5889"> </text><ellipse cx="70.5" cy="143.5391" fill="#84BE84" rx="3" ry="3" style="stroke:#038048;stroke-width:1.0;"/><text fill="#000000" font-family="sans-serif" font-size="14" lengthAdjust="spacing" textLength="374" x="79.5" y="146.8857">DeleteAgendamento(ulong, DateTime, ushort): bool</text><text fill="#000000" font-family="sans-serif" font-size="14" lengthAdjust="spacing" textLength="4" x="79.5" y="163.1826"> </text><ellipse cx="70.5" cy="176.1328" fill="#84BE84" rx="3" ry="3" style="stroke:#038048;stroke-width:1.0;"/><text fill="#000000" font-family="sans-serif" font-size="14" lengthAdjust="spacing" textLength="387" x="79.5" y="179.4795">GetAllAgendamentos(): IEnumerable&lt;Agendamento&gt;</text><text fill="#000000" font-family="sans-serif" font-size="14" lengthAdjust="spacing" textLength="4" x="79.5" y="195.7764"> </text><ellipse cx="70.5" cy="208.7266" fill="#84BE84" rx="3" ry="3" style="stroke:#038048;stroke-width:1.0;"/><text fill="#000000" font-family="sans-serif" font-size="14" lengthAdjust="spacing" textLength="390" x="79.5" y="212.0732">DeleteAllAgendamentosFromPaciente(Paciente): bool</text><text fill="#000000" font-family="sans-serif" font-size="14" lengthAdjust="spacing" textLength="4" x="79.5" y="228.3701"> </text><ellipse cx="70.5" cy="241.3203" fill="#84BE84" rx="3" ry="3" style="stroke:#038048;stroke-width:1.0;"/><text fill="#000000" font-family="sans-serif" font-size="14" lengthAdjust="spacing" textLength="347" x="79.5" y="244.667">IsAgendamentoCadastrado(Agendamento): bool</text></g><!--class ce--><g id="elem_ce"><rect codeLine="119" fill="#F1F1F1" height="48" id="ce" rx="2.5" ry="2.5" style="stroke:#181818;stroke-width:0.5;" width="158" x="205" y="460.5"/><ellipse cx="220" cy="476.5" fill="#ADD1B2" rx="11" ry="11" style="stroke:#181818;stroke-width:1.0;"/><path d="M222.3438,472.1719 C221.4063,471.7344 220.8125,471.5938 219.9375,471.5938 C217.3125,471.5938 215.3125,473.6719 215.3125,476.3906 L215.3125,477.5156 C215.3125,480.0938 217.4219,481.9844 220.3125,481.9844 C221.5313,481.9844 222.6875,481.6875 223.4375,481.1406 C224.0156,480.7344 224.3438,480.2813 224.3438,479.8906 C224.3438,479.4375 223.9531,479.0469 223.4844,479.0469 C223.2656,479.0469 223.0625,479.125 222.875,479.3125 C222.4219,479.7969 222.4219,479.7969 222.2344,479.8906 C221.8125,480.1563 221.125,480.2813 220.3594,480.2813 C218.3125,480.2813 217.0156,479.1875 217.0156,477.4844 L217.0156,476.3906 C217.0156,474.6094 218.2656,473.2969 220,473.2969 C220.5781,473.2969 221.1875,473.4531 221.6563,473.7031 C222.1406,473.9844 222.3125,474.2031 222.4063,474.6094 C222.4688,475.0156 222.5,475.1406 222.6406,475.2656 C222.7813,475.4063 223.0156,475.5156 223.2344,475.5156 C223.5,475.5156 223.7656,475.375 223.9375,475.1563 C224.0469,475 224.0781,474.8125 224.0781,474.3906 L224.0781,472.9688 C224.0781,472.5313 224.0625,472.4063 223.9688,472.25 C223.8125,471.9844 223.5313,471.8438 223.2344,471.8438 C222.9375,471.8438 222.7344,471.9375 222.5156,472.25 L222.3438,472.1719 Z " fill="#000000"/><text fill="#000000" font-family="sans-serif" font-size="14" lengthAdjust="spacing" textLength="126" x="234" y="481.3467">EntityConsultorio</text><line style="stroke:#181818;stroke-width:0.5;" x1="206" x2="362" y1="492.5" y2="492.5"/><line style="stroke:#181818;stroke-width:0.5;" x1="206" x2="362" y1="500.5" y2="500.5"/></g><!--class cc--><g id="elem_cc"><rect codeLine="121" fill="#F1F1F1" height="64.2969" id="cc" rx="2.5" ry="2.5" style="stroke:#181818;stroke-width:0.5;" width="370" x="46" y="705.5"/><ellipse cx="175.25" cy="721.5" fill="#ADD1B2" rx="11" ry="11" style="stroke:#181818;stroke-width:1.0;"/><path d="M177.5938,717.1719 C176.6563,716.7344 176.0625,716.5938 175.1875,716.5938 C172.5625,716.5938 170.5625,718.6719 170.5625,721.3906 L170.5625,722.5156 C170.5625,725.0938 172.6719,726.9844 175.5625,726.9844 C176.7813,726.9844 177.9375,726.6875 178.6875,726.1406 C179.2656,725.7344 179.5938,725.2813 179.5938,724.8906 C179.5938,724.4375 179.2031,724.0469 178.7344,724.0469 C178.5156,724.0469 178.3125,724.125 178.125,724.3125 C177.6719,724.7969 177.6719,724.7969 177.4844,724.8906 C177.0625,725.1563 176.375,725.2813 175.6094,725.2813 C173.5625,725.2813 172.2656,724.1875 172.2656,722.4844 L172.2656,721.3906 C172.2656,719.6094 173.5156,718.2969 175.25,718.2969 C175.8281,718.2969 176.4375,718.4531 176.9063,718.7031 C177.3906,718.9844 177.5625,719.2031 177.6563,719.6094 C177.7188,720.0156 177.75,720.1406 177.8906,720.2656 C178.0313,720.4063 178.2656,720.5156 178.4844,720.5156 C178.75,720.5156 179.0156,720.375 179.1875,720.1563 C179.2969,720 179.3281,719.8125 179.3281,719.3906 L179.3281,717.9688 C179.3281,717.5313 179.3125,717.4063 179.2188,717.25 C179.0625,716.9844 178.7813,716.8438 178.4844,716.8438 C178.1875,716.8438 177.9844,716.9375 177.7656,717.25 L177.5938,717.1719 Z " fill="#000000"/><text fill="#000000" font-family="sans-serif" font-size="14" lengthAdjust="spacing" textLength="103" x="195.75" y="726.3467">EntityContext</text><line style="stroke:#181818;stroke-width:0.5;" x1="47" x2="415" y1="737.5" y2="737.5"/><text fill="#000000" font-family="sans-serif" font-size="14" lengthAdjust="spacing" textLength="358" x="52" y="754.4951">Implementa a persistência pelo framework Entity</text><line style="stroke:#181818;stroke-width:0.5;" x1="47" x2="415" y1="761.7969" y2="761.7969"/></g><!--class dc--><g id="elem_dc"><rect codeLine="128" fill="#F1F1F1" height="48" id="dc" rx="2.5" ry="2.5" style="stroke:#181818;stroke-width:0.5;" width="167" x="600.5" y="460.5"/><ellipse cx="615.5" cy="476.5" fill="#ADD1B2" rx="11" ry="11" style="stroke:#181818;stroke-width:1.0;"/><path d="M617.8438,472.1719 C616.9063,471.7344 616.3125,471.5938 615.4375,471.5938 C612.8125,471.5938 610.8125,473.6719 610.8125,476.3906 L610.8125,477.5156 C610.8125,480.0938 612.9219,481.9844 615.8125,481.9844 C617.0313,481.9844 618.1875,481.6875 618.9375,481.1406 C619.5156,480.7344 619.8438,480.2813 619.8438,479.8906 C619.8438,479.4375 619.4531,479.0469 618.9844,479.0469 C618.7656,479.0469 618.5625,479.125 618.375,479.3125 C617.9219,479.7969 617.9219,479.7969 617.7344,479.8906 C617.3125,480.1563 616.625,480.2813 615.8594,480.2813 C613.8125,480.2813 612.5156,479.1875 612.5156,477.4844 L612.5156,476.3906 C612.5156,474.6094 613.7656,473.2969 615.5,473.2969 C616.0781,473.2969 616.6875,473.4531 617.1563,473.7031 C617.6406,473.9844 617.8125,474.2031 617.9063,474.6094 C617.9688,475.0156 618,475.1406 618.1406,475.2656 C618.2813,475.4063 618.5156,475.5156 618.7344,475.5156 C619,475.5156 619.2656,475.375 619.4375,475.1563 C619.5469,475 619.5781,474.8125 619.5781,474.3906 L619.5781,472.9688 C619.5781,472.5313 619.5625,472.4063 619.4688,472.25 C619.3125,471.9844 619.0313,471.8438 618.7344,471.8438 C618.4375,471.8438 618.2344,471.9375 618.0156,472.25 L617.8438,472.1719 Z " fill="#000000"/><text fill="#000000" font-family="sans-serif" font-size="14" lengthAdjust="spacing" textLength="135" x="629.5" y="481.3467">DefaultConsultorio</text><line style="stroke:#181818;stroke-width:0.5;" x1="601.5" x2="766.5" y1="492.5" y2="492.5"/><line style="stroke:#181818;stroke-width:0.5;" x1="601.5" x2="766.5" y1="500.5" y2="500.5"/></g><!--class dcc--><g id="elem_dcc"><rect codeLine="131" fill="#F1F1F1" height="96.8906" id="dcc" rx="2.5" ry="2.5" style="stroke:#181818;stroke-width:0.5;" width="423" x="472.5" y="689"/><ellipse cx="623.75" cy="705" fill="#ADD1B2" rx="11" ry="11" style="stroke:#181818;stroke-width:1.0;"/><path d="M626.0938,700.6719 C625.1563,700.2344 624.5625,700.0938 623.6875,700.0938 C621.0625,700.0938 619.0625,702.1719 619.0625,704.8906 L619.0625,706.0156 C619.0625,708.5938 621.1719,710.4844 624.0625,710.4844 C625.2813,710.4844 626.4375,710.1875 627.1875,709.6406 C627.7656,709.2344 628.0938,708.7813 628.0938,708.3906 C628.0938,707.9375 627.7031,707.5469 627.2344,707.5469 C627.0156,707.5469 626.8125,707.625 626.625,707.8125 C626.1719,708.2969 626.1719,708.2969 625.9844,708.3906 C625.5625,708.6563 624.875,708.7813 624.1094,708.7813 C622.0625,708.7813 620.7656,707.6875 620.7656,705.9844 L620.7656,704.8906 C620.7656,703.1094 622.0156,701.7969 623.75,701.7969 C624.3281,701.7969 624.9375,701.9531 625.4063,702.2031 C625.8906,702.4844 626.0625,702.7031 626.1563,703.1094 C626.2188,703.5156 626.25,703.6406 626.3906,703.7656 C626.5313,703.9063 626.7656,704.0156 626.9844,704.0156 C627.25,704.0156 627.5156,703.875 627.6875,703.6563 C627.7969,703.5 627.8281,703.3125 627.8281,702.8906 L627.8281,701.4688 C627.8281,701.0313 627.8125,700.9063 627.7188,700.75 C627.5625,700.4844 627.2813,700.3438 626.9844,700.3438 C626.6875,700.3438 626.4844,700.4375 626.2656,700.75 L626.0938,700.6719 Z " fill="#000000"/><text fill="#000000" font-family="sans-serif" font-size="14" lengthAdjust="spacing" textLength="112" x="644.25" y="709.8467">DefaultContext</text><line style="stroke:#181818;stroke-width:0.5;" x1="473.5" x2="894.5" y1="721" y2="721"/><text fill="#000000" font-family="sans-serif" font-size="14" lengthAdjust="spacing" textLength="379" x="478.5" y="737.9951">objeto Singleton que mantém o contexto dos dados.</text><text fill="#000000" font-family="sans-serif" font-size="14" lengthAdjust="spacing" textLength="411" x="478.5" y="754.292">**É necessário para que PacienteDao e AgendamentoDao</text><text fill="#000000" font-family="sans-serif" font-size="14" lengthAdjust="spacing" textLength="260" x="478.5" y="770.5889">tenham acesso aos mesmos dados**</text><line style="stroke:#181818;stroke-width:0.5;" x1="473.5" x2="894.5" y1="777.8906" y2="777.8906"/></g><!--reverse link pcb to pc--><g id="link_pcb_pc"><path codeLine="139" d="M1488.44,779.724 C1467.8,803.939 1438.81,833.195 1407,851 C1308.04,906.388 1264.64,869.778 1159,911 C1152.9,913.382 1146.7,916.072 1140.55,918.951 " fill="none" id="pcb-backto-pc" style="stroke:#181818;stroke-width:1.0;"/><polygon fill="none" points="1496.77,769.703,1489.8594,771.7629,1489.1028,778.9342,1496.0135,776.8743,1496.77,769.703" style="stroke:#181818;stroke-width:1.0;"/></g><!--reverse link agb to ag--><g id="link_agb_ag"><path codeLine="140" d="M1726.31,778.733 C1701.35,802.667 1667.09,831.977 1632,851 C1529.86,906.375 1397.72,938.576 1317.81,954.324 " fill="none" id="agb-backto-ag" style="stroke:#181818;stroke-width:1.0;"/><polygon fill="none" points="1735.73,769.523,1728.643,770.8553,1727.147,777.9095,1734.234,776.5772,1735.73,769.523" style="stroke:#181818;stroke-width:1.0;"/></g><!--reverse link dcc to pc--><g id="link_dcc_pc"><path codeLine="143" d="M773.286,792.786 C836.37,831.141 920.122,882.062 980.623,918.847 " fill="none" id="dcc-backto-pc" style="stroke:#181818;stroke-width:1.0;"/><polygon fill="#181818" points="762.156,786.019,765.2042,792.5542,772.4091,792.2539,769.3608,785.7188,762.156,786.019" style="stroke:#181818;stroke-width:1.0;"/><text fill="#000000" font-family="sans-serif" font-size="13" lengthAdjust="spacing" textLength="8" x="764.5842" y="805.9806">1</text><text fill="#000000" font-family="sans-serif" font-size="13" lengthAdjust="spacing" textLength="8" x="961.0387" y="908.0344">n</text></g><!--reverse link dcc to ag--><g id="link_dcc_ag"><path codeLine="144" d="M806.137,791.174 C853.767,810.952 909.065,832.986 960,851 C1047.09,881.802 1074.95,872.679 1159,911 C1164.75,913.623 1170.58,916.565 1176.35,919.692 " fill="none" id="dcc-backto-ag" style="stroke:#181818;stroke-width:1.0;"/><polygon fill="#181818" points="793.881,786.064,797.8795,792.065,804.9568,790.6821,800.9583,784.6811,793.881,786.064" style="stroke:#181818;stroke-width:1.0;"/><text fill="#000000" font-family="sans-serif" font-size="13" lengthAdjust="spacing" textLength="8" x="800.7705" y="806.0319">1</text><text fill="#000000" font-family="sans-serif" font-size="13" lengthAdjust="spacing" textLength="8" x="1160.6517" y="927.5993">n</text></g><!--reverse link cc to pc--><g id="link_cc_pc"><path codeLine="145" d="M294.249,776.016 C338.26,800.629 399.04,831.716 456,851 C636.216,912.014 858.281,944.096 976.218,957.9285 " fill="none" id="cc-backto-pc" style="stroke:#181818;stroke-width:1.0;"/><polygon fill="#181818" points="282.867,769.586,286.1239,776.0197,293.3153,775.4879,290.0585,769.0542,282.867,769.586" style="stroke:#181818;stroke-width:1.0;"/><text fill="#000000" font-family="sans-serif" font-size="13" lengthAdjust="spacing" textLength="8" x="294.3896" y="789.8006">1</text><text fill="#000000" font-family="sans-serif" font-size="13" lengthAdjust="spacing" textLength="8" x="960.489" y="953.4863">n</text></g><!--reverse link cc to ag--><g id="link_cc_ag"><path codeLine="146" d="M291.051,776.411 C334.975,802.134 396.956,834.379 456,851 C757.849,935.969 861.726,811.195 1159,911 C1164.82,912.955 1170.65,915.369 1176.38,918.087 " fill="none" id="cc-backto-ag" style="stroke:#181818;stroke-width:1.0;"/><polygon fill="#181818" points="279.724,769.687,282.8416,776.1893,290.0429,775.8124,286.9252,769.3101,279.724,769.687" style="stroke:#181818;stroke-width:1.0;"/><text fill="#000000" font-family="sans-serif" font-size="13" lengthAdjust="spacing" textLength="8" x="280.9483" y="789.9224">1</text><text fill="#000000" font-family="sans-serif" font-size="13" lengthAdjust="spacing" textLength="8" x="1160.6848" y="909.2819">n</text></g><!--reverse link pv to pcb--><g id="link_pv_pcb"><path codeLine="149" d="M1738.5,226.08 C1754.72,235.033 1771.16,243.858 1787,252 C1803.1,260.273 1814.23,253.765 1824,269 C1896.92,382.746 1917.52,475.483 1824,573 C1809.3,588.331 1651.72,570.964 1633,581 C1582.71,607.963 1549.18,668.287 1532.47,705.373 " fill="none" id="pv-backto-pcb" style="stroke:#181818;stroke-width:1.0;"/><polygon fill="#181818" points="1726.73,219.546,1730.0324,225.9565,1737.2199,225.3737,1733.9175,218.9632,1726.73,219.546" style="stroke:#181818;stroke-width:1.0;"/></g><!--reverse link av to agb--><g id="link_av_agb"><path codeLine="150" d="M1977.26,232.406 C1962.88,320.613 1933.82,461.122 1882,573 C1858.75,623.201 1819.44,673.914 1792.87,705.262 " fill="none" id="av-backto-agb" style="stroke:#181818;stroke-width:1.0;"/><polygon fill="#181818" points="1979.31,219.514,1974.4154,224.8095,1977.4211,231.3644,1982.3157,226.0688,1979.31,219.514" style="stroke:#181818;stroke-width:1.0;"/></g><!--reverse link c to icd--><g id="link_c_icd"><path codeLine="152" d="M1020.14,614.682 C1006.76,601.394 994.13,587.428 983,573 C936.605,512.837 968.056,468.781 912,417.5 C869.18,378.328 806.115,357.987 757.158,347.563 " fill="none" id="c-backto-icd" style="stroke:#181818;stroke-width:1.0;"/><polygon fill="#181818" points="1029.51,623.77,1027.9844,616.7221,1020.8919,615.4197,1022.4175,622.4675,1029.51,623.77" style="stroke:#181818;stroke-width:1.0;"/></g><!--reverse link icd to dc--><g id="link_icd_dc"><path codeLine="154" d="M684,365.558 C684,393.246 684,434.722 684,460.395 " fill="none" id="icd-backto-dc" style="stroke:#181818;stroke-width:1.0;"/><polygon fill="#181818" points="684,360.213,680,369.213,684,365.213,688,369.213,684,360.213" style="stroke:#181818;stroke-width:1.0;"/></g><!--reverse link icd to ce--><g id="link_icd_ce"><path codeLine="155" d="M612.127,361.819 C567.154,377.487 508.069,398.322 456,417.5 C418.334,431.373 376.261,447.506 343.155,460.349 " fill="none" id="icd-backto-ce" style="stroke:#181818;stroke-width:1.0;"/><polygon fill="#181818" points="616.986,360.127,607.1711,359.3095,612.2642,361.7714,609.8022,366.8645,616.986,360.127" style="stroke:#181818;stroke-width:1.0;"/></g><!--reverse link dc to dcc--><g id="link_dc_dcc"><path codeLine="157" d="M684,521.815 C684,565.816 684,640.081 684,688.698 " fill="none" id="dc-backto-dcc" style="stroke:#181818;stroke-width:1.0;"/><polygon fill="#181818" points="684,508.664,680,514.664,684,520.664,688,514.664,684,508.664" style="stroke:#181818;stroke-width:1.0;"/></g><!--reverse link ce to cc--><g id="link_ce_cc"><path codeLine="158" d="M276.401,521.486 C265.989,570.796 247.459,658.554 237.599,705.25 " fill="none" id="ce-backto-cc" style="stroke:#181818;stroke-width:1.0;"/><polygon fill="#181818" points="279.109,508.664,273.9558,513.7082,276.63,520.4051,281.7832,515.3609,279.109,508.664" style="stroke:#181818;stroke-width:1.0;"/></g><!--reverse link pcc to c--><g id="link_pcc_c"><path codeLine="160" d="M1462.05,554.423 C1438.8,564.897 1418.79,574.395 1407,581 C1383.77,594.016 1359.93,608.82 1336.88,623.997 " fill="none" id="pcc-backto-c" style="stroke:#181818;stroke-width:1.0;"/><polygon fill="none" points="1474.09,549.04,1466.9792,547.8416,1463.138,553.9445,1470.2488,555.1429,1474.09,549.04" style="stroke:#181818;stroke-width:1.0;"/></g><!--reverse link agc to c--><g id="link_agc_c"><path codeLine="161" d="M1196.19,562.257 C1194.72,581.635 1193.12,602.85 1191.55,623.6 " fill="none" id="agc-backto-c" style="stroke:#181818;stroke-width:1.0;"/><polygon fill="none" points="1197.18,549.162,1192.7387,554.8431,1196.2747,561.1278,1200.7159,555.4467,1197.18,549.162" style="stroke:#181818;stroke-width:1.0;"/></g><!--link ui to mc--><g id="link_ui_mc"><path codeLine="163" d="M1305.53,187.07 C1339.45,207.326 1381.98,231.886 1421,252 C1458.86,271.515 1502.24,291.297 1537.26,306.65 " fill="none" id="ui-to-mc" style="stroke:#181818;stroke-width:1.0;"/><polygon fill="#181818" points="1549.27,311.889,1545.3643,305.8272,1538.2666,307.1009,1542.1723,313.1627,1549.27,311.889" style="stroke:#181818;stroke-width:1.0;"/></g><!--reverse link mc to pcc--><g id="link_mc_pcc"><path codeLine="164" d="M1608.96,373.365 C1610.89,387.452 1613.15,404.001 1615.32,419.929 " fill="none" id="mc-backto-pcc" style="stroke:#181818;stroke-width:1.0;"/><polygon fill="#181818" points="1607.17,360.213,1604.0181,366.6988,1608.7927,372.1028,1611.9446,365.617,1607.17,360.213" style="stroke:#181818;stroke-width:1.0;"/></g><!--reverse link mc to agc--><g id="link_mc_agc"><path codeLine="165" d="M1528.39,364.553 C1485.38,380.23 1429.6,400.557 1376.36,419.958 " fill="none" id="mc-backto-agc" style="stroke:#181818;stroke-width:1.0;"/><polygon fill="#181818" points="1540.75,360.052,1533.7423,358.3512,1529.4771,364.1656,1536.4848,365.8664,1540.75,360.052" style="stroke:#181818;stroke-width:1.0;"/></g><!--link av to mc--><g id="link_av_mc"><path codeLine="166" d="M1851.03,219.634 C1829.35,230.647 1807.13,241.75 1786,252 C1747.29,270.778 1703.42,290.82 1668.45,306.505 " fill="none" id="av-to-mc" style="stroke:#181818;stroke-width:1.0;"/><polygon fill="#181818" points="1656.48,311.862,1663.5897,313.0672,1667.4367,306.968,1660.327,305.7628,1656.48,311.862" style="stroke:#181818;stroke-width:1.0;"/></g><!--link pv to mc--><g id="link_pv_mc"><path codeLine="167" d="M1604,219.724 C1604,246.593 1604,275.956 1604,298.323 " fill="none" id="pv-to-mc" style="stroke:#181818;stroke-width:1.0;"/><polygon fill="#181818" points="1604,311.586,1608,305.586,1604,299.586,1600,305.586,1604,311.586" style="stroke:#181818;stroke-width:1.0;"/></g><!--reverse link ipd to icd--><g id="link_ipd_icd"><path codeLine="169" d="M693.543,257.203 C691.008,277.872 688.603,297.475 686.842,311.833 " fill="none" id="ipd-backto-icd" style="stroke:#181818;stroke-width:1.0;"/><polygon fill="#181818" points="694.155,252.214,689.0893,260.6602,693.5464,257.1768,697.0298,261.6339,694.155,252.214" style="stroke:#181818;stroke-width:1.0;"/></g><!--reverse link iad to icd--><g id="link_iad_icd"><path codeLine="170" d="M485.208,246.207 C489.508,248.157 493.775,250.089 498,252 C543.106,272.4 594.505,295.311 631.824,311.885 " fill="none" id="iad-backto-icd" style="stroke:#181818;stroke-width:1.0;"/><polygon fill="#181818" points="480.53,244.086,487.0759,251.4447,485.084,246.1502,490.3786,244.1583,480.53,244.086" style="stroke:#181818;stroke-width:1.0;"/></g><!--SRC=[pLRDRXit4BxlKmpaYoD5XOiQI5C41HnBQWNKXj2akO-u8uKDbzoIkx8Jmm_GnoXo2997o5KlrfbTSKNz94s172BeC2JdvvjlXiCjKRt29S6Loyd0oOBcvsSBkCkKmH2WTx4acsD1jd8zm02uvBF1PRaOkHagpVkK3KPOuGWldGsrgJ0R_EeyJgrM6asxc6ZBult6AIxduYhr_RJM9YVVkyjUeD4vGewv2v0J94gTWr8rzX50RmCf6rox8iAXQmnAxzkrWG6YwIOkWFZO3zqbU9z5EZOvEgzREXIRPR3v3IxoFDgSHk71Jp1tpYHQ8p9KqHSe_aBLXJ7nF9oondHiwu8ypWqzYGS_mow4XB7JHFuKa5IzDiuk7m8JIC-PkuTGXvVELv-2bfWUe4lE620poFzoqslCOkMTCKpyoQF9P79s9ZHkABv2RRSA3Sk5qBmjGk9wJn6NelaxAPeJI16FTD4BJJVGd99TQOGIFKAsgEtwtVgj0-Myfr0wcmktO14K5YXjGSoBkCi6hJSV6_xq0RSVMaLcTqz8sc4eQSJT3axJE8e_Adu5y5EhJArzrtyCT7nxiCNOayPZu4dv6X0den_Fptzub1GknTXKerpnwPHtl5WfLu3ZXghN__3jQP5xuYlt1hreInPAEzjSmfm27ox8Dm20yv0OoPLamdCCbSV_IkGt7QgjKfWvpvFY-85CZoRN8utM9OLVFwbqn7skjzARsYNGRWeWxN5_UuPUXl1EKdy4yWt-1IfgKghrvr9o7WfY8PVsii4P9lyPHwZssqB6BfnC7e_FdrvAM-WO17hJP6wEi1sTMkLmTx-h5glHwPIiarsjtrTEcdUs_ZWtMh7K48rGeDLbRR3j_aObrlFR6ilSS-DRBaneH-nHfzsRz5ewDEh5tMQ6fbmbtT3HXV-NhdG-VVklo47GNUE9TyKNr6yQqWTaCqRoeraovLrxpyW7hY0V9pDlR2jTlJxuAg3clThNgUYsQi_bbPeMfI699fKfM-Vh3pmjP6KSB3nZkN7-5RGEidj8RzkriqSHZMY1Z6KVKhxxX6wrEb1vWyhD_wJAmJDjbyomi_1NJT8trVgzZ0NL6hJDqxnEtsNz_lfliFncXP1CGR5BhZFiZ3dUo1ZtIom0nSu1ih-2GX7Tzllncu6_sTmmTpTsoCzc9j-ESObBBe_0xdtVW_vm23tR4vtzBTOxL3hKuLYhPYtVYHcsCiTZqbXiG_BGubl8a-i9d-Mg4nK9aiQ2esVS02AobCbJ7m4B_7IL5M9IbqCUmQqSyrJfaesschZQokMAmPI2O8jEPa2o_XS0]--></g></svg>