<?xml version="1.0" encoding="UTF-8" standalone="no"?><svg xmlns="http://www.w3.org/2000/svg" xmlns:xlink="http://www.w3.org/1999/xlink" contentStyleType="text/css" height="1631px" preserveAspectRatio="none" style="width:1454px;height:1631px;background:#FFFFFF;" version="1.1" viewBox="0 0 1454 1631" width="1454px" zoomAndPan="magnify"><defs/><g><!--cluster Model--><g id="cluster_Model"><path d="M962.5,1319.5 L1011.5,1319.5 A3.75,3.75 0 0 1 1014,1322 L1021,1341.7969 L1444.5,1341.7969 A2.5,2.5 0 0 1 1447,1344.2969 L1447,1621.5 A2.5,2.5 0 0 1 1444.5,1624 L962.5,1624 A2.5,2.5 0 0 1 960,1621.5 L960,1322 A2.5,2.5 0 0 1 962.5,1319.5 " fill="#FEB40F" style="stroke:#000000;stroke-width:1.5;"/><line style="stroke:#000000;stroke-width:1.5;" x1="960" x2="1021" y1="1341.7969" y2="1341.7969"/><text fill="#000000" font-family="sans-serif" font-size="14" font-weight="bold" lengthAdjust="spacing" textLength="48" x="964" y="1334.4951">Model</text></g><!--cluster Controller--><g id="cluster_Controller"><path d="M146.5,368 L228.5,368 A3.75,3.75 0 0 1 231,370.5 L238,390.2969 L982.5,390.2969 A2.5,2.5 0 0 1 985,392.7969 L985,545.5 A2.5,2.5 0 0 1 982.5,548 L146.5,548 A2.5,2.5 0 0 1 144,545.5 L144,370.5 A2.5,2.5 0 0 1 146.5,368 " fill="#7FFF00" style="stroke:#000000;stroke-width:1.5;"/><line style="stroke:#000000;stroke-width:1.5;" x1="144" x2="238" y1="390.2969" y2="390.2969"/><text fill="#000000" font-family="sans-serif" font-size="14" font-weight="bold" lengthAdjust="spacing" textLength="81" x="148" y="382.9951">Controller</text></g><!--cluster View--><g id="cluster_View"><path d="M442.5,6 L481.5,6 A3.75,3.75 0 0 1 484,8.5 L491,28.2969 L1204.5,28.2969 A2.5,2.5 0 0 1 1207,30.7969 L1207,341.5 A2.5,2.5 0 0 1 1204.5,344 L442.5,344 A2.5,2.5 0 0 1 440,341.5 L440,8.5 A2.5,2.5 0 0 1 442.5,6 " fill="#D84437" style="stroke:#000000;stroke-width:1.5;"/><line style="stroke:#000000;stroke-width:1.5;" x1="440" x2="491" y1="28.2969" y2="28.2969"/><text fill="#000000" font-family="sans-serif" font-size="14" font-weight="bold" lengthAdjust="spacing" textLength="38" x="444" y="20.9951">View</text></g><!--cluster Data--><g id="cluster_Data"><path d="M8.5,572 L48.5,572 A3.75,3.75 0 0 1 51,574.5 L58,594.2969 L933.5,594.2969 A2.5,2.5 0 0 1 936,596.7969 L936,1472.5 A2.5,2.5 0 0 1 933.5,1475 L8.5,1475 A2.5,2.5 0 0 1 6,1472.5 L6,574.5 A2.5,2.5 0 0 1 8.5,572 " fill="#F9E4BC" style="stroke:#000000;stroke-width:1.5;"/><line style="stroke:#000000;stroke-width:1.5;" x1="6" x2="58" y1="594.2969" y2="594.2969"/><text fill="#000000" font-family="sans-serif" font-size="14" font-weight="bold" lengthAdjust="spacing" textLength="39" x="10" y="586.9951">Data</text></g><!--cluster Entity--><g id="cluster_Entity"><path d="M32.5,1195 L82.5,1195 A3.75,3.75 0 0 1 85,1197.5 L92,1217.2969 L429.5,1217.2969 A2.5,2.5 0 0 1 432,1219.7969 L432,1432 A2.5,2.5 0 0 1 429.5,1434.5 L32.5,1434.5 A2.5,2.5 0 0 1 30,1432 L30,1197.5 A2.5,2.5 0 0 1 32.5,1195 " fill="none" style="stroke:#000000;stroke-width:1.5;"/><line style="stroke:#000000;stroke-width:1.5;" x1="30" x2="92" y1="1217.2969" y2="1217.2969"/><text fill="#000000" font-family="sans-serif" font-size="14" font-weight="bold" lengthAdjust="spacing" textLength="49" x="34" y="1209.9951">Entity</text></g><!--cluster NonPersistent--><g id="cluster_NonPersistent"><path d="M458.5,1195 L574.5,1195 A3.75,3.75 0 0 1 577,1197.5 L584,1217.2969 L909.5,1217.2969 A2.5,2.5 0 0 1 912,1219.7969 L912,1448.5 A2.5,2.5 0 0 1 909.5,1451 L458.5,1451 A2.5,2.5 0 0 1 456,1448.5 L456,1197.5 A2.5,2.5 0 0 1 458.5,1195 " fill="none" style="stroke:#000000;stroke-width:1.5;"/><line style="stroke:#000000;stroke-width:1.5;" x1="456" x2="584" y1="1217.2969" y2="1217.2969"/><text fill="#000000" font-family="sans-serif" font-size="14" font-weight="bold" lengthAdjust="spacing" textLength="115" x="460" y="1209.9951">NonPersistent</text></g><!--class ag--><g id="elem_ag"><rect codeLine="2" fill="#F1F1F1" height="113.1875" id="ag" rx="2.5" ry="2.5" style="stroke:#181818;stroke-width:0.5;" width="141" x="1176.5" y="1495"/><ellipse cx="1194.65" cy="1511" fill="#ADD1B2" rx="11" ry="11" style="stroke:#181818;stroke-width:1.0;"/><path d="M1196.9938,1506.6719 C1196.0563,1506.2344 1195.4625,1506.0938 1194.5875,1506.0938 C1191.9625,1506.0938 1189.9625,1508.1719 1189.9625,1510.8906 L1189.9625,1512.0156 C1189.9625,1514.5938 1192.0719,1516.4844 1194.9625,1516.4844 C1196.1813,1516.4844 1197.3375,1516.1875 1198.0875,1515.6406 C1198.6656,1515.2344 1198.9938,1514.7813 1198.9938,1514.3906 C1198.9938,1513.9375 1198.6031,1513.5469 1198.1344,1513.5469 C1197.9156,1513.5469 1197.7125,1513.625 1197.525,1513.8125 C1197.0719,1514.2969 1197.0719,1514.2969 1196.8844,1514.3906 C1196.4625,1514.6563 1195.775,1514.7813 1195.0094,1514.7813 C1192.9625,1514.7813 1191.6656,1513.6875 1191.6656,1511.9844 L1191.6656,1510.8906 C1191.6656,1509.1094 1192.9156,1507.7969 1194.65,1507.7969 C1195.2281,1507.7969 1195.8375,1507.9531 1196.3063,1508.2031 C1196.7906,1508.4844 1196.9625,1508.7031 1197.0563,1509.1094 C1197.1188,1509.5156 1197.15,1509.6406 1197.2906,1509.7656 C1197.4313,1509.9063 1197.6656,1510.0156 1197.8844,1510.0156 C1198.15,1510.0156 1198.4156,1509.875 1198.5875,1509.6563 C1198.6969,1509.5 1198.7281,1509.3125 1198.7281,1508.8906 L1198.7281,1507.4688 C1198.7281,1507.0313 1198.7125,1506.9063 1198.6188,1506.75 C1198.4625,1506.4844 1198.1813,1506.3438 1197.8844,1506.3438 C1197.5875,1506.3438 1197.3844,1506.4375 1197.1656,1506.75 L1196.9938,1506.6719 Z " fill="#000000"/><text fill="#000000" font-family="sans-serif" font-size="14" lengthAdjust="spacing" textLength="102" x="1209.35" y="1515.8467">Agendamento</text><line style="stroke:#181818;stroke-width:0.5;" x1="1177.5" x2="1316.5" y1="1527" y2="1527"/><ellipse cx="1187.5" cy="1540.6484" fill="none" rx="3" ry="3" style="stroke:#038048;stroke-width:1.0;"/><text fill="#000000" font-family="sans-serif" font-size="14" lengthAdjust="spacing" textLength="109" x="1196.5" y="1543.9951">CpfDoPaciente</text><ellipse cx="1187.5" cy="1556.9453" fill="none" rx="3" ry="3" style="stroke:#038048;stroke-width:1.0;"/><text fill="#000000" font-family="sans-serif" font-size="14" lengthAdjust="spacing" textLength="115" x="1196.5" y="1560.292">DataDaConsulta</text><ellipse cx="1187.5" cy="1573.2422" fill="none" rx="3" ry="3" style="stroke:#038048;stroke-width:1.0;"/><text fill="#000000" font-family="sans-serif" font-size="14" lengthAdjust="spacing" textLength="74" x="1196.5" y="1576.5889">HoraInicial</text><ellipse cx="1187.5" cy="1589.5391" fill="none" rx="3" ry="3" style="stroke:#038048;stroke-width:1.0;"/><text fill="#000000" font-family="sans-serif" font-size="14" lengthAdjust="spacing" textLength="66" x="1196.5" y="1592.8857">HoraFinal</text><line style="stroke:#181818;stroke-width:0.5;" x1="1177.5" x2="1316.5" y1="1600.1875" y2="1600.1875"/></g><!--class agb--><g id="elem_agb"><rect codeLine="8" fill="#F1F1F1" height="64.2969" id="agb" rx="2.5" ry="2.5" style="stroke:#181818;stroke-width:0.5;" width="229" x="1201.5" y="1354.5"/><ellipse cx="1236.75" cy="1370.5" fill="#ADD1B2" rx="11" ry="11" style="stroke:#181818;stroke-width:1.0;"/><path d="M1239.0938,1366.1719 C1238.1563,1365.7344 1237.5625,1365.5938 1236.6875,1365.5938 C1234.0625,1365.5938 1232.0625,1367.6719 1232.0625,1370.3906 L1232.0625,1371.5156 C1232.0625,1374.0938 1234.1719,1375.9844 1237.0625,1375.9844 C1238.2813,1375.9844 1239.4375,1375.6875 1240.1875,1375.1406 C1240.7656,1374.7344 1241.0938,1374.2813 1241.0938,1373.8906 C1241.0938,1373.4375 1240.7031,1373.0469 1240.2344,1373.0469 C1240.0156,1373.0469 1239.8125,1373.125 1239.625,1373.3125 C1239.1719,1373.7969 1239.1719,1373.7969 1238.9844,1373.8906 C1238.5625,1374.1563 1237.875,1374.2813 1237.1094,1374.2813 C1235.0625,1374.2813 1233.7656,1373.1875 1233.7656,1371.4844 L1233.7656,1370.3906 C1233.7656,1368.6094 1235.0156,1367.2969 1236.75,1367.2969 C1237.3281,1367.2969 1237.9375,1367.4531 1238.4063,1367.7031 C1238.8906,1367.9844 1239.0625,1368.2031 1239.1563,1368.6094 C1239.2188,1369.0156 1239.25,1369.1406 1239.3906,1369.2656 C1239.5313,1369.4063 1239.7656,1369.5156 1239.9844,1369.5156 C1240.25,1369.5156 1240.5156,1369.375 1240.6875,1369.1563 C1240.7969,1369 1240.8281,1368.8125 1240.8281,1368.3906 L1240.8281,1366.9688 C1240.8281,1366.5313 1240.8125,1366.4063 1240.7188,1366.25 C1240.5625,1365.9844 1240.2813,1365.8438 1239.9844,1365.8438 C1239.6875,1365.8438 1239.4844,1365.9375 1239.2656,1366.25 L1239.0938,1366.1719 Z " fill="#000000"/><text fill="#000000" font-family="sans-serif" font-size="14" lengthAdjust="spacing" textLength="152" x="1255.25" y="1375.3467">AgendamentoBuilder</text><line style="stroke:#181818;stroke-width:0.5;" x1="1202.5" x2="1429.5" y1="1386.5" y2="1386.5"/><text fill="#000000" font-family="sans-serif" font-size="14" lengthAdjust="spacing" textLength="217" x="1207.5" y="1403.4951">Valida dados de Agendamento</text><line style="stroke:#181818;stroke-width:0.5;" x1="1202.5" x2="1429.5" y1="1410.7969" y2="1410.7969"/></g><!--class pc--><g id="elem_pc"><rect codeLine="11" fill="#F1F1F1" height="96.8906" id="pc" rx="2.5" ry="2.5" style="stroke:#181818;stroke-width:0.5;" width="165" x="976.5" y="1503"/><ellipse cx="1023.25" cy="1519" fill="#ADD1B2" rx="11" ry="11" style="stroke:#181818;stroke-width:1.0;"/><path d="M1025.5938,1514.6719 C1024.6563,1514.2344 1024.0625,1514.0938 1023.1875,1514.0938 C1020.5625,1514.0938 1018.5625,1516.1719 1018.5625,1518.8906 L1018.5625,1520.0156 C1018.5625,1522.5938 1020.6719,1524.4844 1023.5625,1524.4844 C1024.7813,1524.4844 1025.9375,1524.1875 1026.6875,1523.6406 C1027.2656,1523.2344 1027.5938,1522.7813 1027.5938,1522.3906 C1027.5938,1521.9375 1027.2031,1521.5469 1026.7344,1521.5469 C1026.5156,1521.5469 1026.3125,1521.625 1026.125,1521.8125 C1025.6719,1522.2969 1025.6719,1522.2969 1025.4844,1522.3906 C1025.0625,1522.6563 1024.375,1522.7813 1023.6094,1522.7813 C1021.5625,1522.7813 1020.2656,1521.6875 1020.2656,1519.9844 L1020.2656,1518.8906 C1020.2656,1517.1094 1021.5156,1515.7969 1023.25,1515.7969 C1023.8281,1515.7969 1024.4375,1515.9531 1024.9063,1516.2031 C1025.3906,1516.4844 1025.5625,1516.7031 1025.6563,1517.1094 C1025.7188,1517.5156 1025.75,1517.6406 1025.8906,1517.7656 C1026.0313,1517.9063 1026.2656,1518.0156 1026.4844,1518.0156 C1026.75,1518.0156 1027.0156,1517.875 1027.1875,1517.6563 C1027.2969,1517.5 1027.3281,1517.3125 1027.3281,1516.8906 L1027.3281,1515.4688 C1027.3281,1515.0313 1027.3125,1514.9063 1027.2188,1514.75 C1027.0625,1514.4844 1026.7813,1514.3438 1026.4844,1514.3438 C1026.1875,1514.3438 1025.9844,1514.4375 1025.7656,1514.75 L1025.5938,1514.6719 Z " fill="#000000"/><text fill="#000000" font-family="sans-serif" font-size="14" lengthAdjust="spacing" textLength="63" x="1043.75" y="1523.8467">Paciente</text><line style="stroke:#181818;stroke-width:0.5;" x1="977.5" x2="1140.5" y1="1535" y2="1535"/><ellipse cx="987.5" cy="1548.6484" fill="none" rx="3" ry="3" style="stroke:#038048;stroke-width:1.0;"/><text fill="#000000" font-family="sans-serif" font-size="14" lengthAdjust="spacing" textLength="26" x="996.5" y="1551.9951">Cpf</text><ellipse cx="987.5" cy="1564.9453" fill="none" rx="3" ry="3" style="stroke:#038048;stroke-width:1.0;"/><text fill="#000000" font-family="sans-serif" font-size="14" lengthAdjust="spacing" textLength="42" x="996.5" y="1568.292">Nome</text><ellipse cx="987.5" cy="1581.2422" fill="none" rx="3" ry="3" style="stroke:#038048;stroke-width:1.0;"/><text fill="#000000" font-family="sans-serif" font-size="14" lengthAdjust="spacing" textLength="139" x="996.5" y="1584.5889">DataDeNascimento</text><line style="stroke:#181818;stroke-width:0.5;" x1="977.5" x2="1140.5" y1="1591.8906" y2="1591.8906"/></g><!--class pcb--><g id="elem_pcb"><rect codeLine="16" fill="#F1F1F1" height="64.2969" id="pcb" rx="2.5" ry="2.5" style="stroke:#181818;stroke-width:0.5;" width="190" x="976" y="1354.5"/><ellipse cx="1004.05" cy="1370.5" fill="#ADD1B2" rx="11" ry="11" style="stroke:#181818;stroke-width:1.0;"/><path d="M1006.3938,1366.1719 C1005.4563,1365.7344 1004.8625,1365.5938 1003.9875,1365.5938 C1001.3625,1365.5938 999.3625,1367.6719 999.3625,1370.3906 L999.3625,1371.5156 C999.3625,1374.0938 1001.4719,1375.9844 1004.3625,1375.9844 C1005.5813,1375.9844 1006.7375,1375.6875 1007.4875,1375.1406 C1008.0656,1374.7344 1008.3938,1374.2813 1008.3938,1373.8906 C1008.3938,1373.4375 1008.0031,1373.0469 1007.5344,1373.0469 C1007.3156,1373.0469 1007.1125,1373.125 1006.925,1373.3125 C1006.4719,1373.7969 1006.4719,1373.7969 1006.2844,1373.8906 C1005.8625,1374.1563 1005.175,1374.2813 1004.4094,1374.2813 C1002.3625,1374.2813 1001.0656,1373.1875 1001.0656,1371.4844 L1001.0656,1370.3906 C1001.0656,1368.6094 1002.3156,1367.2969 1004.05,1367.2969 C1004.6281,1367.2969 1005.2375,1367.4531 1005.7063,1367.7031 C1006.1906,1367.9844 1006.3625,1368.2031 1006.4563,1368.6094 C1006.5188,1369.0156 1006.55,1369.1406 1006.6906,1369.2656 C1006.8313,1369.4063 1007.0656,1369.5156 1007.2844,1369.5156 C1007.55,1369.5156 1007.8156,1369.375 1007.9875,1369.1563 C1008.0969,1369 1008.1281,1368.8125 1008.1281,1368.3906 L1008.1281,1366.9688 C1008.1281,1366.5313 1008.1125,1366.4063 1008.0188,1366.25 C1007.8625,1365.9844 1007.5813,1365.8438 1007.2844,1365.8438 C1006.9875,1365.8438 1006.7844,1365.9375 1006.5656,1366.25 L1006.3938,1366.1719 Z " fill="#000000"/><text fill="#000000" font-family="sans-serif" font-size="14" lengthAdjust="spacing" textLength="113" x="1028.95" y="1375.3467">PacienteBuilder</text><line style="stroke:#181818;stroke-width:0.5;" x1="977" x2="1165" y1="1386.5" y2="1386.5"/><text fill="#000000" font-family="sans-serif" font-size="14" lengthAdjust="spacing" textLength="178" x="982" y="1403.4951">Valida dados de Paciente</text><line style="stroke:#181818;stroke-width:0.5;" x1="977" x2="1165" y1="1410.7969" y2="1410.7969"/></g><!--class agc--><g id="elem_agc"><rect codeLine="23" fill="#F1F1F1" height="129.4844" id="agc" rx="2.5" ry="2.5" style="stroke:#181818;stroke-width:0.5;" width="406" x="563" y="403"/><ellipse cx="674.25" cy="419" fill="#ADD1B2" rx="11" ry="11" style="stroke:#181818;stroke-width:1.0;"/><path d="M676.5938,414.6719 C675.6563,414.2344 675.0625,414.0938 674.1875,414.0938 C671.5625,414.0938 669.5625,416.1719 669.5625,418.8906 L669.5625,420.0156 C669.5625,422.5938 671.6719,424.4844 674.5625,424.4844 C675.7813,424.4844 676.9375,424.1875 677.6875,423.6406 C678.2656,423.2344 678.5938,422.7813 678.5938,422.3906 C678.5938,421.9375 678.2031,421.5469 677.7344,421.5469 C677.5156,421.5469 677.3125,421.625 677.125,421.8125 C676.6719,422.2969 676.6719,422.2969 676.4844,422.3906 C676.0625,422.6563 675.375,422.7813 674.6094,422.7813 C672.5625,422.7813 671.2656,421.6875 671.2656,419.9844 L671.2656,418.8906 C671.2656,417.1094 672.5156,415.7969 674.25,415.7969 C674.8281,415.7969 675.4375,415.9531 675.9063,416.2031 C676.3906,416.4844 676.5625,416.7031 676.6563,417.1094 C676.7188,417.5156 676.75,417.6406 676.8906,417.7656 C677.0313,417.9063 677.2656,418.0156 677.4844,418.0156 C677.75,418.0156 678.0156,417.875 678.1875,417.6563 C678.2969,417.5 678.3281,417.3125 678.3281,416.8906 L678.3281,415.4688 C678.3281,415.0313 678.3125,414.9063 678.2188,414.75 C678.0625,414.4844 677.7813,414.3438 677.4844,414.3438 C677.1875,414.3438 676.9844,414.4375 676.7656,414.75 L676.5938,414.6719 Z " fill="#000000"/><text fill="#000000" font-family="sans-serif" font-size="14" lengthAdjust="spacing" textLength="175" x="694.75" y="423.8467">AgendamentoController</text><line style="stroke:#181818;stroke-width:0.5;" x1="564" x2="968" y1="435" y2="435"/><text fill="#000000" font-family="sans-serif" font-size="14" lengthAdjust="spacing" textLength="394" x="569" y="451.9951">Recebe os dados de AgendamentoView e os envia para</text><text fill="#000000" font-family="sans-serif" font-size="14" lengthAdjust="spacing" textLength="318" x="569" y="468.292">função correspondente na camada de Dados</text><line style="stroke:#181818;stroke-width:0.5;" x1="564" x2="968" y1="475.5938" y2="475.5938"/><ellipse cx="574" cy="489.2422" fill="#84BE84" rx="3" ry="3" style="stroke:#038048;stroke-width:1.0;"/><text fill="#000000" font-family="sans-serif" font-size="14" lengthAdjust="spacing" textLength="132" x="583" y="492.5889">AgendarConsulta()</text><ellipse cx="574" cy="505.5391" fill="#84BE84" rx="3" ry="3" style="stroke:#038048;stroke-width:1.0;"/><text fill="#000000" font-family="sans-serif" font-size="14" lengthAdjust="spacing" textLength="134" x="583" y="508.8857">CancelarConsulta()</text><ellipse cx="574" cy="521.8359" fill="#84BE84" rx="3" ry="3" style="stroke:#038048;stroke-width:1.0;"/><text fill="#000000" font-family="sans-serif" font-size="14" lengthAdjust="spacing" textLength="146" x="583" y="525.1826">GetAgendamentos()</text></g><!--class pcc--><g id="elem_pcc"><rect codeLine="30" fill="#F1F1F1" height="129.4844" id="pcc" rx="2.5" ry="2.5" style="stroke:#181818;stroke-width:0.5;" width="367" x="160.5" y="403"/><ellipse cx="271.75" cy="419" fill="#ADD1B2" rx="11" ry="11" style="stroke:#181818;stroke-width:1.0;"/><path d="M274.0938,414.6719 C273.1563,414.2344 272.5625,414.0938 271.6875,414.0938 C269.0625,414.0938 267.0625,416.1719 267.0625,418.8906 L267.0625,420.0156 C267.0625,422.5938 269.1719,424.4844 272.0625,424.4844 C273.2813,424.4844 274.4375,424.1875 275.1875,423.6406 C275.7656,423.2344 276.0938,422.7813 276.0938,422.3906 C276.0938,421.9375 275.7031,421.5469 275.2344,421.5469 C275.0156,421.5469 274.8125,421.625 274.625,421.8125 C274.1719,422.2969 274.1719,422.2969 273.9844,422.3906 C273.5625,422.6563 272.875,422.7813 272.1094,422.7813 C270.0625,422.7813 268.7656,421.6875 268.7656,419.9844 L268.7656,418.8906 C268.7656,417.1094 270.0156,415.7969 271.75,415.7969 C272.3281,415.7969 272.9375,415.9531 273.4063,416.2031 C273.8906,416.4844 274.0625,416.7031 274.1563,417.1094 C274.2188,417.5156 274.25,417.6406 274.3906,417.7656 C274.5313,417.9063 274.7656,418.0156 274.9844,418.0156 C275.25,418.0156 275.5156,417.875 275.6875,417.6563 C275.7969,417.5 275.8281,417.3125 275.8281,416.8906 L275.8281,415.4688 C275.8281,415.0313 275.8125,414.9063 275.7188,414.75 C275.5625,414.4844 275.2813,414.3438 274.9844,414.3438 C274.6875,414.3438 274.4844,414.4375 274.2656,414.75 L274.0938,414.6719 Z " fill="#000000"/><text fill="#000000" font-family="sans-serif" font-size="14" lengthAdjust="spacing" textLength="136" x="292.25" y="423.8467">PacienteController</text><line style="stroke:#181818;stroke-width:0.5;" x1="161.5" x2="526.5" y1="435" y2="435"/><text fill="#000000" font-family="sans-serif" font-size="14" lengthAdjust="spacing" textLength="355" x="166.5" y="451.9951">Recebe os dados de PacienteView e os envia para</text><text fill="#000000" font-family="sans-serif" font-size="14" lengthAdjust="spacing" textLength="318" x="166.5" y="468.292">função correspondente na camada de Dados</text><line style="stroke:#181818;stroke-width:0.5;" x1="161.5" x2="526.5" y1="475.5938" y2="475.5938"/><ellipse cx="171.5" cy="489.2422" fill="#84BE84" rx="3" ry="3" style="stroke:#038048;stroke-width:1.0;"/><text fill="#000000" font-family="sans-serif" font-size="14" lengthAdjust="spacing" textLength="116" x="180.5" y="492.5889">IncluirPaciente()</text><ellipse cx="171.5" cy="505.5391" fill="#84BE84" rx="3" ry="3" style="stroke:#038048;stroke-width:1.0;"/><text fill="#000000" font-family="sans-serif" font-size="14" lengthAdjust="spacing" textLength="120" x="180.5" y="508.8857">ExcluirPaciente()</text><ellipse cx="171.5" cy="521.8359" fill="#84BE84" rx="3" ry="3" style="stroke:#038048;stroke-width:1.0;"/><text fill="#000000" font-family="sans-serif" font-size="14" lengthAdjust="spacing" textLength="107" x="180.5" y="525.1826">GetPacientes()</text></g><!--class pv--><g id="elem_pv"><rect codeLine="41" fill="#F1F1F1" height="145.7813" id="pv" rx="2.5" ry="2.5" style="stroke:#181818;stroke-width:0.5;" width="330" x="456" y="182"/><ellipse cx="568.25" cy="198" fill="#ADD1B2" rx="11" ry="11" style="stroke:#181818;stroke-width:1.0;"/><path d="M570.5938,193.6719 C569.6563,193.2344 569.0625,193.0938 568.1875,193.0938 C565.5625,193.0938 563.5625,195.1719 563.5625,197.8906 L563.5625,199.0156 C563.5625,201.5938 565.6719,203.4844 568.5625,203.4844 C569.7813,203.4844 570.9375,203.1875 571.6875,202.6406 C572.2656,202.2344 572.5938,201.7813 572.5938,201.3906 C572.5938,200.9375 572.2031,200.5469 571.7344,200.5469 C571.5156,200.5469 571.3125,200.625 571.125,200.8125 C570.6719,201.2969 570.6719,201.2969 570.4844,201.3906 C570.0625,201.6563 569.375,201.7813 568.6094,201.7813 C566.5625,201.7813 565.2656,200.6875 565.2656,198.9844 L565.2656,197.8906 C565.2656,196.1094 566.5156,194.7969 568.25,194.7969 C568.8281,194.7969 569.4375,194.9531 569.9063,195.2031 C570.3906,195.4844 570.5625,195.7031 570.6563,196.1094 C570.7188,196.5156 570.75,196.6406 570.8906,196.7656 C571.0313,196.9063 571.2656,197.0156 571.4844,197.0156 C571.75,197.0156 572.0156,196.875 572.1875,196.6563 C572.2969,196.5 572.3281,196.3125 572.3281,195.8906 L572.3281,194.4688 C572.3281,194.0313 572.3125,193.9063 572.2188,193.75 C572.0625,193.4844 571.7813,193.3438 571.4844,193.3438 C571.1875,193.3438 570.9844,193.4375 570.7656,193.75 L570.5938,193.6719 Z " fill="#000000"/><text fill="#000000" font-family="sans-serif" font-size="14" lengthAdjust="spacing" textLength="97" x="588.75" y="202.8467">PacienteView</text><line style="stroke:#181818;stroke-width:0.5;" x1="457" x2="785" y1="214" y2="214"/><text fill="#000000" font-family="sans-serif" font-size="14" lengthAdjust="spacing" textLength="275" x="462" y="230.9951">Interage com o usuário para realizar as</text><text fill="#000000" font-family="sans-serif" font-size="14" lengthAdjust="spacing" textLength="318" x="462" y="247.292">funcionalidades referentes a classe Paciente</text><line style="stroke:#181818;stroke-width:0.5;" x1="457" x2="785" y1="254.5938" y2="254.5938"/><ellipse cx="467" cy="268.2422" fill="#84BE84" rx="3" ry="3" style="stroke:#038048;stroke-width:1.0;"/><text fill="#000000" font-family="sans-serif" font-size="14" lengthAdjust="spacing" textLength="142" x="476" y="271.5889">CadastrarPaciente()</text><ellipse cx="467" cy="284.5391" fill="#84BE84" rx="3" ry="3" style="stroke:#038048;stroke-width:1.0;"/><text fill="#000000" font-family="sans-serif" font-size="14" lengthAdjust="spacing" textLength="120" x="476" y="287.8857">ExcluirPaciente()</text><ellipse cx="467" cy="300.8359" fill="#84BE84" rx="3" ry="3" style="stroke:#038048;stroke-width:1.0;"/><text fill="#000000" font-family="sans-serif" font-size="14" lengthAdjust="spacing" textLength="170" x="476" y="304.1826">ListarPacientesPorCpf()</text><ellipse cx="467" cy="317.1328" fill="#84BE84" rx="3" ry="3" style="stroke:#038048;stroke-width:1.0;"/><text fill="#000000" font-family="sans-serif" font-size="14" lengthAdjust="spacing" textLength="186" x="476" y="320.4795">ListarPacientesPorNome()</text></g><!--class av--><g id="elem_av"><rect codeLine="50" fill="#F1F1F1" height="145.7813" id="av" rx="2.5" ry="2.5" style="stroke:#181818;stroke-width:0.5;" width="369" x="821.5" y="182"/><ellipse cx="933.75" cy="198" fill="#ADD1B2" rx="11" ry="11" style="stroke:#181818;stroke-width:1.0;"/><path d="M936.0938,193.6719 C935.1563,193.2344 934.5625,193.0938 933.6875,193.0938 C931.0625,193.0938 929.0625,195.1719 929.0625,197.8906 L929.0625,199.0156 C929.0625,201.5938 931.1719,203.4844 934.0625,203.4844 C935.2813,203.4844 936.4375,203.1875 937.1875,202.6406 C937.7656,202.2344 938.0938,201.7813 938.0938,201.3906 C938.0938,200.9375 937.7031,200.5469 937.2344,200.5469 C937.0156,200.5469 936.8125,200.625 936.625,200.8125 C936.1719,201.2969 936.1719,201.2969 935.9844,201.3906 C935.5625,201.6563 934.875,201.7813 934.1094,201.7813 C932.0625,201.7813 930.7656,200.6875 930.7656,198.9844 L930.7656,197.8906 C930.7656,196.1094 932.0156,194.7969 933.75,194.7969 C934.3281,194.7969 934.9375,194.9531 935.4063,195.2031 C935.8906,195.4844 936.0625,195.7031 936.1563,196.1094 C936.2188,196.5156 936.25,196.6406 936.3906,196.7656 C936.5313,196.9063 936.7656,197.0156 936.9844,197.0156 C937.25,197.0156 937.5156,196.875 937.6875,196.6563 C937.7969,196.5 937.8281,196.3125 937.8281,195.8906 L937.8281,194.4688 C937.8281,194.0313 937.8125,193.9063 937.7188,193.75 C937.5625,193.4844 937.2813,193.3438 936.9844,193.3438 C936.6875,193.3438 936.4844,193.4375 936.2656,193.75 L936.0938,193.6719 Z " fill="#000000"/><text fill="#000000" font-family="sans-serif" font-size="14" lengthAdjust="spacing" textLength="136" x="954.25" y="202.8467">AgendamentoView</text><line style="stroke:#181818;stroke-width:0.5;" x1="822.5" x2="1189.5" y1="214" y2="214"/><text fill="#000000" font-family="sans-serif" font-size="14" lengthAdjust="spacing" textLength="275" x="827.5" y="230.9951">Interage com o usuário para realizar as</text><text fill="#000000" font-family="sans-serif" font-size="14" lengthAdjust="spacing" textLength="357" x="827.5" y="247.292">funcionalidades referentes a classe Agendamento</text><line style="stroke:#181818;stroke-width:0.5;" x1="822.5" x2="1189.5" y1="254.5938" y2="254.5938"/><ellipse cx="832.5" cy="268.2422" fill="#84BE84" rx="3" ry="3" style="stroke:#038048;stroke-width:1.0;"/><text fill="#000000" font-family="sans-serif" font-size="14" lengthAdjust="spacing" textLength="132" x="841.5" y="271.5889">AgendarConsulta()</text><ellipse cx="832.5" cy="284.5391" fill="#84BE84" rx="3" ry="3" style="stroke:#038048;stroke-width:1.0;"/><text fill="#000000" font-family="sans-serif" font-size="14" lengthAdjust="spacing" textLength="174" x="841.5" y="287.8857">CancelarAgendamento()</text><ellipse cx="832.5" cy="300.8359" fill="#84BE84" rx="3" ry="3" style="stroke:#038048;stroke-width:1.0;"/><text fill="#000000" font-family="sans-serif" font-size="14" lengthAdjust="spacing" textLength="151" x="841.5" y="304.1826">ListarAgendaInteira()</text><ellipse cx="832.5" cy="317.1328" fill="#84BE84" rx="3" ry="3" style="stroke:#038048;stroke-width:1.0;"/><text fill="#000000" font-family="sans-serif" font-size="14" lengthAdjust="spacing" textLength="151" x="841.5" y="320.4795">ListarAgendaParcial()</text></g><!--class ui--><g id="elem_ui"><rect codeLine="59" fill="#F1F1F1" height="80.5938" id="ui" rx="2.5" ry="2.5" style="stroke:#181818;stroke-width:0.5;" width="325" x="650.5" y="41"/><ellipse cx="760.25" cy="57" fill="#ADD1B2" rx="11" ry="11" style="stroke:#181818;stroke-width:1.0;"/><path d="M762.5938,52.6719 C761.6563,52.2344 761.0625,52.0938 760.1875,52.0938 C757.5625,52.0938 755.5625,54.1719 755.5625,56.8906 L755.5625,58.0156 C755.5625,60.5938 757.6719,62.4844 760.5625,62.4844 C761.7813,62.4844 762.9375,62.1875 763.6875,61.6406 C764.2656,61.2344 764.5938,60.7813 764.5938,60.3906 C764.5938,59.9375 764.2031,59.5469 763.7344,59.5469 C763.5156,59.5469 763.3125,59.625 763.125,59.8125 C762.6719,60.2969 762.6719,60.2969 762.4844,60.3906 C762.0625,60.6563 761.375,60.7813 760.6094,60.7813 C758.5625,60.7813 757.2656,59.6875 757.2656,57.9844 L757.2656,56.8906 C757.2656,55.1094 758.5156,53.7969 760.25,53.7969 C760.8281,53.7969 761.4375,53.9531 761.9063,54.2031 C762.3906,54.4844 762.5625,54.7031 762.6563,55.1094 C762.7188,55.5156 762.75,55.6406 762.8906,55.7656 C763.0313,55.9063 763.2656,56.0156 763.4844,56.0156 C763.75,56.0156 764.0156,55.875 764.1875,55.6563 C764.2969,55.5 764.3281,55.3125 764.3281,54.8906 L764.3281,53.4688 C764.3281,53.0313 764.3125,52.9063 764.2188,52.75 C764.0625,52.4844 763.7813,52.3438 763.4844,52.3438 C763.1875,52.3438 762.9844,52.4375 762.7656,52.75 L762.5938,52.6719 Z " fill="#000000"/><text fill="#000000" font-family="sans-serif" font-size="14" lengthAdjust="spacing" textLength="97" x="780.75" y="61.8467">UserInterface</text><line style="stroke:#181818;stroke-width:0.5;" x1="651.5" x2="974.5" y1="73" y2="73"/><text fill="#000000" font-family="sans-serif" font-size="14" lengthAdjust="spacing" textLength="313" x="656.5" y="89.9951">Interage com o usuário por meio do console</text><line style="stroke:#181818;stroke-width:0.5;" x1="651.5" x2="974.5" y1="97.2969" y2="97.2969"/><ellipse cx="661.5" cy="110.9453" fill="#84BE84" rx="3" ry="3" style="stroke:#038048;stroke-width:1.0;"/><text fill="#000000" font-family="sans-serif" font-size="14" lengthAdjust="spacing" textLength="47" x="670.5" y="114.292">Start()</text></g><!--class ic--><g id="elem_ic"><rect codeLine="67" fill="#F1F1F1" height="390.2344" id="ic" rx="2.5" ry="2.5" style="stroke:#181818;stroke-width:0.5;" width="580" x="176" y="780"/><ellipse cx="419.25" cy="796" fill="#B4A7E5" rx="11" ry="11" style="stroke:#181818;stroke-width:1.0;"/><path d="M420.2031,792.7813 L421.9219,792.7813 C422.3125,792.7813 422.5,792.75 422.625,792.6719 C422.8906,792.5156 423.0313,792.2344 423.0313,791.9375 C423.0313,791.6719 422.9219,791.4063 422.6875,791.2344 C422.5156,791.125 422.375,791.0938 421.9219,791.0938 L416.7813,791.0938 C416.3438,791.0938 416.2188,791.1094 416.0625,791.2031 C415.8125,791.3594 415.6563,791.6563 415.6563,791.9375 C415.6563,792.2188 415.7969,792.4688 416.0156,792.6406 C416.1719,792.75 416.3594,792.7813 416.7813,792.7813 L418.5,792.7813 L418.5,799.2969 L416.7813,799.2969 C416.3438,799.2969 416.2188,799.3125 416.0625,799.4219 C415.8125,799.5781 415.6563,799.8594 415.6563,800.1563 C415.6563,800.4063 415.7969,800.6719 416.0156,800.8281 C416.1719,800.9531 416.375,801 416.7813,801 L421.9219,801 C422.6719,801 423.0313,800.7188 423.0313,800.1563 C423.0313,799.875 422.9219,799.625 422.6875,799.4531 C422.5156,799.3281 422.375,799.2969 421.9219,799.2969 L420.2031,799.2969 L420.2031,792.7813 Z " fill="#000000"/><text fill="#000000" font-family="sans-serif" font-size="14" font-style="italic" lengthAdjust="spacing" textLength="85" x="439.75" y="800.8467">IConsultorio</text><line style="stroke:#181818;stroke-width:0.5;" x1="177" x2="755" y1="812" y2="812"/><line style="stroke:#181818;stroke-width:0.5;" x1="177" x2="755" y1="820" y2="820"/><text fill="#000000" font-family="sans-serif" font-size="14" lengthAdjust="spacing" textLength="554" x="196" y="836.9951">Métodos Públicos para a manipulação dos Dados (Agendamentos e Pacientes)</text><text fill="#000000" font-family="sans-serif" font-size="14" lengthAdjust="spacing" textLength="4" x="196" y="853.292"> </text><ellipse cx="187" cy="866.2422" fill="#84BE84" rx="3" ry="3" style="stroke:#038048;stroke-width:1.0;"/><text fill="#000000" font-family="sans-serif" font-size="14" lengthAdjust="spacing" textLength="205" x="196" y="869.5889">AddPaciente(Paciente): bool</text><text fill="#000000" font-family="sans-serif" font-size="14" lengthAdjust="spacing" textLength="4" x="196" y="885.8857"> </text><ellipse cx="187" cy="898.8359" fill="#84BE84" rx="3" ry="3" style="stroke:#038048;stroke-width:1.0;"/><text fill="#000000" font-family="sans-serif" font-size="14" lengthAdjust="spacing" textLength="226" x="196" y="902.1826">DeletePaciente(Paciente): bool</text><text fill="#000000" font-family="sans-serif" font-size="14" lengthAdjust="spacing" textLength="4" x="196" y="918.4795"> </text><ellipse cx="187" cy="931.4297" fill="#84BE84" rx="3" ry="3" style="stroke:#038048;stroke-width:1.0;"/><text fill="#000000" font-family="sans-serif" font-size="14" lengthAdjust="spacing" textLength="309" x="196" y="934.7764">GetAllPacientes(): IEnumerable&lt;Paciente&gt;</text><text fill="#000000" font-family="sans-serif" font-size="14" lengthAdjust="spacing" textLength="4" x="196" y="951.0732"> </text><ellipse cx="187" cy="964.0234" fill="#84BE84" rx="3" ry="3" style="stroke:#038048;stroke-width:1.0;"/><text fill="#000000" font-family="sans-serif" font-size="14" lengthAdjust="spacing" textLength="283" x="196" y="967.3701">AddAgendamento(Agendamento): bool</text><text fill="#000000" font-family="sans-serif" font-size="14" lengthAdjust="spacing" textLength="4" x="196" y="983.667"> </text><ellipse cx="187" cy="996.6172" fill="#84BE84" rx="3" ry="3" style="stroke:#038048;stroke-width:1.0;"/><text fill="#000000" font-family="sans-serif" font-size="14" lengthAdjust="spacing" textLength="374" x="196" y="999.9639">DeleteAgendamento(ulong, DateTime, ushort): bool</text><text fill="#000000" font-family="sans-serif" font-size="14" lengthAdjust="spacing" textLength="4" x="196" y="1016.2607"> </text><ellipse cx="187" cy="1029.2109" fill="#84BE84" rx="3" ry="3" style="stroke:#038048;stroke-width:1.0;"/><text fill="#000000" font-family="sans-serif" font-size="14" lengthAdjust="spacing" textLength="387" x="196" y="1032.5576">GetAllAgendamentos(): IEnumerable&lt;Agendamento&gt;</text><text fill="#000000" font-family="sans-serif" font-size="14" lengthAdjust="spacing" textLength="4" x="196" y="1048.8545"> </text><ellipse cx="187" cy="1061.8047" fill="#84BE84" rx="3" ry="3" style="stroke:#038048;stroke-width:1.0;"/><text fill="#000000" font-family="sans-serif" font-size="14" lengthAdjust="spacing" textLength="158" x="196" y="1065.1514">CpfExists(ulong): bool</text><text fill="#000000" font-family="sans-serif" font-size="14" lengthAdjust="spacing" textLength="4" x="196" y="1081.4482"> </text><ellipse cx="187" cy="1094.3984" fill="#84BE84" rx="3" ry="3" style="stroke:#038048;stroke-width:1.0;"/><text fill="#000000" font-family="sans-serif" font-size="14" lengthAdjust="spacing" textLength="255" x="196" y="1097.7451">GetPacienteByCpf(ulong): Paciente</text><text fill="#000000" font-family="sans-serif" font-size="14" lengthAdjust="spacing" textLength="4" x="196" y="1114.042"> </text><ellipse cx="187" cy="1126.9922" fill="#84BE84" rx="3" ry="3" style="stroke:#038048;stroke-width:1.0;"/><text fill="#000000" font-family="sans-serif" font-size="14" lengthAdjust="spacing" textLength="390" x="196" y="1130.3389">DeleteAllAgendamentosFromPaciente(Paciente): bool</text><text fill="#000000" font-family="sans-serif" font-size="14" lengthAdjust="spacing" textLength="4" x="196" y="1146.6357"> </text><ellipse cx="187" cy="1159.5859" fill="#84BE84" rx="3" ry="3" style="stroke:#038048;stroke-width:1.0;"/><text fill="#000000" font-family="sans-serif" font-size="14" lengthAdjust="spacing" textLength="347" x="196" y="1162.9326">IsAgendamentoCadastrado(Agendamento): bool</text></g><!--class pd--><g id="elem_pd"><rect codeLine="91" fill="#F1F1F1" height="113.1875" id="pd" rx="2.5" ry="2.5" style="stroke:#181818;stroke-width:0.5;" width="367" x="111.5" y="607"/><ellipse cx="245.25" cy="623" fill="#ADD1B2" rx="11" ry="11" style="stroke:#181818;stroke-width:1.0;"/><path d="M247.5938,618.6719 C246.6563,618.2344 246.0625,618.0938 245.1875,618.0938 C242.5625,618.0938 240.5625,620.1719 240.5625,622.8906 L240.5625,624.0156 C240.5625,626.5938 242.6719,628.4844 245.5625,628.4844 C246.7813,628.4844 247.9375,628.1875 248.6875,627.6406 C249.2656,627.2344 249.5938,626.7813 249.5938,626.3906 C249.5938,625.9375 249.2031,625.5469 248.7344,625.5469 C248.5156,625.5469 248.3125,625.625 248.125,625.8125 C247.6719,626.2969 247.6719,626.2969 247.4844,626.3906 C247.0625,626.6563 246.375,626.7813 245.6094,626.7813 C243.5625,626.7813 242.2656,625.6875 242.2656,623.9844 L242.2656,622.8906 C242.2656,621.1094 243.5156,619.7969 245.25,619.7969 C245.8281,619.7969 246.4375,619.9531 246.9063,620.2031 C247.3906,620.4844 247.5625,620.7031 247.6563,621.1094 C247.7188,621.5156 247.75,621.6406 247.8906,621.7656 C248.0313,621.9063 248.2656,622.0156 248.4844,622.0156 C248.75,622.0156 249.0156,621.875 249.1875,621.6563 C249.2969,621.5 249.3281,621.3125 249.3281,620.8906 L249.3281,619.4688 C249.3281,619.0313 249.3125,618.9063 249.2188,618.75 C249.0625,618.4844 248.7813,618.3438 248.4844,618.3438 C248.1875,618.3438 247.9844,618.4375 247.7656,618.75 L247.5938,618.6719 Z " fill="#000000"/><text fill="#000000" font-family="sans-serif" font-size="14" lengthAdjust="spacing" textLength="91" x="265.75" y="627.8467">PacienteDao</text><line style="stroke:#181818;stroke-width:0.5;" x1="112.5" x2="477.5" y1="639" y2="639"/><text fill="#000000" font-family="sans-serif" font-size="14" lengthAdjust="spacing" textLength="355" x="117.5" y="655.9951">Responsável pelo acesso aos dados dos Pacientes</text><line style="stroke:#181818;stroke-width:0.5;" x1="112.5" x2="477.5" y1="663.2969" y2="663.2969"/><ellipse cx="122.5" cy="676.9453" fill="#84BE84" rx="3" ry="3" style="stroke:#038048;stroke-width:1.0;"/><text fill="#000000" font-family="sans-serif" font-size="14" lengthAdjust="spacing" textLength="38" x="131.5" y="680.292">Add()</text><ellipse cx="122.5" cy="693.2422" fill="#84BE84" rx="3" ry="3" style="stroke:#038048;stroke-width:1.0;"/><text fill="#000000" font-family="sans-serif" font-size="14" lengthAdjust="spacing" textLength="59" x="131.5" y="696.5889">Delete()</text><ellipse cx="122.5" cy="709.5391" fill="#84BE84" rx="3" ry="3" style="stroke:#038048;stroke-width:1.0;"/><text fill="#000000" font-family="sans-serif" font-size="14" lengthAdjust="spacing" textLength="55" x="131.5" y="712.8857">GetAll()</text></g><!--class ad--><g id="elem_ad"><rect codeLine="97" fill="#F1F1F1" height="113.1875" id="ad" rx="2.5" ry="2.5" style="stroke:#181818;stroke-width:0.5;" width="406" x="514" y="607"/><ellipse cx="647.75" cy="623" fill="#ADD1B2" rx="11" ry="11" style="stroke:#181818;stroke-width:1.0;"/><path d="M650.0938,618.6719 C649.1563,618.2344 648.5625,618.0938 647.6875,618.0938 C645.0625,618.0938 643.0625,620.1719 643.0625,622.8906 L643.0625,624.0156 C643.0625,626.5938 645.1719,628.4844 648.0625,628.4844 C649.2813,628.4844 650.4375,628.1875 651.1875,627.6406 C651.7656,627.2344 652.0938,626.7813 652.0938,626.3906 C652.0938,625.9375 651.7031,625.5469 651.2344,625.5469 C651.0156,625.5469 650.8125,625.625 650.625,625.8125 C650.1719,626.2969 650.1719,626.2969 649.9844,626.3906 C649.5625,626.6563 648.875,626.7813 648.1094,626.7813 C646.0625,626.7813 644.7656,625.6875 644.7656,623.9844 L644.7656,622.8906 C644.7656,621.1094 646.0156,619.7969 647.75,619.7969 C648.3281,619.7969 648.9375,619.9531 649.4063,620.2031 C649.8906,620.4844 650.0625,620.7031 650.1563,621.1094 C650.2188,621.5156 650.25,621.6406 650.3906,621.7656 C650.5313,621.9063 650.7656,622.0156 650.9844,622.0156 C651.25,622.0156 651.5156,621.875 651.6875,621.6563 C651.7969,621.5 651.8281,621.3125 651.8281,620.8906 L651.8281,619.4688 C651.8281,619.0313 651.8125,618.9063 651.7188,618.75 C651.5625,618.4844 651.2813,618.3438 650.9844,618.3438 C650.6875,618.3438 650.4844,618.4375 650.2656,618.75 L650.0938,618.6719 Z " fill="#000000"/><text fill="#000000" font-family="sans-serif" font-size="14" lengthAdjust="spacing" textLength="130" x="668.25" y="627.8467">AgendamentoDao</text><line style="stroke:#181818;stroke-width:0.5;" x1="515" x2="919" y1="639" y2="639"/><text fill="#000000" font-family="sans-serif" font-size="14" lengthAdjust="spacing" textLength="394" x="520" y="655.9951">Responsável pelo acesso aos dados dos Agendamentos</text><line style="stroke:#181818;stroke-width:0.5;" x1="515" x2="919" y1="663.2969" y2="663.2969"/><ellipse cx="525" cy="676.9453" fill="#84BE84" rx="3" ry="3" style="stroke:#038048;stroke-width:1.0;"/><text fill="#000000" font-family="sans-serif" font-size="14" lengthAdjust="spacing" textLength="38" x="534" y="680.292">Add()</text><ellipse cx="525" cy="693.2422" fill="#84BE84" rx="3" ry="3" style="stroke:#038048;stroke-width:1.0;"/><text fill="#000000" font-family="sans-serif" font-size="14" lengthAdjust="spacing" textLength="59" x="534" y="696.5889">Delete()</text><ellipse cx="525" cy="709.5391" fill="#84BE84" rx="3" ry="3" style="stroke:#038048;stroke-width:1.0;"/><text fill="#000000" font-family="sans-serif" font-size="14" lengthAdjust="spacing" textLength="55" x="534" y="712.8857">GetAll()</text></g><!--class ce--><g id="elem_ce"><rect codeLine="106" fill="#F1F1F1" height="48" id="ce" rx="2.5" ry="2.5" style="stroke:#181818;stroke-width:0.5;" width="158" x="192" y="1230"/><ellipse cx="207" cy="1246" fill="#ADD1B2" rx="11" ry="11" style="stroke:#181818;stroke-width:1.0;"/><path d="M209.3438,1241.6719 C208.4063,1241.2344 207.8125,1241.0938 206.9375,1241.0938 C204.3125,1241.0938 202.3125,1243.1719 202.3125,1245.8906 L202.3125,1247.0156 C202.3125,1249.5938 204.4219,1251.4844 207.3125,1251.4844 C208.5313,1251.4844 209.6875,1251.1875 210.4375,1250.6406 C211.0156,1250.2344 211.3438,1249.7813 211.3438,1249.3906 C211.3438,1248.9375 210.9531,1248.5469 210.4844,1248.5469 C210.2656,1248.5469 210.0625,1248.625 209.875,1248.8125 C209.4219,1249.2969 209.4219,1249.2969 209.2344,1249.3906 C208.8125,1249.6563 208.125,1249.7813 207.3594,1249.7813 C205.3125,1249.7813 204.0156,1248.6875 204.0156,1246.9844 L204.0156,1245.8906 C204.0156,1244.1094 205.2656,1242.7969 207,1242.7969 C207.5781,1242.7969 208.1875,1242.9531 208.6563,1243.2031 C209.1406,1243.4844 209.3125,1243.7031 209.4063,1244.1094 C209.4688,1244.5156 209.5,1244.6406 209.6406,1244.7656 C209.7813,1244.9063 210.0156,1245.0156 210.2344,1245.0156 C210.5,1245.0156 210.7656,1244.875 210.9375,1244.6563 C211.0469,1244.5 211.0781,1244.3125 211.0781,1243.8906 L211.0781,1242.4688 C211.0781,1242.0313 211.0625,1241.9063 210.9688,1241.75 C210.8125,1241.4844 210.5313,1241.3438 210.2344,1241.3438 C209.9375,1241.3438 209.7344,1241.4375 209.5156,1241.75 L209.3438,1241.6719 Z " fill="#000000"/><text fill="#000000" font-family="sans-serif" font-size="14" lengthAdjust="spacing" textLength="126" x="221" y="1250.8467">EntityConsultorio</text><line style="stroke:#181818;stroke-width:0.5;" x1="193" x2="349" y1="1262" y2="1262"/><line style="stroke:#181818;stroke-width:0.5;" x1="193" x2="349" y1="1270" y2="1270"/></g><!--class cc--><g id="elem_cc"><rect codeLine="108" fill="#F1F1F1" height="64.2969" id="cc" rx="2.5" ry="2.5" style="stroke:#181818;stroke-width:0.5;" width="370" x="46" y="1354.5"/><ellipse cx="175.25" cy="1370.5" fill="#ADD1B2" rx="11" ry="11" style="stroke:#181818;stroke-width:1.0;"/><path d="M177.5938,1366.1719 C176.6563,1365.7344 176.0625,1365.5938 175.1875,1365.5938 C172.5625,1365.5938 170.5625,1367.6719 170.5625,1370.3906 L170.5625,1371.5156 C170.5625,1374.0938 172.6719,1375.9844 175.5625,1375.9844 C176.7813,1375.9844 177.9375,1375.6875 178.6875,1375.1406 C179.2656,1374.7344 179.5938,1374.2813 179.5938,1373.8906 C179.5938,1373.4375 179.2031,1373.0469 178.7344,1373.0469 C178.5156,1373.0469 178.3125,1373.125 178.125,1373.3125 C177.6719,1373.7969 177.6719,1373.7969 177.4844,1373.8906 C177.0625,1374.1563 176.375,1374.2813 175.6094,1374.2813 C173.5625,1374.2813 172.2656,1373.1875 172.2656,1371.4844 L172.2656,1370.3906 C172.2656,1368.6094 173.5156,1367.2969 175.25,1367.2969 C175.8281,1367.2969 176.4375,1367.4531 176.9063,1367.7031 C177.3906,1367.9844 177.5625,1368.2031 177.6563,1368.6094 C177.7188,1369.0156 177.75,1369.1406 177.8906,1369.2656 C178.0313,1369.4063 178.2656,1369.5156 178.4844,1369.5156 C178.75,1369.5156 179.0156,1369.375 179.1875,1369.1563 C179.2969,1369 179.3281,1368.8125 179.3281,1368.3906 L179.3281,1366.9688 C179.3281,1366.5313 179.3125,1366.4063 179.2188,1366.25 C179.0625,1365.9844 178.7813,1365.8438 178.4844,1365.8438 C178.1875,1365.8438 177.9844,1365.9375 177.7656,1366.25 L177.5938,1366.1719 Z " fill="#000000"/><text fill="#000000" font-family="sans-serif" font-size="14" lengthAdjust="spacing" textLength="103" x="195.75" y="1375.3467">EntityContext</text><line style="stroke:#181818;stroke-width:0.5;" x1="47" x2="415" y1="1386.5" y2="1386.5"/><text fill="#000000" font-family="sans-serif" font-size="14" lengthAdjust="spacing" textLength="358" x="52" y="1403.4951">Implementa a persistência pelo framework Entity</text><line style="stroke:#181818;stroke-width:0.5;" x1="47" x2="415" y1="1410.7969" y2="1410.7969"/></g><!--class dc--><g id="elem_dc"><rect codeLine="115" fill="#F1F1F1" height="48" id="dc" rx="2.5" ry="2.5" style="stroke:#181818;stroke-width:0.5;" width="167" x="536.5" y="1230"/><ellipse cx="551.5" cy="1246" fill="#ADD1B2" rx="11" ry="11" style="stroke:#181818;stroke-width:1.0;"/><path d="M553.8438,1241.6719 C552.9063,1241.2344 552.3125,1241.0938 551.4375,1241.0938 C548.8125,1241.0938 546.8125,1243.1719 546.8125,1245.8906 L546.8125,1247.0156 C546.8125,1249.5938 548.9219,1251.4844 551.8125,1251.4844 C553.0313,1251.4844 554.1875,1251.1875 554.9375,1250.6406 C555.5156,1250.2344 555.8438,1249.7813 555.8438,1249.3906 C555.8438,1248.9375 555.4531,1248.5469 554.9844,1248.5469 C554.7656,1248.5469 554.5625,1248.625 554.375,1248.8125 C553.9219,1249.2969 553.9219,1249.2969 553.7344,1249.3906 C553.3125,1249.6563 552.625,1249.7813 551.8594,1249.7813 C549.8125,1249.7813 548.5156,1248.6875 548.5156,1246.9844 L548.5156,1245.8906 C548.5156,1244.1094 549.7656,1242.7969 551.5,1242.7969 C552.0781,1242.7969 552.6875,1242.9531 553.1563,1243.2031 C553.6406,1243.4844 553.8125,1243.7031 553.9063,1244.1094 C553.9688,1244.5156 554,1244.6406 554.1406,1244.7656 C554.2813,1244.9063 554.5156,1245.0156 554.7344,1245.0156 C555,1245.0156 555.2656,1244.875 555.4375,1244.6563 C555.5469,1244.5 555.5781,1244.3125 555.5781,1243.8906 L555.5781,1242.4688 C555.5781,1242.0313 555.5625,1241.9063 555.4688,1241.75 C555.3125,1241.4844 555.0313,1241.3438 554.7344,1241.3438 C554.4375,1241.3438 554.2344,1241.4375 554.0156,1241.75 L553.8438,1241.6719 Z " fill="#000000"/><text fill="#000000" font-family="sans-serif" font-size="14" lengthAdjust="spacing" textLength="135" x="565.5" y="1250.8467">DefaultConsultorio</text><line style="stroke:#181818;stroke-width:0.5;" x1="537.5" x2="702.5" y1="1262" y2="1262"/><line style="stroke:#181818;stroke-width:0.5;" x1="537.5" x2="702.5" y1="1270" y2="1270"/></g><!--class dcc--><g id="elem_dcc"><rect codeLine="118" fill="#F1F1F1" height="96.8906" id="dcc" rx="2.5" ry="2.5" style="stroke:#181818;stroke-width:0.5;" width="423" x="472.5" y="1338"/><ellipse cx="623.75" cy="1354" fill="#ADD1B2" rx="11" ry="11" style="stroke:#181818;stroke-width:1.0;"/><path d="M626.0938,1349.6719 C625.1563,1349.2344 624.5625,1349.0938 623.6875,1349.0938 C621.0625,1349.0938 619.0625,1351.1719 619.0625,1353.8906 L619.0625,1355.0156 C619.0625,1357.5938 621.1719,1359.4844 624.0625,1359.4844 C625.2813,1359.4844 626.4375,1359.1875 627.1875,1358.6406 C627.7656,1358.2344 628.0938,1357.7813 628.0938,1357.3906 C628.0938,1356.9375 627.7031,1356.5469 627.2344,1356.5469 C627.0156,1356.5469 626.8125,1356.625 626.625,1356.8125 C626.1719,1357.2969 626.1719,1357.2969 625.9844,1357.3906 C625.5625,1357.6563 624.875,1357.7813 624.1094,1357.7813 C622.0625,1357.7813 620.7656,1356.6875 620.7656,1354.9844 L620.7656,1353.8906 C620.7656,1352.1094 622.0156,1350.7969 623.75,1350.7969 C624.3281,1350.7969 624.9375,1350.9531 625.4063,1351.2031 C625.8906,1351.4844 626.0625,1351.7031 626.1563,1352.1094 C626.2188,1352.5156 626.25,1352.6406 626.3906,1352.7656 C626.5313,1352.9063 626.7656,1353.0156 626.9844,1353.0156 C627.25,1353.0156 627.5156,1352.875 627.6875,1352.6563 C627.7969,1352.5 627.8281,1352.3125 627.8281,1351.8906 L627.8281,1350.4688 C627.8281,1350.0313 627.8125,1349.9063 627.7188,1349.75 C627.5625,1349.4844 627.2813,1349.3438 626.9844,1349.3438 C626.6875,1349.3438 626.4844,1349.4375 626.2656,1349.75 L626.0938,1349.6719 Z " fill="#000000"/><text fill="#000000" font-family="sans-serif" font-size="14" lengthAdjust="spacing" textLength="112" x="644.25" y="1358.8467">DefaultContext</text><line style="stroke:#181818;stroke-width:0.5;" x1="473.5" x2="894.5" y1="1370" y2="1370"/><text fill="#000000" font-family="sans-serif" font-size="14" lengthAdjust="spacing" textLength="379" x="478.5" y="1386.9951">objeto Singleton que mantém o contexto dos dados.</text><text fill="#000000" font-family="sans-serif" font-size="14" lengthAdjust="spacing" textLength="411" x="478.5" y="1403.292">**É necessário para que PacienteDao e AgendamentoDao</text><text fill="#000000" font-family="sans-serif" font-size="14" lengthAdjust="spacing" textLength="260" x="478.5" y="1419.5889">tenham acesso aos mesmos dados**</text><line style="stroke:#181818;stroke-width:0.5;" x1="473.5" x2="894.5" y1="1426.8906" y2="1426.8906"/></g><!--reverse link pcb to pc--><g id="link_pcb_pc"><path codeLine="126" d="M1067.75,1431.592 C1066.13,1453.647 1064.16,1480.369 1062.51,1502.89 " fill="none" id="pcb-backto-pc" style="stroke:#181818;stroke-width:1.0;"/><polygon fill="none" points="1068.71,1418.543,1064.2806,1424.2333,1067.8296,1430.5107,1072.259,1424.8203,1068.71,1418.543" style="stroke:#181818;stroke-width:1.0;"/></g><!--reverse link agb to ag--><g id="link_agb_ag"><path codeLine="127" d="M1297.78,1430.547 C1289.44,1450.236 1279.46,1473.809 1270.57,1494.826 " fill="none" id="agb-backto-ag" style="stroke:#181818;stroke-width:1.0;"/><polygon fill="none" points="1302.86,1418.543,1296.8376,1422.5093,1298.1825,1429.5938,1304.2049,1425.6276,1302.86,1418.543" style="stroke:#181818;stroke-width:1.0;"/></g><!--reverse link ui to av--><g id="link_ui_av"><path codeLine="129" d="M867.888,131.27 C885.577,146.99 905.573,164.76 924.745,181.8 " fill="none" id="ui-backto-av" style="stroke:#181818;stroke-width:1.0;"/><polygon fill="#181818" points="857.763,122.28,859.5903,129.2558,866.7322,130.252,864.9049,123.2763,857.763,122.28" style="stroke:#181818;stroke-width:1.0;"/></g><!--reverse link ui to pv--><g id="link_ui_pv"><path codeLine="130" d="M758.397,131.27 C740.8,146.99 720.907,164.76 701.834,181.8 " fill="none" id="ui-backto-pv" style="stroke:#181818;stroke-width:1.0;"/><polygon fill="#181818" points="768.469,122.28,761.3293,123.2921,759.5174,130.2718,766.6572,129.2598,768.469,122.28" style="stroke:#181818;stroke-width:1.0;"/></g><!--reverse link pcc to pd--><g id="link_pcc_pd"><path codeLine="132" d="M324.742,544.75 C319.496,565.51 313.914,587.61 309.02,606.99 " fill="none" id="pcc-backto-pd" style="stroke:#181818;stroke-width:1.0;"/><polygon fill="#181818" points="327.956,532.02,322.6076,536.8568,325.0152,543.6541,330.3636,538.8173,327.956,532.02" style="stroke:#181818;stroke-width:1.0;"/></g><!--reverse link agc to ad--><g id="link_agc_ad"><path codeLine="133" d="M746.742,544.75 C741.496,565.51 735.914,587.61 731.02,606.99 " fill="none" id="agc-backto-ad" style="stroke:#181818;stroke-width:1.0;"/><polygon fill="#181818" points="749.956,532.02,744.6076,536.8568,747.0152,543.6541,752.3636,538.8173,749.956,532.02" style="stroke:#181818;stroke-width:1.0;"/></g><!--reverse link dcc to pc--><g id="link_dcc_pc"><path codeLine="135" d="M805.607,1440.358 C861.423,1464.62 926.166,1492.761 976.237,1514.526 " fill="none" id="dcc-backto-pc" style="stroke:#181818;stroke-width:1.0;"/><polygon fill="#181818" points="793.474,1435.085,797.3819,1441.1454,804.4792,1439.8689,800.5712,1433.8086,793.474,1435.085" style="stroke:#181818;stroke-width:1.0;"/><text fill="#000000" font-family="sans-serif" font-size="13" lengthAdjust="spacing" textLength="8" x="800.3063" y="1455.0559">1</text><text fill="#000000" font-family="sans-serif" font-size="13" lengthAdjust="spacing" textLength="8" x="960.5097" y="1507.6427">n</text></g><!--reverse link dcc to ag--><g id="link_dcc_ag"><path codeLine="136" d="M811.376,1439.708 C857.445,1456.404 910.35,1473.107 960,1483 C1046.9,1500.314 1074.66,1467.848 1159,1495 C1164.85,1496.882 1170.69,1499.243 1176.43,1501.923 " fill="none" id="dcc-backto-ag" style="stroke:#181818;stroke-width:1.0;"/><polygon fill="#181818" points="798.885,1435.121,803.1383,1440.9442,810.1494,1439.2578,805.8961,1433.4346,798.885,1435.121" style="stroke:#181818;stroke-width:1.0;"/><text fill="#000000" font-family="sans-serif" font-size="13" lengthAdjust="spacing" textLength="8" x="806.4782" y="1455.0969">1</text><text fill="#000000" font-family="sans-serif" font-size="13" lengthAdjust="spacing" textLength="8" x="1160.2739" y="1509.3847">n</text></g><!--reverse link cc to pc--><g id="link_cc_pc"><path codeLine="137" d="M302.745,1424.277 C346.031,1444.847 402.909,1469.079 456,1483 C637.631,1530.626 858.672,1544.6541 976.184,1548.7823 " fill="none" id="cc-backto-pc" style="stroke:#181818;stroke-width:1.0;"/><polygon fill="#181818" points="290.91,1418.584,294.583,1424.7896,301.7239,1423.7859,298.0509,1417.5803,290.91,1418.584" style="stroke:#181818;stroke-width:1.0;"/><text fill="#000000" font-family="sans-serif" font-size="13" lengthAdjust="spacing" textLength="8" x="304.0914" y="1438.7982">1</text><text fill="#000000" font-family="sans-serif" font-size="13" lengthAdjust="spacing" textLength="8" x="960.452" y="1544.9496">n</text></g><!--reverse link cc to ag--><g id="link_cc_ag"><path codeLine="138" d="M299.13,1424.56 C342.624,1446.134 400.983,1471.318 456,1483 C532.419,1499.227 1084.14,1472.67 1159,1495 C1164.8,1496.73 1170.59,1498.957 1176.27,1501.522 " fill="none" id="cc-backto-ag" style="stroke:#181818;stroke-width:1.0;"/><polygon fill="#181818" points="287.272,1418.585,290.8303,1424.857,297.9885,1423.9848,294.4302,1417.7127,287.272,1418.585" style="stroke:#181818;stroke-width:1.0;"/><text fill="#000000" font-family="sans-serif" font-size="13" lengthAdjust="spacing" textLength="8" x="290.0531" y="1438.7994">1</text><text fill="#000000" font-family="sans-serif" font-size="13" lengthAdjust="spacing" textLength="8" x="1160.5635" y="1492.6587">n</text></g><!--reverse link pv to pcc--><g id="link_pv_pcc"><path codeLine="140" d="M515.463,336.2 C486.421,358.27 455.326,381.9 427.699,402.89 " fill="none" id="pv-backto-pcc" style="stroke:#181818;stroke-width:1.0;"/><polygon fill="#181818" points="526.06,328.15,518.8625,328.5933,516.5035,335.4077,523.701,334.9643,526.06,328.15" style="stroke:#181818;stroke-width:1.0;"/></g><!--reverse link av to agc--><g id="link_av_agc"><path codeLine="141" d="M913.898,336.78 C888.925,358.68 862.246,382.08 838.519,402.89 " fill="none" id="av-backto-agc" style="stroke:#181818;stroke-width:1.0;"/><polygon fill="#181818" points="923.741,328.15,916.5927,329.0996,914.7199,336.0633,921.8682,335.1137,923.741,328.15" style="stroke:#181818;stroke-width:1.0;"/></g><!--reverse link pv to pcb--><g id="link_pv_pcb"><path codeLine="144" d="M752.664,333.59 C769.506,340.95 786.859,347.37 804,352 C823.435,357.25 969.707,346.91 985,360 C1089.19,449.19 1046,525.35 1046,662.5 C1046,662.5 1046,662.5 1046,976 C1046,1117.562 1061.07,1286.14 1067.81,1354.46 " fill="none" id="pv-backto-pcb" style="stroke:#181818;stroke-width:1.0;"/><polygon fill="#181818" points="740.501,328.08,744.3167,334.1989,751.4324,333.0301,747.6168,326.9113,740.501,328.08" style="stroke:#181818;stroke-width:1.0;"/></g><!--reverse link av to agb--><g id="link_av_agb"><path codeLine="145" d="M1092.5,337.73 C1163.71,414.19 1253,535.4 1253,662.5 C1253,662.5 1253,662.5 1253,976 C1253,1118.781 1290.88,1286.344 1307.89,1354.413 " fill="none" id="av-backto-agb" style="stroke:#181818;stroke-width:1.0;"/><polygon fill="#181818" points="1083.47,328.17,1084.6747,335.2798,1091.701,336.9022,1090.4962,329.7924,1083.47,328.17" style="stroke:#181818;stroke-width:1.0;"/></g><!--reverse link pd to ic--><g id="link_pd_ic"><path codeLine="147" d="M332.122,731.689 C340.29,746.473 349.337,762.847 358.761,779.904 " fill="none" id="pd-backto-ic" style="stroke:#181818;stroke-width:1.0;"/><polygon fill="#181818" points="325.769,720.19,325.1697,727.3762,331.5725,730.6933,332.1719,723.5071,325.769,720.19" style="stroke:#181818;stroke-width:1.0;"/></g><!--reverse link ad to ic--><g id="link_ad_ic"><path codeLine="148" d="M663.576,730.375 C651.309,745.501 637.653,762.34 623.409,779.904 " fill="none" id="ad-backto-ic" style="stroke:#181818;stroke-width:1.0;"/><polygon fill="#181818" points="671.836,720.19,664.9499,722.3306,664.2774,729.5103,671.1635,727.3697,671.836,720.19" style="stroke:#181818;stroke-width:1.0;"/></g><!--reverse link ic to dc--><g id="link_ic_dc"><path codeLine="150" d="M576.441,1174.65 C588.54,1196.412 599.271,1215.716 607.055,1229.717 " fill="none" id="ic-backto-dc" style="stroke:#181818;stroke-width:1.0;"/><polygon fill="#181818" points="574.004,1170.266,574.8795,1180.0759,576.4328,1174.6364,581.8722,1176.1898,574.004,1170.266" style="stroke:#181818;stroke-width:1.0;"/></g><!--reverse link ic to ce--><g id="link_ic_ce"><path codeLine="151" d="M326.347,1174.378 C310.949,1196.252 297.288,1215.657 287.391,1229.717 " fill="none" id="ic-backto-ce" style="stroke:#181818;stroke-width:1.0;"/><polygon fill="#181818" points="329.242,1170.266,320.7902,1175.3223,326.3636,1174.3544,327.3315,1179.9278,329.242,1170.266" style="stroke:#181818;stroke-width:1.0;"/></g><!--reverse link ce to cc--><g id="link_ce_cc"><path codeLine="153" d="M260.07,1290.658 C253.958,1310.599 246.412,1335.218 240.54,1354.375 " fill="none" id="ce-backto-cc" style="stroke:#181818;stroke-width:1.0;"/><polygon fill="#181818" points="263.941,1278.03,258.3581,1282.5942,260.4239,1289.503,266.0068,1284.9389,263.941,1278.03" style="stroke:#181818;stroke-width:1.0;"/></g><!--reverse link dc to dcc--><g id="link_dc_dcc"><path codeLine="154" d="M637.235,1290.144 C644.426,1304.806 652.891,1322.066 660.628,1337.843 " fill="none" id="dc-backto-dcc" style="stroke:#181818;stroke-width:1.0;"/><polygon fill="#181818" points="631.295,1278.03,630.3457,1285.1783,636.5791,1288.804,637.5284,1281.6556,631.295,1278.03" style="stroke:#181818;stroke-width:1.0;"/></g><!--SRC=[hLRDRXit4BxpAGRo9RQImaKD90s20ebbjG8QGsZQt4VaI6739RVahkt4y0FqCO8UYkGHUjMBTOQhbQYVk2aGw-3XS7w- -UNMgD_YWk1bCEJWQ4wpizCvt2hjC2KOF5-GDrYHRy80C04k-6vuNiz7OOhQCf_KS8GDZl0y-DIw1jNmfn1nugsswBh3s7ecxrP6SJ4JKwNj5wrrXkBWLhr6Pms2GHCI6892Q6sWrbc_1p1OGLB3or3rSEWIaxQxUfrZW5vrvHT0REowNWTunpzLhnB5OJOnECTQHu_7u_7fAQiUIDT6RfKupNA_aAOPWTW_4E1hIzUGRybVMOGQ8uAQjtxvz_Al03h4IAaEtWWgy0WQAnJ41ADiJWqxQx6lnODZpWnwJMwRzoCrXT_4h4sEjfDRXd4GVo_u5S1Fl7QjZRr50NfniyTYxFsn0ruK9uCu6ZqvE_lkSL6M4cEkHdt5jnFcHD7IeO80RMgN7w8D7V98t0tlCOgqHA5jyBa_32M-d5FC083Z41z5jt323QOcudy5yhDDpKOeJKFa9Zvy8OsTOptGQEkWyEi7LKxVVRrLo6q2w9W2o4RSPKynodxO2kgtH37ZdwEc759hxmifHAY82IFjvLDmdFnNxA7PRGlP270q_lxYxCMvj8NjdS1WiWediCNiqkfRzNBviGdIazFbFpDdDLCvVmWLUbkt3hkc5f6kUH-KumIRRaZ7Ii7gR_ZSc7NzU-BuASn2S8NKY1mrz0M2CiJE5RFm52ONlgquMJD7p_gB7s0RGbchWluSa5AyTS4l7aewwLVUhG-v5cz2R3u7RNl5RAChxhO0yWXSt72VfCxPGTFhxVrE1gQNwxcm7y8sb74CrHUaTvBARRwQQNCmPtTxcsQ4NJVL9czDMNnf-U6AdzYQN01klPJutsQHIhFrbLHI9XcO3dw_i9qhzdIv0Nfd-3-SbGcvtzzwYYvyOvjtnLhj6Bi3n5Drku6vbcdefkdkvI6SLBKZyIv3LLDCNFBb9rv8s66UHyPs7UBRbLTr1oMKo-2ddHARA12DQ8wCPHUIqHdIljGQbCcemkntQWAyidx1YGWU_cX9HhvPVfJDepk5RkvpAhzH9oVBFy6JfBXOjA9Nj09iRL9cACRz1gkoD1MbgZTxSY9e9Lx-OWcFJBZsZ_XbLlBbr1zneHIlnvF-U5MUwYlHrNncsYZv-10IZL8IwU3RGJuF_43CxhBOzBxGlepYLpGxq8oi8zcHMlFbUsjpCME-oRHbyJMbh8PdJ1hTKvguK9JljM3B54Fy5m00]--></g></svg>