<?xml version="1.0" encoding="UTF-8" standalone="no"?><svg xmlns="http://www.w3.org/2000/svg" xmlns:xlink="http://www.w3.org/1999/xlink" contentStyleType="text/css" height="1116px" preserveAspectRatio="none" style="width:1413px;height:1116px;background:#FFFFFF;" version="1.1" viewBox="0 0 1413 1116" width="1413px" zoomAndPan="magnify"><defs/><g><!--cluster Model--><g id="cluster_Model"><path d="M921.5,804.5 L970.5,804.5 A3.75,3.75 0 0 1 973,807 L980,826.7969 L1403.5,826.7969 A2.5,2.5 0 0 1 1406,829.2969 L1406,1106.5 A2.5,2.5 0 0 1 1403.5,1109 L921.5,1109 A2.5,2.5 0 0 1 919,1106.5 L919,807 A2.5,2.5 0 0 1 921.5,804.5 " fill="#FEB40F" style="stroke:#000000;stroke-width:1.5;"/><line style="stroke:#000000;stroke-width:1.5;" x1="919" x2="980" y1="826.7969" y2="826.7969"/><text fill="#000000" font-family="sans-serif" font-size="14" font-weight="bold" lengthAdjust="spacing" textLength="48" x="923" y="819.4951">Model</text></g><!--cluster Controller--><g id="cluster_Controller"><path d="M67.5,368 L149.5,368 A3.75,3.75 0 0 1 152,370.5 L159,390.2969 L903.5,390.2969 A2.5,2.5 0 0 1 906,392.7969 L906,545.5 A2.5,2.5 0 0 1 903.5,548 L67.5,548 A2.5,2.5 0 0 1 65,545.5 L65,370.5 A2.5,2.5 0 0 1 67.5,368 " fill="#7FFF00" style="stroke:#000000;stroke-width:1.5;"/><line style="stroke:#000000;stroke-width:1.5;" x1="65" x2="159" y1="390.2969" y2="390.2969"/><text fill="#000000" font-family="sans-serif" font-size="14" font-weight="bold" lengthAdjust="spacing" textLength="81" x="69" y="382.9951">Controller</text></g><!--cluster View--><g id="cluster_View"><path d="M360.5,6 L399.5,6 A3.75,3.75 0 0 1 402,8.5 L409,28.2969 L1122.5,28.2969 A2.5,2.5 0 0 1 1125,30.7969 L1125,341.5 A2.5,2.5 0 0 1 1122.5,344 L360.5,344 A2.5,2.5 0 0 1 358,341.5 L358,8.5 A2.5,2.5 0 0 1 360.5,6 " fill="#D84437" style="stroke:#000000;stroke-width:1.5;"/><line style="stroke:#000000;stroke-width:1.5;" x1="358" x2="409" y1="28.2969" y2="28.2969"/><text fill="#000000" font-family="sans-serif" font-size="14" font-weight="bold" lengthAdjust="spacing" textLength="38" x="362" y="20.9951">View</text></g><!--cluster Data--><g id="cluster_Data"><path d="M8.5,572 L48.5,572 A3.75,3.75 0 0 1 51,574.5 L58,594.2969 L892.5,594.2969 A2.5,2.5 0 0 1 895,596.7969 L895,957.5 A2.5,2.5 0 0 1 892.5,960 L8.5,960 A2.5,2.5 0 0 1 6,957.5 L6,574.5 A2.5,2.5 0 0 1 8.5,572 " fill="#F9E4BC" style="stroke:#000000;stroke-width:1.5;"/><line style="stroke:#000000;stroke-width:1.5;" x1="6" x2="58" y1="594.2969" y2="594.2969"/><text fill="#000000" font-family="sans-serif" font-size="14" font-weight="bold" lengthAdjust="spacing" textLength="39" x="10" y="586.9951">Data</text></g><!--cluster NonPersistent--><g id="cluster_NonPersistent"><path d="M32.5,615 L148.5,615 A3.75,3.75 0 0 1 151,617.5 L158,637.2969 L868.5,637.2969 A2.5,2.5 0 0 1 871,639.7969 L871,933.5 A2.5,2.5 0 0 1 868.5,936 L32.5,936 A2.5,2.5 0 0 1 30,933.5 L30,617.5 A2.5,2.5 0 0 1 32.5,615 " fill="none" style="stroke:#000000;stroke-width:1.5;"/><line style="stroke:#000000;stroke-width:1.5;" x1="30" x2="158" y1="637.2969" y2="637.2969"/><text fill="#000000" font-family="sans-serif" font-size="14" font-weight="bold" lengthAdjust="spacing" textLength="115" x="34" y="629.9951">NonPersistent</text></g><!--class ag--><g id="elem_ag"><rect codeLine="2" fill="#F1F1F1" height="113.1875" id="ag" rx="2.5" ry="2.5" style="stroke:#181818;stroke-width:0.5;" width="141" x="1172.5" y="980"/><ellipse cx="1190.65" cy="996" fill="#ADD1B2" rx="11" ry="11" style="stroke:#181818;stroke-width:1.0;"/><path d="M1192.9938,991.6719 C1192.0563,991.2344 1191.4625,991.0938 1190.5875,991.0938 C1187.9625,991.0938 1185.9625,993.1719 1185.9625,995.8906 L1185.9625,997.0156 C1185.9625,999.5938 1188.0719,1001.4844 1190.9625,1001.4844 C1192.1813,1001.4844 1193.3375,1001.1875 1194.0875,1000.6406 C1194.6656,1000.2344 1194.9938,999.7813 1194.9938,999.3906 C1194.9938,998.9375 1194.6031,998.5469 1194.1344,998.5469 C1193.9156,998.5469 1193.7125,998.625 1193.525,998.8125 C1193.0719,999.2969 1193.0719,999.2969 1192.8844,999.3906 C1192.4625,999.6563 1191.775,999.7813 1191.0094,999.7813 C1188.9625,999.7813 1187.6656,998.6875 1187.6656,996.9844 L1187.6656,995.8906 C1187.6656,994.1094 1188.9156,992.7969 1190.65,992.7969 C1191.2281,992.7969 1191.8375,992.9531 1192.3063,993.2031 C1192.7906,993.4844 1192.9625,993.7031 1193.0563,994.1094 C1193.1188,994.5156 1193.15,994.6406 1193.2906,994.7656 C1193.4313,994.9063 1193.6656,995.0156 1193.8844,995.0156 C1194.15,995.0156 1194.4156,994.875 1194.5875,994.6563 C1194.6969,994.5 1194.7281,994.3125 1194.7281,993.8906 L1194.7281,992.4688 C1194.7281,992.0313 1194.7125,991.9063 1194.6188,991.75 C1194.4625,991.4844 1194.1813,991.3438 1193.8844,991.3438 C1193.5875,991.3438 1193.3844,991.4375 1193.1656,991.75 L1192.9938,991.6719 Z " fill="#000000"/><text fill="#000000" font-family="sans-serif" font-size="14" lengthAdjust="spacing" textLength="102" x="1205.35" y="1000.8467">Agendamento</text><line style="stroke:#181818;stroke-width:0.5;" x1="1173.5" x2="1312.5" y1="1012" y2="1012"/><ellipse cx="1183.5" cy="1025.6484" fill="none" rx="3" ry="3" style="stroke:#038048;stroke-width:1.0;"/><text fill="#000000" font-family="sans-serif" font-size="14" lengthAdjust="spacing" textLength="109" x="1192.5" y="1028.9951">CpfDoPaciente</text><ellipse cx="1183.5" cy="1041.9453" fill="none" rx="3" ry="3" style="stroke:#038048;stroke-width:1.0;"/><text fill="#000000" font-family="sans-serif" font-size="14" lengthAdjust="spacing" textLength="115" x="1192.5" y="1045.292">DataDaConsulta</text><ellipse cx="1183.5" cy="1058.2422" fill="none" rx="3" ry="3" style="stroke:#038048;stroke-width:1.0;"/><text fill="#000000" font-family="sans-serif" font-size="14" lengthAdjust="spacing" textLength="74" x="1192.5" y="1061.5889">HoraInicial</text><ellipse cx="1183.5" cy="1074.5391" fill="none" rx="3" ry="3" style="stroke:#038048;stroke-width:1.0;"/><text fill="#000000" font-family="sans-serif" font-size="14" lengthAdjust="spacing" textLength="66" x="1192.5" y="1077.8857">HoraFinal</text><line style="stroke:#181818;stroke-width:0.5;" x1="1173.5" x2="1312.5" y1="1085.1875" y2="1085.1875"/></g><!--class agb--><g id="elem_agb"><rect codeLine="8" fill="#F1F1F1" height="64.2969" id="agb" rx="2.5" ry="2.5" style="stroke:#181818;stroke-width:0.5;" width="229" x="1160.5" y="839.5"/><ellipse cx="1195.75" cy="855.5" fill="#ADD1B2" rx="11" ry="11" style="stroke:#181818;stroke-width:1.0;"/><path d="M1198.0938,851.1719 C1197.1563,850.7344 1196.5625,850.5938 1195.6875,850.5938 C1193.0625,850.5938 1191.0625,852.6719 1191.0625,855.3906 L1191.0625,856.5156 C1191.0625,859.0938 1193.1719,860.9844 1196.0625,860.9844 C1197.2813,860.9844 1198.4375,860.6875 1199.1875,860.1406 C1199.7656,859.7344 1200.0938,859.2813 1200.0938,858.8906 C1200.0938,858.4375 1199.7031,858.0469 1199.2344,858.0469 C1199.0156,858.0469 1198.8125,858.125 1198.625,858.3125 C1198.1719,858.7969 1198.1719,858.7969 1197.9844,858.8906 C1197.5625,859.1563 1196.875,859.2813 1196.1094,859.2813 C1194.0625,859.2813 1192.7656,858.1875 1192.7656,856.4844 L1192.7656,855.3906 C1192.7656,853.6094 1194.0156,852.2969 1195.75,852.2969 C1196.3281,852.2969 1196.9375,852.4531 1197.4063,852.7031 C1197.8906,852.9844 1198.0625,853.2031 1198.1563,853.6094 C1198.2188,854.0156 1198.25,854.1406 1198.3906,854.2656 C1198.5313,854.4063 1198.7656,854.5156 1198.9844,854.5156 C1199.25,854.5156 1199.5156,854.375 1199.6875,854.1563 C1199.7969,854 1199.8281,853.8125 1199.8281,853.3906 L1199.8281,851.9688 C1199.8281,851.5313 1199.8125,851.4063 1199.7188,851.25 C1199.5625,850.9844 1199.2813,850.8438 1198.9844,850.8438 C1198.6875,850.8438 1198.4844,850.9375 1198.2656,851.25 L1198.0938,851.1719 Z " fill="#000000"/><text fill="#000000" font-family="sans-serif" font-size="14" lengthAdjust="spacing" textLength="152" x="1214.25" y="860.3467">AgendamentoBuilder</text><line style="stroke:#181818;stroke-width:0.5;" x1="1161.5" x2="1388.5" y1="871.5" y2="871.5"/><text fill="#000000" font-family="sans-serif" font-size="14" lengthAdjust="spacing" textLength="217" x="1166.5" y="888.4951">Valida dados de Agendamento</text><line style="stroke:#181818;stroke-width:0.5;" x1="1161.5" x2="1388.5" y1="895.7969" y2="895.7969"/></g><!--class pc--><g id="elem_pc"><rect codeLine="11" fill="#F1F1F1" height="96.8906" id="pc" rx="2.5" ry="2.5" style="stroke:#181818;stroke-width:0.5;" width="165" x="941.5" y="988"/><ellipse cx="988.25" cy="1004" fill="#ADD1B2" rx="11" ry="11" style="stroke:#181818;stroke-width:1.0;"/><path d="M990.5938,999.6719 C989.6563,999.2344 989.0625,999.0938 988.1875,999.0938 C985.5625,999.0938 983.5625,1001.1719 983.5625,1003.8906 L983.5625,1005.0156 C983.5625,1007.5938 985.6719,1009.4844 988.5625,1009.4844 C989.7813,1009.4844 990.9375,1009.1875 991.6875,1008.6406 C992.2656,1008.2344 992.5938,1007.7813 992.5938,1007.3906 C992.5938,1006.9375 992.2031,1006.5469 991.7344,1006.5469 C991.5156,1006.5469 991.3125,1006.625 991.125,1006.8125 C990.6719,1007.2969 990.6719,1007.2969 990.4844,1007.3906 C990.0625,1007.6563 989.375,1007.7813 988.6094,1007.7813 C986.5625,1007.7813 985.2656,1006.6875 985.2656,1004.9844 L985.2656,1003.8906 C985.2656,1002.1094 986.5156,1000.7969 988.25,1000.7969 C988.8281,1000.7969 989.4375,1000.9531 989.9063,1001.2031 C990.3906,1001.4844 990.5625,1001.7031 990.6563,1002.1094 C990.7188,1002.5156 990.75,1002.6406 990.8906,1002.7656 C991.0313,1002.9063 991.2656,1003.0156 991.4844,1003.0156 C991.75,1003.0156 992.0156,1002.875 992.1875,1002.6563 C992.2969,1002.5 992.3281,1002.3125 992.3281,1001.8906 L992.3281,1000.4688 C992.3281,1000.0313 992.3125,999.9063 992.2188,999.75 C992.0625,999.4844 991.7813,999.3438 991.4844,999.3438 C991.1875,999.3438 990.9844,999.4375 990.7656,999.75 L990.5938,999.6719 Z " fill="#000000"/><text fill="#000000" font-family="sans-serif" font-size="14" lengthAdjust="spacing" textLength="63" x="1008.75" y="1008.8467">Paciente</text><line style="stroke:#181818;stroke-width:0.5;" x1="942.5" x2="1105.5" y1="1020" y2="1020"/><ellipse cx="952.5" cy="1033.6484" fill="none" rx="3" ry="3" style="stroke:#038048;stroke-width:1.0;"/><text fill="#000000" font-family="sans-serif" font-size="14" lengthAdjust="spacing" textLength="26" x="961.5" y="1036.9951">Cpf</text><ellipse cx="952.5" cy="1049.9453" fill="none" rx="3" ry="3" style="stroke:#038048;stroke-width:1.0;"/><text fill="#000000" font-family="sans-serif" font-size="14" lengthAdjust="spacing" textLength="42" x="961.5" y="1053.292">Nome</text><ellipse cx="952.5" cy="1066.2422" fill="none" rx="3" ry="3" style="stroke:#038048;stroke-width:1.0;"/><text fill="#000000" font-family="sans-serif" font-size="14" lengthAdjust="spacing" textLength="139" x="961.5" y="1069.5889">DataDeNascimento</text><line style="stroke:#181818;stroke-width:0.5;" x1="942.5" x2="1105.5" y1="1076.8906" y2="1076.8906"/></g><!--class pcb--><g id="elem_pcb"><rect codeLine="16" fill="#F1F1F1" height="64.2969" id="pcb" rx="2.5" ry="2.5" style="stroke:#181818;stroke-width:0.5;" width="190" x="935" y="839.5"/><ellipse cx="963.05" cy="855.5" fill="#ADD1B2" rx="11" ry="11" style="stroke:#181818;stroke-width:1.0;"/><path d="M965.3938,851.1719 C964.4563,850.7344 963.8625,850.5938 962.9875,850.5938 C960.3625,850.5938 958.3625,852.6719 958.3625,855.3906 L958.3625,856.5156 C958.3625,859.0938 960.4719,860.9844 963.3625,860.9844 C964.5813,860.9844 965.7375,860.6875 966.4875,860.1406 C967.0656,859.7344 967.3938,859.2813 967.3938,858.8906 C967.3938,858.4375 967.0031,858.0469 966.5344,858.0469 C966.3156,858.0469 966.1125,858.125 965.925,858.3125 C965.4719,858.7969 965.4719,858.7969 965.2844,858.8906 C964.8625,859.1563 964.175,859.2813 963.4094,859.2813 C961.3625,859.2813 960.0656,858.1875 960.0656,856.4844 L960.0656,855.3906 C960.0656,853.6094 961.3156,852.2969 963.05,852.2969 C963.6281,852.2969 964.2375,852.4531 964.7063,852.7031 C965.1906,852.9844 965.3625,853.2031 965.4563,853.6094 C965.5188,854.0156 965.55,854.1406 965.6906,854.2656 C965.8313,854.4063 966.0656,854.5156 966.2844,854.5156 C966.55,854.5156 966.8156,854.375 966.9875,854.1563 C967.0969,854 967.1281,853.8125 967.1281,853.3906 L967.1281,851.9688 C967.1281,851.5313 967.1125,851.4063 967.0188,851.25 C966.8625,850.9844 966.5813,850.8438 966.2844,850.8438 C965.9875,850.8438 965.7844,850.9375 965.5656,851.25 L965.3938,851.1719 Z " fill="#000000"/><text fill="#000000" font-family="sans-serif" font-size="14" lengthAdjust="spacing" textLength="113" x="987.95" y="860.3467">PacienteBuilder</text><line style="stroke:#181818;stroke-width:0.5;" x1="936" x2="1124" y1="871.5" y2="871.5"/><text fill="#000000" font-family="sans-serif" font-size="14" lengthAdjust="spacing" textLength="178" x="941" y="888.4951">Valida dados de Paciente</text><line style="stroke:#181818;stroke-width:0.5;" x1="936" x2="1124" y1="895.7969" y2="895.7969"/></g><!--class agc--><g id="elem_agc"><rect codeLine="23" fill="#F1F1F1" height="129.4844" id="agc" rx="2.5" ry="2.5" style="stroke:#181818;stroke-width:0.5;" width="406" x="484" y="403"/><ellipse cx="595.25" cy="419" fill="#ADD1B2" rx="11" ry="11" style="stroke:#181818;stroke-width:1.0;"/><path d="M597.5938,414.6719 C596.6563,414.2344 596.0625,414.0938 595.1875,414.0938 C592.5625,414.0938 590.5625,416.1719 590.5625,418.8906 L590.5625,420.0156 C590.5625,422.5938 592.6719,424.4844 595.5625,424.4844 C596.7813,424.4844 597.9375,424.1875 598.6875,423.6406 C599.2656,423.2344 599.5938,422.7813 599.5938,422.3906 C599.5938,421.9375 599.2031,421.5469 598.7344,421.5469 C598.5156,421.5469 598.3125,421.625 598.125,421.8125 C597.6719,422.2969 597.6719,422.2969 597.4844,422.3906 C597.0625,422.6563 596.375,422.7813 595.6094,422.7813 C593.5625,422.7813 592.2656,421.6875 592.2656,419.9844 L592.2656,418.8906 C592.2656,417.1094 593.5156,415.7969 595.25,415.7969 C595.8281,415.7969 596.4375,415.9531 596.9063,416.2031 C597.3906,416.4844 597.5625,416.7031 597.6563,417.1094 C597.7188,417.5156 597.75,417.6406 597.8906,417.7656 C598.0313,417.9063 598.2656,418.0156 598.4844,418.0156 C598.75,418.0156 599.0156,417.875 599.1875,417.6563 C599.2969,417.5 599.3281,417.3125 599.3281,416.8906 L599.3281,415.4688 C599.3281,415.0313 599.3125,414.9063 599.2188,414.75 C599.0625,414.4844 598.7813,414.3438 598.4844,414.3438 C598.1875,414.3438 597.9844,414.4375 597.7656,414.75 L597.5938,414.6719 Z " fill="#000000"/><text fill="#000000" font-family="sans-serif" font-size="14" lengthAdjust="spacing" textLength="175" x="615.75" y="423.8467">AgendamentoController</text><line style="stroke:#181818;stroke-width:0.5;" x1="485" x2="889" y1="435" y2="435"/><text fill="#000000" font-family="sans-serif" font-size="14" lengthAdjust="spacing" textLength="394" x="490" y="451.9951">Recebe os dados de AgendamentoView e os envia para</text><text fill="#000000" font-family="sans-serif" font-size="14" lengthAdjust="spacing" textLength="318" x="490" y="468.292">função correspondente na camada de Dados</text><line style="stroke:#181818;stroke-width:0.5;" x1="485" x2="889" y1="475.5938" y2="475.5938"/><ellipse cx="495" cy="489.2422" fill="#84BE84" rx="3" ry="3" style="stroke:#038048;stroke-width:1.0;"/><text fill="#000000" font-family="sans-serif" font-size="14" lengthAdjust="spacing" textLength="132" x="504" y="492.5889">AgendarConsulta()</text><ellipse cx="495" cy="505.5391" fill="#84BE84" rx="3" ry="3" style="stroke:#038048;stroke-width:1.0;"/><text fill="#000000" font-family="sans-serif" font-size="14" lengthAdjust="spacing" textLength="134" x="504" y="508.8857">CancelarConsulta()</text><ellipse cx="495" cy="521.8359" fill="#84BE84" rx="3" ry="3" style="stroke:#038048;stroke-width:1.0;"/><text fill="#000000" font-family="sans-serif" font-size="14" lengthAdjust="spacing" textLength="146" x="504" y="525.1826">GetAgendamentos()</text></g><!--class pcc--><g id="elem_pcc"><rect codeLine="30" fill="#F1F1F1" height="129.4844" id="pcc" rx="2.5" ry="2.5" style="stroke:#181818;stroke-width:0.5;" width="367" x="81.5" y="403"/><ellipse cx="192.75" cy="419" fill="#ADD1B2" rx="11" ry="11" style="stroke:#181818;stroke-width:1.0;"/><path d="M195.0938,414.6719 C194.1563,414.2344 193.5625,414.0938 192.6875,414.0938 C190.0625,414.0938 188.0625,416.1719 188.0625,418.8906 L188.0625,420.0156 C188.0625,422.5938 190.1719,424.4844 193.0625,424.4844 C194.2813,424.4844 195.4375,424.1875 196.1875,423.6406 C196.7656,423.2344 197.0938,422.7813 197.0938,422.3906 C197.0938,421.9375 196.7031,421.5469 196.2344,421.5469 C196.0156,421.5469 195.8125,421.625 195.625,421.8125 C195.1719,422.2969 195.1719,422.2969 194.9844,422.3906 C194.5625,422.6563 193.875,422.7813 193.1094,422.7813 C191.0625,422.7813 189.7656,421.6875 189.7656,419.9844 L189.7656,418.8906 C189.7656,417.1094 191.0156,415.7969 192.75,415.7969 C193.3281,415.7969 193.9375,415.9531 194.4063,416.2031 C194.8906,416.4844 195.0625,416.7031 195.1563,417.1094 C195.2188,417.5156 195.25,417.6406 195.3906,417.7656 C195.5313,417.9063 195.7656,418.0156 195.9844,418.0156 C196.25,418.0156 196.5156,417.875 196.6875,417.6563 C196.7969,417.5 196.8281,417.3125 196.8281,416.8906 L196.8281,415.4688 C196.8281,415.0313 196.8125,414.9063 196.7188,414.75 C196.5625,414.4844 196.2813,414.3438 195.9844,414.3438 C195.6875,414.3438 195.4844,414.4375 195.2656,414.75 L195.0938,414.6719 Z " fill="#000000"/><text fill="#000000" font-family="sans-serif" font-size="14" lengthAdjust="spacing" textLength="136" x="213.25" y="423.8467">PacienteController</text><line style="stroke:#181818;stroke-width:0.5;" x1="82.5" x2="447.5" y1="435" y2="435"/><text fill="#000000" font-family="sans-serif" font-size="14" lengthAdjust="spacing" textLength="355" x="87.5" y="451.9951">Recebe os dados de PacienteView e os envia para</text><text fill="#000000" font-family="sans-serif" font-size="14" lengthAdjust="spacing" textLength="318" x="87.5" y="468.292">função correspondente na camada de Dados</text><line style="stroke:#181818;stroke-width:0.5;" x1="82.5" x2="447.5" y1="475.5938" y2="475.5938"/><ellipse cx="92.5" cy="489.2422" fill="#84BE84" rx="3" ry="3" style="stroke:#038048;stroke-width:1.0;"/><text fill="#000000" font-family="sans-serif" font-size="14" lengthAdjust="spacing" textLength="116" x="101.5" y="492.5889">IncluirPaciente()</text><ellipse cx="92.5" cy="505.5391" fill="#84BE84" rx="3" ry="3" style="stroke:#038048;stroke-width:1.0;"/><text fill="#000000" font-family="sans-serif" font-size="14" lengthAdjust="spacing" textLength="120" x="101.5" y="508.8857">ExcluirPaciente()</text><ellipse cx="92.5" cy="521.8359" fill="#84BE84" rx="3" ry="3" style="stroke:#038048;stroke-width:1.0;"/><text fill="#000000" font-family="sans-serif" font-size="14" lengthAdjust="spacing" textLength="107" x="101.5" y="525.1826">GetPacientes()</text></g><!--class pv--><g id="elem_pv"><rect codeLine="41" fill="#F1F1F1" height="145.7813" id="pv" rx="2.5" ry="2.5" style="stroke:#181818;stroke-width:0.5;" width="330" x="374" y="182"/><ellipse cx="486.25" cy="198" fill="#ADD1B2" rx="11" ry="11" style="stroke:#181818;stroke-width:1.0;"/><path d="M488.5938,193.6719 C487.6563,193.2344 487.0625,193.0938 486.1875,193.0938 C483.5625,193.0938 481.5625,195.1719 481.5625,197.8906 L481.5625,199.0156 C481.5625,201.5938 483.6719,203.4844 486.5625,203.4844 C487.7813,203.4844 488.9375,203.1875 489.6875,202.6406 C490.2656,202.2344 490.5938,201.7813 490.5938,201.3906 C490.5938,200.9375 490.2031,200.5469 489.7344,200.5469 C489.5156,200.5469 489.3125,200.625 489.125,200.8125 C488.6719,201.2969 488.6719,201.2969 488.4844,201.3906 C488.0625,201.6563 487.375,201.7813 486.6094,201.7813 C484.5625,201.7813 483.2656,200.6875 483.2656,198.9844 L483.2656,197.8906 C483.2656,196.1094 484.5156,194.7969 486.25,194.7969 C486.8281,194.7969 487.4375,194.9531 487.9063,195.2031 C488.3906,195.4844 488.5625,195.7031 488.6563,196.1094 C488.7188,196.5156 488.75,196.6406 488.8906,196.7656 C489.0313,196.9063 489.2656,197.0156 489.4844,197.0156 C489.75,197.0156 490.0156,196.875 490.1875,196.6563 C490.2969,196.5 490.3281,196.3125 490.3281,195.8906 L490.3281,194.4688 C490.3281,194.0313 490.3125,193.9063 490.2188,193.75 C490.0625,193.4844 489.7813,193.3438 489.4844,193.3438 C489.1875,193.3438 488.9844,193.4375 488.7656,193.75 L488.5938,193.6719 Z " fill="#000000"/><text fill="#000000" font-family="sans-serif" font-size="14" lengthAdjust="spacing" textLength="97" x="506.75" y="202.8467">PacienteView</text><line style="stroke:#181818;stroke-width:0.5;" x1="375" x2="703" y1="214" y2="214"/><text fill="#000000" font-family="sans-serif" font-size="14" lengthAdjust="spacing" textLength="275" x="380" y="230.9951">Interage com o usuário para realizar as</text><text fill="#000000" font-family="sans-serif" font-size="14" lengthAdjust="spacing" textLength="318" x="380" y="247.292">funcionalidades referentes a classe Paciente</text><line style="stroke:#181818;stroke-width:0.5;" x1="375" x2="703" y1="254.5938" y2="254.5938"/><ellipse cx="385" cy="268.2422" fill="#84BE84" rx="3" ry="3" style="stroke:#038048;stroke-width:1.0;"/><text fill="#000000" font-family="sans-serif" font-size="14" lengthAdjust="spacing" textLength="142" x="394" y="271.5889">CadastrarPaciente()</text><ellipse cx="385" cy="284.5391" fill="#84BE84" rx="3" ry="3" style="stroke:#038048;stroke-width:1.0;"/><text fill="#000000" font-family="sans-serif" font-size="14" lengthAdjust="spacing" textLength="120" x="394" y="287.8857">ExcluirPaciente()</text><ellipse cx="385" cy="300.8359" fill="#84BE84" rx="3" ry="3" style="stroke:#038048;stroke-width:1.0;"/><text fill="#000000" font-family="sans-serif" font-size="14" lengthAdjust="spacing" textLength="170" x="394" y="304.1826">ListarPacientesPorCpf()</text><ellipse cx="385" cy="317.1328" fill="#84BE84" rx="3" ry="3" style="stroke:#038048;stroke-width:1.0;"/><text fill="#000000" font-family="sans-serif" font-size="14" lengthAdjust="spacing" textLength="186" x="394" y="320.4795">ListarPacientesPorNome()</text></g><!--class av--><g id="elem_av"><rect codeLine="50" fill="#F1F1F1" height="145.7813" id="av" rx="2.5" ry="2.5" style="stroke:#181818;stroke-width:0.5;" width="369" x="739.5" y="182"/><ellipse cx="851.75" cy="198" fill="#ADD1B2" rx="11" ry="11" style="stroke:#181818;stroke-width:1.0;"/><path d="M854.0938,193.6719 C853.1563,193.2344 852.5625,193.0938 851.6875,193.0938 C849.0625,193.0938 847.0625,195.1719 847.0625,197.8906 L847.0625,199.0156 C847.0625,201.5938 849.1719,203.4844 852.0625,203.4844 C853.2813,203.4844 854.4375,203.1875 855.1875,202.6406 C855.7656,202.2344 856.0938,201.7813 856.0938,201.3906 C856.0938,200.9375 855.7031,200.5469 855.2344,200.5469 C855.0156,200.5469 854.8125,200.625 854.625,200.8125 C854.1719,201.2969 854.1719,201.2969 853.9844,201.3906 C853.5625,201.6563 852.875,201.7813 852.1094,201.7813 C850.0625,201.7813 848.7656,200.6875 848.7656,198.9844 L848.7656,197.8906 C848.7656,196.1094 850.0156,194.7969 851.75,194.7969 C852.3281,194.7969 852.9375,194.9531 853.4063,195.2031 C853.8906,195.4844 854.0625,195.7031 854.1563,196.1094 C854.2188,196.5156 854.25,196.6406 854.3906,196.7656 C854.5313,196.9063 854.7656,197.0156 854.9844,197.0156 C855.25,197.0156 855.5156,196.875 855.6875,196.6563 C855.7969,196.5 855.8281,196.3125 855.8281,195.8906 L855.8281,194.4688 C855.8281,194.0313 855.8125,193.9063 855.7188,193.75 C855.5625,193.4844 855.2813,193.3438 854.9844,193.3438 C854.6875,193.3438 854.4844,193.4375 854.2656,193.75 L854.0938,193.6719 Z " fill="#000000"/><text fill="#000000" font-family="sans-serif" font-size="14" lengthAdjust="spacing" textLength="136" x="872.25" y="202.8467">AgendamentoView</text><line style="stroke:#181818;stroke-width:0.5;" x1="740.5" x2="1107.5" y1="214" y2="214"/><text fill="#000000" font-family="sans-serif" font-size="14" lengthAdjust="spacing" textLength="275" x="745.5" y="230.9951">Interage com o usuário para realizar as</text><text fill="#000000" font-family="sans-serif" font-size="14" lengthAdjust="spacing" textLength="357" x="745.5" y="247.292">funcionalidades referentes a classe Agendamento</text><line style="stroke:#181818;stroke-width:0.5;" x1="740.5" x2="1107.5" y1="254.5938" y2="254.5938"/><ellipse cx="750.5" cy="268.2422" fill="#84BE84" rx="3" ry="3" style="stroke:#038048;stroke-width:1.0;"/><text fill="#000000" font-family="sans-serif" font-size="14" lengthAdjust="spacing" textLength="132" x="759.5" y="271.5889">AgendarConsulta()</text><ellipse cx="750.5" cy="284.5391" fill="#84BE84" rx="3" ry="3" style="stroke:#038048;stroke-width:1.0;"/><text fill="#000000" font-family="sans-serif" font-size="14" lengthAdjust="spacing" textLength="174" x="759.5" y="287.8857">CancelarAgendamento()</text><ellipse cx="750.5" cy="300.8359" fill="#84BE84" rx="3" ry="3" style="stroke:#038048;stroke-width:1.0;"/><text fill="#000000" font-family="sans-serif" font-size="14" lengthAdjust="spacing" textLength="151" x="759.5" y="304.1826">ListarAgendaInteira()</text><ellipse cx="750.5" cy="317.1328" fill="#84BE84" rx="3" ry="3" style="stroke:#038048;stroke-width:1.0;"/><text fill="#000000" font-family="sans-serif" font-size="14" lengthAdjust="spacing" textLength="151" x="759.5" y="320.4795">ListarAgendaParcial()</text></g><!--class ui--><g id="elem_ui"><rect codeLine="59" fill="#F1F1F1" height="80.5938" id="ui" rx="2.5" ry="2.5" style="stroke:#181818;stroke-width:0.5;" width="325" x="568.5" y="41"/><ellipse cx="678.25" cy="57" fill="#ADD1B2" rx="11" ry="11" style="stroke:#181818;stroke-width:1.0;"/><path d="M680.5938,52.6719 C679.6563,52.2344 679.0625,52.0938 678.1875,52.0938 C675.5625,52.0938 673.5625,54.1719 673.5625,56.8906 L673.5625,58.0156 C673.5625,60.5938 675.6719,62.4844 678.5625,62.4844 C679.7813,62.4844 680.9375,62.1875 681.6875,61.6406 C682.2656,61.2344 682.5938,60.7813 682.5938,60.3906 C682.5938,59.9375 682.2031,59.5469 681.7344,59.5469 C681.5156,59.5469 681.3125,59.625 681.125,59.8125 C680.6719,60.2969 680.6719,60.2969 680.4844,60.3906 C680.0625,60.6563 679.375,60.7813 678.6094,60.7813 C676.5625,60.7813 675.2656,59.6875 675.2656,57.9844 L675.2656,56.8906 C675.2656,55.1094 676.5156,53.7969 678.25,53.7969 C678.8281,53.7969 679.4375,53.9531 679.9063,54.2031 C680.3906,54.4844 680.5625,54.7031 680.6563,55.1094 C680.7188,55.5156 680.75,55.6406 680.8906,55.7656 C681.0313,55.9063 681.2656,56.0156 681.4844,56.0156 C681.75,56.0156 682.0156,55.875 682.1875,55.6563 C682.2969,55.5 682.3281,55.3125 682.3281,54.8906 L682.3281,53.4688 C682.3281,53.0313 682.3125,52.9063 682.2188,52.75 C682.0625,52.4844 681.7813,52.3438 681.4844,52.3438 C681.1875,52.3438 680.9844,52.4375 680.7656,52.75 L680.5938,52.6719 Z " fill="#000000"/><text fill="#000000" font-family="sans-serif" font-size="14" lengthAdjust="spacing" textLength="97" x="698.75" y="61.8467">UserInterface</text><line style="stroke:#181818;stroke-width:0.5;" x1="569.5" x2="892.5" y1="73" y2="73"/><text fill="#000000" font-family="sans-serif" font-size="14" lengthAdjust="spacing" textLength="313" x="574.5" y="89.9951">Interage com o usuário por meio do console</text><line style="stroke:#181818;stroke-width:0.5;" x1="569.5" x2="892.5" y1="97.2969" y2="97.2969"/><ellipse cx="579.5" cy="110.9453" fill="#84BE84" rx="3" ry="3" style="stroke:#038048;stroke-width:1.0;"/><text fill="#000000" font-family="sans-serif" font-size="14" lengthAdjust="spacing" textLength="47" x="588.5" y="114.292">Start()</text></g><!--class pd--><g id="elem_pd"><rect codeLine="69" fill="#F1F1F1" height="113.1875" id="pd" rx="2.5" ry="2.5" style="stroke:#181818;stroke-width:0.5;" width="367" x="46.5" y="650"/><ellipse cx="180.25" cy="666" fill="#ADD1B2" rx="11" ry="11" style="stroke:#181818;stroke-width:1.0;"/><path d="M182.5938,661.6719 C181.6563,661.2344 181.0625,661.0938 180.1875,661.0938 C177.5625,661.0938 175.5625,663.1719 175.5625,665.8906 L175.5625,667.0156 C175.5625,669.5938 177.6719,671.4844 180.5625,671.4844 C181.7813,671.4844 182.9375,671.1875 183.6875,670.6406 C184.2656,670.2344 184.5938,669.7813 184.5938,669.3906 C184.5938,668.9375 184.2031,668.5469 183.7344,668.5469 C183.5156,668.5469 183.3125,668.625 183.125,668.8125 C182.6719,669.2969 182.6719,669.2969 182.4844,669.3906 C182.0625,669.6563 181.375,669.7813 180.6094,669.7813 C178.5625,669.7813 177.2656,668.6875 177.2656,666.9844 L177.2656,665.8906 C177.2656,664.1094 178.5156,662.7969 180.25,662.7969 C180.8281,662.7969 181.4375,662.9531 181.9063,663.2031 C182.3906,663.4844 182.5625,663.7031 182.6563,664.1094 C182.7188,664.5156 182.75,664.6406 182.8906,664.7656 C183.0313,664.9063 183.2656,665.0156 183.4844,665.0156 C183.75,665.0156 184.0156,664.875 184.1875,664.6563 C184.2969,664.5 184.3281,664.3125 184.3281,663.8906 L184.3281,662.4688 C184.3281,662.0313 184.3125,661.9063 184.2188,661.75 C184.0625,661.4844 183.7813,661.3438 183.4844,661.3438 C183.1875,661.3438 182.9844,661.4375 182.7656,661.75 L182.5938,661.6719 Z " fill="#000000"/><text fill="#000000" font-family="sans-serif" font-size="14" lengthAdjust="spacing" textLength="91" x="200.75" y="670.8467">PacienteDao</text><line style="stroke:#181818;stroke-width:0.5;" x1="47.5" x2="412.5" y1="682" y2="682"/><text fill="#000000" font-family="sans-serif" font-size="14" lengthAdjust="spacing" textLength="355" x="52.5" y="698.9951">Responsável pelo acesso aos dados dos Pacientes</text><line style="stroke:#181818;stroke-width:0.5;" x1="47.5" x2="412.5" y1="706.2969" y2="706.2969"/><ellipse cx="57.5" cy="719.9453" fill="#84BE84" rx="3" ry="3" style="stroke:#038048;stroke-width:1.0;"/><text fill="#000000" font-family="sans-serif" font-size="14" lengthAdjust="spacing" textLength="38" x="66.5" y="723.292">Add()</text><ellipse cx="57.5" cy="736.2422" fill="#84BE84" rx="3" ry="3" style="stroke:#038048;stroke-width:1.0;"/><text fill="#000000" font-family="sans-serif" font-size="14" lengthAdjust="spacing" textLength="59" x="66.5" y="739.5889">Delete()</text><ellipse cx="57.5" cy="752.5391" fill="#84BE84" rx="3" ry="3" style="stroke:#038048;stroke-width:1.0;"/><text fill="#000000" font-family="sans-serif" font-size="14" lengthAdjust="spacing" textLength="55" x="66.5" y="755.8857">GetAll()</text></g><!--class ad--><g id="elem_ad"><rect codeLine="75" fill="#F1F1F1" height="113.1875" id="ad" rx="2.5" ry="2.5" style="stroke:#181818;stroke-width:0.5;" width="406" x="449" y="650"/><ellipse cx="582.75" cy="666" fill="#ADD1B2" rx="11" ry="11" style="stroke:#181818;stroke-width:1.0;"/><path d="M585.0938,661.6719 C584.1563,661.2344 583.5625,661.0938 582.6875,661.0938 C580.0625,661.0938 578.0625,663.1719 578.0625,665.8906 L578.0625,667.0156 C578.0625,669.5938 580.1719,671.4844 583.0625,671.4844 C584.2813,671.4844 585.4375,671.1875 586.1875,670.6406 C586.7656,670.2344 587.0938,669.7813 587.0938,669.3906 C587.0938,668.9375 586.7031,668.5469 586.2344,668.5469 C586.0156,668.5469 585.8125,668.625 585.625,668.8125 C585.1719,669.2969 585.1719,669.2969 584.9844,669.3906 C584.5625,669.6563 583.875,669.7813 583.1094,669.7813 C581.0625,669.7813 579.7656,668.6875 579.7656,666.9844 L579.7656,665.8906 C579.7656,664.1094 581.0156,662.7969 582.75,662.7969 C583.3281,662.7969 583.9375,662.9531 584.4063,663.2031 C584.8906,663.4844 585.0625,663.7031 585.1563,664.1094 C585.2188,664.5156 585.25,664.6406 585.3906,664.7656 C585.5313,664.9063 585.7656,665.0156 585.9844,665.0156 C586.25,665.0156 586.5156,664.875 586.6875,664.6563 C586.7969,664.5 586.8281,664.3125 586.8281,663.8906 L586.8281,662.4688 C586.8281,662.0313 586.8125,661.9063 586.7188,661.75 C586.5625,661.4844 586.2813,661.3438 585.9844,661.3438 C585.6875,661.3438 585.4844,661.4375 585.2656,661.75 L585.0938,661.6719 Z " fill="#000000"/><text fill="#000000" font-family="sans-serif" font-size="14" lengthAdjust="spacing" textLength="130" x="603.25" y="670.8467">AgendamentoDao</text><line style="stroke:#181818;stroke-width:0.5;" x1="450" x2="854" y1="682" y2="682"/><text fill="#000000" font-family="sans-serif" font-size="14" lengthAdjust="spacing" textLength="394" x="455" y="698.9951">Responsável pelo acesso aos dados dos Agendamentos</text><line style="stroke:#181818;stroke-width:0.5;" x1="450" x2="854" y1="706.2969" y2="706.2969"/><ellipse cx="460" cy="719.9453" fill="#84BE84" rx="3" ry="3" style="stroke:#038048;stroke-width:1.0;"/><text fill="#000000" font-family="sans-serif" font-size="14" lengthAdjust="spacing" textLength="38" x="469" y="723.292">Add()</text><ellipse cx="460" cy="736.2422" fill="#84BE84" rx="3" ry="3" style="stroke:#038048;stroke-width:1.0;"/><text fill="#000000" font-family="sans-serif" font-size="14" lengthAdjust="spacing" textLength="59" x="469" y="739.5889">Delete()</text><ellipse cx="460" cy="752.5391" fill="#84BE84" rx="3" ry="3" style="stroke:#038048;stroke-width:1.0;"/><text fill="#000000" font-family="sans-serif" font-size="14" lengthAdjust="spacing" textLength="55" x="469" y="755.8857">GetAll()</text></g><!--class dt--><g id="elem_dt"><rect codeLine="81" fill="#F1F1F1" height="96.8906" id="dt" rx="2.5" ry="2.5" style="stroke:#181818;stroke-width:0.5;" width="423" x="431.5" y="823"/><ellipse cx="621.75" cy="839" fill="#ADD1B2" rx="11" ry="11" style="stroke:#181818;stroke-width:1.0;"/><path d="M624.0938,834.6719 C623.1563,834.2344 622.5625,834.0938 621.6875,834.0938 C619.0625,834.0938 617.0625,836.1719 617.0625,838.8906 L617.0625,840.0156 C617.0625,842.5938 619.1719,844.4844 622.0625,844.4844 C623.2813,844.4844 624.4375,844.1875 625.1875,843.6406 C625.7656,843.2344 626.0938,842.7813 626.0938,842.3906 C626.0938,841.9375 625.7031,841.5469 625.2344,841.5469 C625.0156,841.5469 624.8125,841.625 624.625,841.8125 C624.1719,842.2969 624.1719,842.2969 623.9844,842.3906 C623.5625,842.6563 622.875,842.7813 622.1094,842.7813 C620.0625,842.7813 618.7656,841.6875 618.7656,839.9844 L618.7656,838.8906 C618.7656,837.1094 620.0156,835.7969 621.75,835.7969 C622.3281,835.7969 622.9375,835.9531 623.4063,836.2031 C623.8906,836.4844 624.0625,836.7031 624.1563,837.1094 C624.2188,837.5156 624.25,837.6406 624.3906,837.7656 C624.5313,837.9063 624.7656,838.0156 624.9844,838.0156 C625.25,838.0156 625.5156,837.875 625.6875,837.6563 C625.7969,837.5 625.8281,837.3125 625.8281,836.8906 L625.8281,835.4688 C625.8281,835.0313 625.8125,834.9063 625.7188,834.75 C625.5625,834.4844 625.2813,834.3438 624.9844,834.3438 C624.6875,834.3438 624.4844,834.4375 624.2656,834.75 L624.0938,834.6719 Z " fill="#000000"/><text fill="#000000" font-family="sans-serif" font-size="14" lengthAdjust="spacing" textLength="34" x="642.25" y="843.8467">Data</text><line style="stroke:#181818;stroke-width:0.5;" x1="432.5" x2="853.5" y1="855" y2="855"/><text fill="#000000" font-family="sans-serif" font-size="14" lengthAdjust="spacing" textLength="379" x="437.5" y="871.9951">objeto Singleton que mantém o contexto dos dados.</text><text fill="#000000" font-family="sans-serif" font-size="14" lengthAdjust="spacing" textLength="411" x="437.5" y="888.292">**É necessário para que PacienteDao e AgendamentoDao</text><text fill="#000000" font-family="sans-serif" font-size="14" lengthAdjust="spacing" textLength="260" x="437.5" y="904.5889">tenham acesso aos mesmos dados**</text><line style="stroke:#181818;stroke-width:0.5;" x1="432.5" x2="853.5" y1="911.8906" y2="911.8906"/></g><!--reverse link pcb to pc--><g id="link_pcb_pc"><path codeLine="88" d="M1028.38,916.592 C1027.57,938.647 1026.58,965.369 1025.75,987.89 " fill="none" id="pcb-backto-pc" style="stroke:#181818;stroke-width:1.0;"/><polygon fill="none" points="1028.86,903.543,1024.6426,909.3922,1028.4199,915.5349,1032.6372,909.6857,1028.86,903.543" style="stroke:#181818;stroke-width:1.0;"/></g><!--reverse link agb to ag--><g id="link_agb_ag"><path codeLine="89" d="M1266.38,916.389 C1262.55,935.906 1258,959.107 1253.93,979.826 " fill="none" id="agb-backto-ag" style="stroke:#181818;stroke-width:1.0;"/><polygon fill="none" points="1268.91,903.543,1263.8291,908.6601,1266.5985,915.3183,1271.6793,910.2011,1268.91,903.543" style="stroke:#181818;stroke-width:1.0;"/></g><!--reverse link ui to av--><g id="link_ui_av"><path codeLine="91" d="M785.888,131.273 C803.577,146.992 823.573,164.76 842.745,181.797 " fill="none" id="ui-backto-av" style="stroke:#181818;stroke-width:1.0;"/><polygon fill="#181818" points="775.763,122.28,777.5913,129.2555,784.7334,130.2507,782.9051,123.2752,775.763,122.28" style="stroke:#181818;stroke-width:1.0;"/></g><!--reverse link ui to pv--><g id="link_ui_pv"><path codeLine="92" d="M676.397,131.273 C658.8,146.992 638.907,164.76 619.834,181.797 " fill="none" id="ui-backto-pv" style="stroke:#181818;stroke-width:1.0;"/><polygon fill="#181818" points="686.469,122.28,679.3295,123.2936,677.5192,130.2738,684.6587,129.2602,686.469,122.28" style="stroke:#181818;stroke-width:1.0;"/></g><!--reverse link pcc to pd--><g id="link_pcc_pd"><path codeLine="94" d="M253.662,545.272 C248.63,579.351 242.817,618.708 238.213,649.887 " fill="none" id="pcc-backto-pd" style="stroke:#181818;stroke-width:1.0;"/><polygon fill="#181818" points="255.621,532.012,250.7871,537.363,253.8673,543.8832,258.7012,538.5322,255.621,532.012" style="stroke:#181818;stroke-width:1.0;"/></g><!--reverse link agc to ad--><g id="link_agc_ad"><path codeLine="95" d="M675.662,545.272 C670.63,579.351 664.817,618.708 660.213,649.887 " fill="none" id="agc-backto-ad" style="stroke:#181818;stroke-width:1.0;"/><polygon fill="#181818" points="677.621,532.012,672.7871,537.363,675.8673,543.8832,680.7012,538.5322,677.621,532.012" style="stroke:#181818;stroke-width:1.0;"/></g><!--reverse link dt to pc--><g id="link_dt_pc"><path codeLine="97" d="M766.308,925.254 C823.637,949.78 890.276,978.29 941.425,1000.173 " fill="none" id="dt-backto-pc" style="stroke:#181818;stroke-width:1.0;"/><polygon fill="#181818" points="754.225,920.085,758.1681,926.1225,765.2578,924.8049,761.3147,918.7673,754.225,920.085" style="stroke:#181818;stroke-width:1.0;"/><text fill="#000000" font-family="sans-serif" font-size="13" lengthAdjust="spacing" textLength="8" x="761.3035" y="940.0559">1</text><text fill="#000000" font-family="sans-serif" font-size="13" lengthAdjust="spacing" textLength="8" x="925.4439" y="993.2108">n</text></g><!--reverse link dt to ag--><g id="link_dt_ag"><path codeLine="98" d="M769.755,924.535 C815.966,941.309 869.121,958.107 919,968 C1008.52,985.756 1035.51,957.647 1124,980 C1140.13,984.076 1156.74,990.34 1172.24,997.213 " fill="none" id="dt-backto-ag" style="stroke:#181818;stroke-width:1.0;"/><polygon fill="#181818" points="757.54,920.043,761.7907,925.8681,768.8025,924.1849,764.5519,918.3597,757.54,920.043" style="stroke:#181818;stroke-width:1.0;"/><text fill="#000000" font-family="sans-serif" font-size="13" lengthAdjust="spacing" textLength="8" x="774.2097" y="940.008">1</text><text fill="#000000" font-family="sans-serif" font-size="13" lengthAdjust="spacing" textLength="8" x="1156.5304" y="989.4522">n</text></g><!--reverse link pv to pcc--><g id="link_pv_pcc"><path codeLine="100" d="M434.606,336.2 C405.879,358.27 375.12,381.9 347.793,402.895 " fill="none" id="pv-backto-pcc" style="stroke:#181818;stroke-width:1.0;"/><polygon fill="#181818" points="445.088,328.148,437.8931,328.631,435.5717,335.4583,442.7666,334.9752,445.088,328.148" style="stroke:#181818;stroke-width:1.0;"/></g><!--reverse link av to agc--><g id="link_av_agc"><path codeLine="101" d="M833.049,336.781 C808.388,358.685 782.043,382.085 758.613,402.895 " fill="none" id="av-backto-agc" style="stroke:#181818;stroke-width:1.0;"/><polygon fill="#181818" points="842.77,328.148,835.6277,329.1416,833.7978,336.1167,840.9401,335.1231,842.77,328.148" style="stroke:#181818;stroke-width:1.0;"/></g><!--reverse link pv to pcb--><g id="link_pv_pcb"><path codeLine="104" d="M670.661,333.603 C687.503,340.957 704.857,347.379 722,352 C741.759,357.326 890.191,347.006 906,360 C981.567,422.112 1017.56,738.54 1027.24,839.499 " fill="none" id="pv-backto-pcb" style="stroke:#181818;stroke-width:1.0;"/><polygon fill="#181818" points="658.497,328.096,662.3127,334.2149,669.4284,333.0461,665.6128,326.9273,658.497,328.096" style="stroke:#181818;stroke-width:1.0;"/></g><!--reverse link av to agb--><g id="link_av_agb"><path codeLine="105" d="M990.69,339.027 C995.68,346.016 1000.51,353.064 1005,360 C1117.03,533.215 1223.39,757.759 1260.82,839.236 " fill="none" id="av-backto-agb" style="stroke:#181818;stroke-width:1.0;"/><polygon fill="#181818" points="982.748,328.115,983.0451,335.32,989.8101,337.8169,989.513,330.6119,982.748,328.115" style="stroke:#181818;stroke-width:1.0;"/></g><!--reverse link pd to dt--><g id="link_pd_dt"><path codeLine="107" d="M382.932,767.858 C428.972,786.029 478.828,805.706 522.454,822.924 " fill="none" id="pd-backto-dt" style="stroke:#181818;stroke-width:1.0;"/><polygon fill="#181818" points="370.688,763.026,374.8003,768.9496,381.8499,767.4319,377.7376,761.5083,370.688,763.026" style="stroke:#181818;stroke-width:1.0;"/></g><!--reverse link ad to dt--><g id="link_ad_dt"><path codeLine="108" d="M648.208,776.171 C647.338,791.933 646.432,808.352 645.623,822.988 " fill="none" id="ad-backto-dt" style="stroke:#181818;stroke-width:1.0;"/><polygon fill="#181818" points="648.928,763.139,644.6031,768.9092,648.266,775.1207,652.5909,769.3505,648.928,763.139" style="stroke:#181818;stroke-width:1.0;"/></g><!--SRC=[hLNDRXCn4BxxAKQR2oGgAY9IuTWs3LI2AgAYzuaz2GQllTYxQKNL1-0ngXuGpv4NO-pD9aw82aXL5CKUpy_tZJzFAfHVSKxmmIaoq9lHT7WuWriX3OO0nV6ShCAIREqAm00uvxF1QJKRkGbApNOIWn7MEC9JPqDZQXI3TyxZkTLIesatOsrvURTAYlDfJ9NdFccqKUIBMt65HYi4XSe5K0IPqpf19LDy1w1OGHA32rTsSEW2WzIxSMrXW2vqLHSWvjWjlIPunnzHhHh5D6llZE6etj5uF3uyvD0zxThuhHedsUyZIPeInFnx25vfkePqIdQX4Ihq26BMsENFvOC3wRodK3ch8Ygm219BZ8W9HYcT6BJPV7SNpvvpPz1ACjksjrHdTGERDZtQRcvEOo_-pl49m9zRQHhjkumHwDdD7oR6tcrRuDdb912zqUlXyDLHTYqvndGRrO9FpzdYOvHq9JXeGhEyzzgro3sn6hwZZzwHXTJE9dqe2dmu8vy00FE8DJArSCCLXjhZtuYyrw7UE8M9yopY_GTHs8dh7g6jIU7JayfVtsFQolms15fZ1AGzxfedwEDys2BrAP1F-6SeAL5gz6EKd8UIUA6Yl6nmXfj_oHNgNLd4YG2zyPkpuSbfb4Ldlt1sGZumB4Q-HoyZRATUfPBsetp3ydx1Wx8Yuu1HXi0_c-V0t_MrSSEKYhH7P6WjtMDZijUMtsDN3F-ZMFw8_wbUx4IgeY9VD_r2jODBRUSSuYnyQmXAjFNoL-mqDxMcczgbKgde2z7lBt-0fGWc4rQCove6MyfXW-06VyOo9r5IABkq_VxgldX0kmFbhkq13o8H_oYwBSw5O3Nqk-qYtrMB62jvpsibugoDIrH2CC_YPP6sXIrYrXrBJCpZ88LAhjakEOLOs-CVn-PWodQLrgeMsAr-0m00]--></g></svg>